<?xml version="1.0" encoding="UTF-8" standalone="no"?>
<svg width="377px" height="377px" viewBox="0 0 377 377" version="1.1" xmlns="http://www.w3.org/2000/svg" xmlns:xlink="http://www.w3.org/1999/xlink" xmlns:sketch="http://www.bohemiancoding.com/sketch/ns">
    <!-- Generator: Sketch 3.4.4 (17248) - http://www.bohemiancoding.com/sketch -->
    <title>cat-landing2</title>
    <desc>Created with Sketch.</desc>
    <defs>
        <path id="path-1" d="M188.5,377 C292.605675,377 377,292.605675 377,188.5 C377,84.3943247 292.605675,0 188.5,0 C84.3943247,0 0,84.3943247 0,188.5 C0,292.605675 84.3943247,377 188.5,377 Z"></path>
    </defs>
    <g id="Page-1" stroke="none" stroke-width="1" fill="none" fill-rule="evenodd" sketch:type="MSPage">
        <g id="cat-landing2" sketch:type="MSLayerGroup">
            <g id="round-bacgkround">
                <mask id="mask-2" sketch:name="Mask" fill="white">
                    <use xlink:href="#path-1"></use>
                </mask>
                <use id="Mask" fill="#091A3E" sketch:type="MSShapeGroup" xlink:href="#path-1"></use>
                <g id="mountains" mask="url(#mask-2)" sketch:type="MSShapeGroup">
                    <g transform="translate(-68.000000, 87.000000)">
                        <path d="M273.674716,90.5988003 C268.712285,87.2906393 263.690994,84.1223261 258.638816,81.1134545 C231.58627,47.0997048 187.822791,25 139.5,25 C115.92241,25 87.4562556,34.0921091 59,48.8451291 L59,67.6906906 L59,86.536252 L59,330 L433,330 L433,231.999997 L273.674716,90.5988003 Z" id="Rectangle-1" stroke="none" fill="#1C6C86" fill-rule="evenodd"></path>
                        <path d="M239,64 C239,64 277.081961,92.6677966 299,112 C336.415294,145.00113 408,214 408,214" id="Path-392" stroke="#1C6C86" stroke-width="4" fill="none"></path>
                        <path d="M39.2139025,167 L38.259928,167 L38.259928,173.431346 C37.67509,180.298473 38.259928,187.334763 38.259928,194.499999 L38.259928,340 L455.259928,340 L455.259928,0 C455.259928,0 455.259928,5.26717178e-06 455.259927,1.57996445e-05 C455.255877,0.0331009922 446.396797,72.4039869 416.259928,106 C395.252385,129.418813 380.259928,135 355.259928,132 C341.047253,130.294479 326.71432,122.026008 313.972873,113.439126 C271.378438,81.1163957 221.354673,58 183.759928,58 C113.443592,58 52.7812667,104.794511 39.2139025,167 Z" id="Rectangle-1" stroke="none" fill="#3FA1B3" fill-rule="evenodd" transform="translate(246.629964, 170.000000) scale(-1, 1) translate(-246.629964, -170.000000) "></path>
                        <path d="M38.2139025,249 L37.259928,249 L37.259928,255.431346 C36.67509,262.298473 37.259928,269.334763 37.259928,276.499999 L37.259928,422 L454.259928,422 L454.259928,82 C454.259928,82 454.259928,82.0000053 454.259927,82.0000158 C454.255877,82.033101 445.396797,154.403987 415.259928,188 C394.252385,211.418813 379.259928,217 354.259928,214 C340.047253,212.294479 325.71432,204.026008 312.972873,195.439126 C270.378438,163.116396 220.354673,140 182.759928,140 C112.443592,140 51.7812667,186.794511 38.2139025,249 Z" id="Rectangle-1" stroke="none" fill="#CEF7F0" fill-rule="evenodd"></path>
                    </g>
                </g>
            </g>
            <g id="cat-body" transform="translate(125.000000, 42.000000)" sketch:type="MSShapeGroup">
                <g id="cat-body-parts">
                    <path d="M2.80052434,0.011324692 L39.6811462,25.4460491 L11.0284525,44.0590523 L2.80052434,0.011324692 L2.80052434,0.011324692 Z" id="Triangle-1" fill="#808FBE"></path>
                    <path d="M120.601062,2.08253282 L83.72044,27.5172572 L112.373134,46.1302604 L120.601062,2.08253282 L120.601062,2.08253282 Z" id="Triangle-1" fill="#808FBE"></path>
                    <ellipse id="Oval-14" fill="#287D98" cx="38.7645276" cy="257.580357" rx="9.83521189" ry="17.0874671"></ellipse>
                    <ellipse id="Oval-14" fill="#1C6C86" cx="93.6346571" cy="257.580357" rx="9.83521189" ry="17.0874671"></ellipse>
                    <path d="M63.1024365,258.613878 C97.8406911,258.613878 126.001611,221.859275 126.001611,176.520175 C126.001611,131.181075 97.8406911,94.4264729 63.1024365,94.4264729 C45.8041825,94.4264729 30.1368705,103.540289 18.7655569,118.289588 C7.3010636,133.159747 0.203262316,153.758124 0.203262316,176.520175 C0.203262316,221.859275 28.3641818,258.613878 63.1024365,258.613878 Z" id="Oval-3" fill="#287D98"></path>
                    <path d="M12.2902319,14.457456 L36.0124292,29.4520343 L17.582565,40.4249912 L12.2902319,14.457456 L12.2902319,14.457456 Z" id="Triangle-1" fill="#494A97"></path>
                    <path d="M89.3592159,14.457456 L113.081413,29.4520343 L94.6515489,40.4249912 L89.3592159,14.457456 L89.3592159,14.457456 Z" id="Triangle-1" fill="#494A97" transform="translate(101.220315, 27.441224) scale(-1, 1) translate(-101.220315, -27.441224) "></path>
                    <path d="M34.8880716,105.872087 C42.8617001,109.0452 51.8934553,110.834895 61.4618025,110.834895 C93.7669416,110.834895 119.955431,90.4340424 119.955431,65.2683158 C119.955431,40.1025892 93.7669416,19.7017369 61.4618025,19.7017369 C29.1566635,19.7017369 2.96817394,40.1025892 2.96817394,65.2683158 C2.96817394,82.980293 15.9407311,98.3319736 34.8880716,105.872087 Z" id="Oval-2" fill="#297C97"></path>
                    <path d="M61.9794453,110.834895 C95.7098109,110.834895 118.912533,90.4340424 118.912533,65.2683158 C118.912533,40.1025892 95.7098109,19.7017369 61.9794453,19.7017369" id="Oval-2" fill="#1B6C86"></path>
                    <path d="M62.5033967,258.613878 C100.833122,258.613878 127.19969,223.049594 127.19969,179.178826 C127.19969,136.198405 102.990632,97.0019125 65.9203348,95.5986711 C65.1524176,95.5696028 63.281289,99.7437749 62.5033967,99.7437749" id="Oval-2" fill="#1B6C86"></path>
                    <path d="M61.9794453,19.7017369 L61.9794453,75.1065544" id="Path-2" stroke="#091A3E"></path>
                    <path d="M71.8146572,62.6793056 L103.908506,56.4656813" id="Line" stroke="#808FBE" stroke-linecap="square"></path>
                    <path d="M71.8146572,63.7149097 L107.532006,62.6793056" id="Line" stroke="#808FBE" stroke-linecap="square"></path>
                    <path d="M71.8146572,64.7505138 L105.461435,68.375128" id="Line" stroke="#808FBE" stroke-linecap="square"></path>
                    <g id="moustache" transform="translate(34.161876, 62.447879) scale(-1, 1) translate(-34.161876, -62.447879) translate(15.661876, 55.947879)" stroke="#808FBE" stroke-linecap="square">
                        <path d="M0.517642731,6.73142642 L32.611492,0.517802033" id="Line"></path>
                        <path d="M0.517642731,7.76703049 L36.2349912,6.73142642" id="Line"></path>
                        <path d="M0.517642731,8.80263455 L34.1644202,12.4272488" id="Line"></path>
                    </g>
                    <path d="M61.9794453,60.0902955 C56.8334939,60.0902955 52.6618761,60.521304 52.6618761,63.3524483 C52.6618761,66.1835925 56.8334939,69.4107321 61.9794453,69.4107321 C67.1253966,69.4107321 71.2970144,66.1835925 71.2970144,63.3524483 C71.2970144,60.521304 67.1253966,60.0902955 61.9794453,60.0902955 L61.9794453,60.0902955 Z" id="Oval-4" stroke="#091A3E" fill="#081839"></path>
                    <path d="M61.9794453,74.5887524 C61.9794453,79.7362874 65.4557934,83.909189 69.7440862,83.909189 L69.7440862,83.909189 C74.032379,83.909189 77.5087272,79.7362874 77.5087272,74.5887524" id="Oval-5" stroke="#091A3E" transform="translate(69.744086, 79.248971) scale(-1, 1) translate(-69.744086, -79.248971) "></path>
                    <path d="M46.4501633,74.5887524 C46.4501633,79.7362874 49.9265115,83.909189 54.2148043,83.909189 L54.2148043,83.909189 C58.5030971,83.909189 61.9794453,79.7362874 61.9794453,74.5887524" id="Oval-5" stroke="#091A3E" transform="translate(54.214804, 79.248971) scale(-1, 1) translate(-54.214804, -79.248971) "></path>
                    <path d="M40.0791759,52.841067 C43.5098101,52.841067 48.2021849,49.8914799 48.2021849,46.4597899 C48.2021849,43.0280999 43.5098101,40.4138182 40.0791759,40.4138182 C36.6485416,40.4138182 31.9561669,43.0280999 31.9561669,46.4597899 C31.9561669,49.8914799 36.6485416,52.841067 40.0791759,52.841067 Z" id="Oval-5" fill="#F3F3F3"></path>
                    <path d="M32.0733051,105.569606 L93.6373963,105.569606" id="Line" stroke="#FFFFFF" stroke-linecap="square"></path>
                    <path d="M40.2384506,52.841067 C43.0973124,52.841067 45.4148779,50.0591326 45.4148779,46.6274426 C45.4148779,43.1957526 43.0973124,40.4138182 40.2384506,40.4138182 C37.3795887,40.4138182 35.0620233,43.1957526 35.0620233,46.6274426 C35.0620233,50.0591326 37.3795887,52.841067 40.2384506,52.841067 Z" id="Oval-7" fill="#000000"></path>
                    <path d="M83.5611653,52.841067 C86.9917995,52.841067 91.6841743,49.8914799 91.6841743,46.4597899 C91.6841743,43.0280999 86.9917995,40.4138182 83.5611653,40.4138182 C80.130531,40.4138182 75.4381563,43.0280999 75.4381563,46.4597899 C75.4381563,49.8914799 80.130531,52.841067 83.5611653,52.841067 Z" id="Oval-5" fill="#F3F3F3"></path>
                    <path d="M83.72044,52.841067 C86.5793018,52.841067 88.8968673,50.0591326 88.8968673,46.6274426 C88.8968673,43.1957526 86.5793018,40.4138182 83.72044,40.4138182 C80.8615781,40.4138182 78.5440127,43.1957526 78.5440127,46.6274426 C78.5440127,50.0591326 80.8615781,52.841067 83.72044,52.841067 Z" id="Oval-7" fill="#000000"></path>
                    <ellipse id="Oval-12" fill="#E4CF83" cx="61.9794453" cy="112.399862" rx="5.17642731" ry="5.17802033"></ellipse>
                    <path d="M64.300516,252.621637 C92.4219602,252.621637 115.218895,226.598305 115.218895,194.496898 C115.218895,162.395492 92.4219602,136.37216 64.300516,136.37216 C50.2971675,136.37216 37.6141054,142.825008 28.4087563,153.267943 C19.127976,163.796449 13.3821369,178.380702 13.3821369,194.496898 C13.3821369,226.598305 36.1790717,252.621637 64.300516,252.621637 Z" id="Oval-3" fill="#FDF1DB"></path>
                    <path d="M62.5033967,252.621637 C93.735025,252.621637 115.218895,226.598305 115.218895,194.496898 C115.218895,162.395492 93.735025,136.37216 62.5033967,136.37216" id="Oval-2" opacity="0.580573694" fill="#E4CF83"></path>
                </g>
                <g id="right-hand" transform="translate(16.480084, 138.404047)">
                    <path d="M1.86868153,0.298418202 L30.1431558,44.6575351 C30.1431558,44.6575351 1.12810182,5.96016938 0.349997117,4.77923341" id="Line" stroke="#287D98" stroke-width="7" stroke-linecap="square"></path>
                    <path d="M28.4988534,48.7110946 C29.9282844,46.2344857 30.0835318,43.6472278 28.8456083,42.9322924 C27.6076848,42.2173569 25.4453668,43.6454755 24.0159359,46.1220844 C22.586505,48.5986933 22.4312575,51.1859512 23.669181,51.9008866 C24.9071045,52.6158221 27.0694225,51.1877035 28.4988534,48.7110946 L28.4988534,48.7110946 Z" id="Oval-16" fill="#287D98"></path>
                    <path d="M34.0528388,44.2775435 C36.684435,43.1601534 38.3649928,41.1873364 37.8064696,39.8711334 C37.2479465,38.5549303 34.6618438,38.3937606 32.0302475,39.5111507 C29.3986513,40.6285407 27.7180936,42.6013578 28.2766167,43.9175608 C28.8351399,45.2337638 31.4212426,45.3949336 34.0528388,44.2775435 L34.0528388,44.2775435 Z" id="Oval-16" fill="#287D98"></path>
                    <path d="M34.8445336,52.0071131 C36.0433553,51.2283496 35.7529556,48.652765 34.1959079,46.2543839 C32.6388601,43.8560027 30.4047865,42.5430431 29.2059649,43.3218066 C28.0071432,44.1005701 28.2975429,46.6761547 29.8545906,49.0745359 C31.4116384,51.472917 33.645712,52.7858766 34.8445336,52.0071131 Z" id="Oval-16" fill="#287D98"></path>
                </g>
                <g id="left-hand" transform="translate(87.762281, 164.190624) scale(-1, 1) translate(-87.762281, -164.190624) translate(68.762281, 137.690624)">
                    <path d="M1.86868153,0.298418202 L30.1431558,44.6575351 C30.1431558,44.6575351 1.12810182,5.96016938 0.349997117,4.77923341" id="Line" stroke="#1C6C86" stroke-width="7" stroke-linecap="square"></path>
                    <path d="M28.8456083,42.9322924 C27.6076848,42.2173569 25.4453668,43.6454755 24.0159359,46.1220844 C22.586505,48.5986933 22.4312575,51.1859512 23.669181,51.9008866 C24.9071045,52.6158221 27.0694225,51.1877035 28.4988534,48.7110946 C29.9282844,46.2344857 30.0835318,43.6472278 28.8456083,42.9322924 Z" id="Oval-16" fill="#1C6C86"></path>
                    <path d="M34.0528388,44.2775435 C36.684435,43.1601534 38.3649928,41.1873364 37.8064696,39.8711334 C37.2479465,38.5549303 34.6618438,38.3937606 32.0302475,39.5111507 C29.3986513,40.6285407 27.7180936,42.6013578 28.2766167,43.9175608 C28.8351399,45.2337638 31.4212426,45.3949336 34.0528388,44.2775435 L34.0528388,44.2775435 Z" id="Oval-16" fill="#1C6C86"></path>
                    <path d="M34.8445336,52.0071131 C36.0433553,51.2283496 35.7529556,48.652765 34.1959079,46.2543839 C32.6388601,43.8560027 30.4047865,42.5430431 29.2059649,43.3218066 C28.0071432,44.1005701 28.2975429,46.6761547 29.8545906,49.0745359 C31.4116384,51.472917 33.645712,52.7858766 34.8445336,52.0071131 Z" id="Oval-16" fill="#1C6C86"></path>
                </g>
            </g>
        </g>
    </g>
</svg>