<svg width="500px" height="500px" viewBox="0 0 185 185" xmlns="http://www.w3.org/2000/svg"><title>cat landing</title><g id="cat-landing" fill="none" fill-rule="evenodd"><g id="Group-+-Group-+-Group-+-Group"><g id="Group"><path d="M92.5 185c51.08634 0 92.5-41.41366 92.5-92.5S143.58634 0 92.5 0 0 41.41366 0 92.5 41.41366 185 92.5 185z" id="Oval-1" fill="#091A3E"/><path d="M92.5 185c51.08634 0 92.5-41.41366 92.5-92.5 0-40.456536-8.647735-21.777315-40 0-8.23769 5.721908-23.370197 39.067295-34 39.067295C59.91366 131.567295 0 41.41366 0 92.5 0 143.58634 41.41366 185 92.5 185z" id="Oval-1" fill="#3FA1B3"/><path d="M92.5 185c51.08634 0 92.5-41.41366 92.5-92.5S172.08634 156 121 156c-29.634726 0-20.071057-38.675893-37-17C71.74569 154.690474 0 71.048386 0 92.5 0 143.58634 41.41366 185 92.5 185z" id="Oval-1" fill="#B1E2DF"/></g><g id="Group-+-Group-+-Group"><g id="Group" transform="translate(59 19)"><path d="M1.493127.00606L21.15639 13.61852 5.879926 23.58005 1.493127.00606zM64.29963 1.114555l-19.663263 13.61246 15.276462 9.961528 4.3868-23.573988z" id="Triangle-1" fill="#808FBE"/><ellipse id="Oval-14" fill="#287D98" cx="20.667685" cy="137.854926" rx="5.243739" ry="9.145074"/><ellipse id="Oval-14" fill="#1C6C86" cx="49.922228" cy="137.854926" rx="5.243739" ry="9.145074"/><path d="M33.643678 138.408058c18.521038 0 33.535306-19.670767 33.535306-43.935887S52.164716 50.536286 33.643678 50.536286c-9.222733 0-17.575913 4.87764-23.63864 12.771347C3.892634 71.266022.108372 82.290105.108372 94.472172c0 24.26512 15.01427 43.935886 33.535308 43.935886z" id="Oval-3" fill="#287D98"/><path d="M6.552657 7.737514l12.64772 8.024977-9.826062 5.87264L6.552657 7.737513zM60.290455 7.737514l-12.64772 8.024977 9.82606 5.87264 2.82166-13.897616z" id="Triangle-1" fill="#494A97"/><path d="M18.600915 56.661885c4.251217 1.698225 9.066585 2.656055 14.168043 2.656055 17.2238 0 31.186446-10.91837 31.186446-24.386865 0-13.468493-13.962648-24.386865-31.186446-24.386865-17.2238 0-31.186447 10.918372-31.186447 24.386865 0 9.479307 6.916446 17.695403 17.018405 21.73081z" id="Oval-2" fill="#297C97"/><path d="M33.044944 59.31794c17.983672 0 30.35443-10.91837 30.35443-24.386865 0-13.468493-12.370758-24.386865-30.35443-24.386865" id="Oval-2" fill="#1B6C86"/><path d="M33.324294 138.408058c20.435865 0 34.493457-19.033718 34.493457-42.512998 0-23.002774-12.907293-43.98042-32.671683-44.731424-.409422-.015557-1.407032 2.218426-1.821773 2.218426" id="Oval-2" fill="#1B6C86"/><path d="M33.044944 10.54421v29.65221" id="Path-2" stroke="#091A3E"/><g id="Line-+-Line-+-Line" stroke="#808FBE" stroke-linecap="square"><path d="M38.288682 33.545458l17.111148-3.325482M38.288682 34.099705l19.043052-.554247M38.288682 34.653952l17.939107 1.939864" id="Line"/><g id="Line"><path d="M27.801205 33.545458l-17.111148-3.325482M27.801205 34.099705l-19.043052-.554247M27.801205 34.653952L9.862098 36.593816"/></g></g><path d="M33.044944 32.15984c-2.743614 0-4.967753.230673-4.967753 1.745878 0 1.515206 2.22414 3.242345 4.967754 3.242345 2.743614 0 4.967752-1.72714 4.967752-3.242345s-2.224138-1.745877-4.967752-1.745877z" id="Oval-4" stroke="#091A3E" fill="#081839"/><path d="M41.324532 39.919297c0 2.75492-1.85345 4.988223-4.139794 4.988223-2.286345 0-4.139793-2.233303-4.139793-4.988222M33.044944 39.919297c0 2.75492-1.85345 4.988223-4.139794 4.988223-2.286345 0-4.139794-2.233303-4.139794-4.988222" id="Oval-5" stroke="#091A3E"/><path d="M21.368602 28.280112c1.829076 0 4.330862-1.578595 4.330862-3.415208 0-1.836613-2.501786-3.235755-4.330862-3.235755-1.829076 0-4.33086 1.39914-4.33086 3.235754 0 1.836613 2.501784 3.415208 4.33086 3.415208z" id="Oval-5" fill="#F3F3F3"/><path d="M17.100194 56.5h32.823494" id="Line" stroke="#FFF" stroke-linecap="square"/><path d="M21.45352 28.280112c1.52423 0 2.759864-1.48887 2.759864-3.32548 0-1.836614-1.235633-3.325483-2.759863-3.325483-1.52423 0-2.75986 1.488868-2.75986 3.32548 0 1.836613 1.23563 3.325482 2.75986 3.325482z" id="Oval-7" fill="#000"/><g id="Oval-5-+-Oval-7"><path d="M44.551447 28.280112c1.829076 0 4.33086-1.578595 4.33086-3.415208 0-1.836613-2.501784-3.235755-4.33086-3.235755-1.829076 0-4.33086 1.39914-4.33086 3.235754 0 1.836613 2.501784 3.415208 4.33086 3.415208z" id="Oval-5" fill="#F3F3F3"/><path d="M44.636366 28.280112c1.52423 0 2.759863-1.48887 2.759863-3.32548 0-1.836614-1.235634-3.325483-2.759864-3.325483s-2.759862 1.488868-2.759862 3.32548c0 1.836613 1.235632 3.325482 2.759862 3.325482z" id="Oval-7" fill="#000"/></g><ellipse id="Oval-12" fill="#E4CF83" cx="33.044944" cy="60.155498" rx="2.759863" ry="2.771235"/><path d="M34.282445 135.20106c14.993222 0 27.14763-13.927478 27.14763-31.107892 0-17.180413-12.154408-31.10789-27.14763-31.10789-7.46602 0-14.22812 3.453512-19.13604 9.042486-4.94814 5.634772-8.01159 13.440146-8.01159 22.065404 0 17.180414 12.15441 31.10789 27.14763 31.10789z" id="Oval-3" fill="#FDF1DB"/><path d="M33.324294 135.20106c16.651446 0 28.10578-13.927478 28.10578-31.107892 0-17.180413-11.454334-31.10789-28.10578-31.10789" id="Oval-2" opacity=".580574" fill="#E4CF83"/></g><g id="Group"><path d="M68.782823 93.232438l15.07481 23.74064S68.387976 96.262562 67.973122 95.630535" id="Line" stroke="#287D98" stroke-width="5" stroke-linecap="square"/><path d="M82.980958 119.14251c.762115-1.32546.844886-2.71014.184875-3.092767-.66001-.382628-1.81287.38169-2.574986 1.70715-.762115 1.325462-.844887 2.71014-.184876 3.09277.660012.382627 1.812873-.38169 2.574988-1.707152z" id="Oval-16" fill="#287D98"/><path d="M85.94212 116.76971c1.40306-.598018 2.299066-1.653853 2.001284-2.358275-.297782-.70442-1.676588-.790678-3.07965-.19266-1.40306.59802-2.299066 1.653854-2.001284 2.358276.297782.704422 1.676588.79068 3.07965.19266z" id="Oval-16" fill="#287D98"/><path d="M86.36422 120.906514c.639162-.416788.484333-1.79522-.345822-3.078814-.830155-1.283595-2.021274-1.98628-2.660437-1.569492-.639162.416788-.484333 1.79522.345822 3.078814s2.021273 1.98628 2.660437 1.569492z" id="Oval-16" fill="#287D98"/></g><g id="Group"><path d="M114.925043 92.85062l-15.07481 23.74064s15.469658-20.710517 15.884512-21.342544" id="Line" stroke="#1C6C86" stroke-width="5" stroke-linecap="square"/><path d="M100.542032 115.667925c.66001-.382628 1.812872.38169 2.574987 1.70715.762114 1.325462.844886 2.710142.184875 3.09277-.66001.382627-1.812872-.38169-2.574987-1.707152-.762115-1.32546-.844886-2.71014-.184875-3.092768z" id="Oval-16" fill="#1C6C86"/><path d="M97.765747 116.387893c-1.40306-.59802-2.299067-1.653854-2.001285-2.358276.297782-.70442 1.676588-.790678 3.07965-.19266 1.40306.59802 2.299066 1.653854 2.001284 2.358276-.297782.70442-1.676588.790678-3.07965.19266z" id="Oval-16" fill="#1C6C86"/><path d="M97.343647 120.524696c-.639163-.416788-.484334-1.79522.34582-3.078814.830156-1.283595 2.021275-1.98628 2.660438-1.569492.639163.416788.484334 1.79522-.34582 3.078814-.830156 1.283594-2.021274 1.98628-2.660438 1.569492z" id="Oval-16" fill="#1C6C86"/></g></g></g></g></svg>
