<?xml version="1.0" encoding="UTF-8" standalone="no"?>
<svg width="3000px" height="3000px" viewBox="0 0 281 281" version="1.1" xmlns="http://www.w3.org/2000/svg" xmlns:xlink="http://www.w3.org/1999/xlink" xmlns:sketch="http://www.bohemiancoding.com/sketch/ns">
    <title>cat landing</title>
    <defs>
        <path id="path-1" d="M140.5,281 C218.096007,281 281,218.096007 281,140.5 C281,62.9039927 218.096007,0 140.5,0 C62.9039927,0 0,62.9039927 0,140.5 C0,218.096007 62.9039927,281 140.5,281 Z"></path>
    </defs>
    <g id="app" stroke="none" stroke-width="1" fill="none" fill-rule="evenodd" sketch:type="MSPage">
        <g id="cat-landing2-+-ic_chevron_right-+-ic_chevron_right" sketch:type="MSLayerGroup" transform="translate(-51.000000, 0.000000)">
            <g id="cat-landing2">
                <g id="round-bacgkround" transform="translate(51.000000, 0.000000)">
                    <mask id="mask-2" sketch:name="Mask" fill="white">
                        <use xlink:href="#path-1"></use>
                    </mask>
                    <use id="Mask" fill="#091A3E" sketch:type="MSShapeGroup" xlink:href="#path-1"></use>
                    <g id="mountains" mask="url(#mask-2)" sketch:type="MSShapeGroup">
                        <g transform="translate(-50.684350, 64.846154)">
                            <path d="M203.985663,67.5285488 C200.286875,65.0627842 196.544216,62.7012564 192.778534,60.4585695 C172.6147,35.1061461 139.995237,18.6339523 103.977454,18.6339523 C86.4037064,18.6339523 65.1862277,25.4108294 43.9761273,36.4071122 L43.9761273,23.1061008 L8.52651283e-14,23.1061008 L8.52651283e-14,291.435013 L43.9761273,291.435013 L43.9761273,245.96817 L322.740053,245.96817 L322.740053,172.923075 L203.985663,67.5285488 Z M43.9761273,50.4538038 L43.9761273,64.5004955 C28.3223123,78.4586791 17.0844469,96.6289642 12.6367821,117.02122 L11.9257294,117.02122 L11.9257294,121.814876 C11.4898157,126.933345 11.9257294,132.177901 11.9257294,137.518568 L11.9257294,245.96817 L43.9761273,245.96817 Z" id="Rectangle-1" stroke="none" fill="#1C6C86" fill-rule="evenodd"></path>
                            <path d="M178.140584,47.7029178 C178.140584,47.7029178 206.525281,69.0706919 222.862069,83.4801061 C250.749861,108.077765 304.106101,159.506631 304.106101,159.506631" id="Path-392" stroke="#1C6C86" stroke-width="4" fill="none"></path>
                            <path d="M29.2283995,124.474801 L28.5173469,124.474801 L28.5173469,129.268457 C28.0814331,134.386926 28.5173469,139.631481 28.5173469,144.972148 L28.5173469,253.421751 L339.33167,253.421751 L339.33167,0 C339.33167,8.27513713e-17 332.730601,53.9611711 310.262705,79.0079576 C294.604563,96.463359 283.429814,100.623342 264.795861,98.3872679 C254.202329,97.116044 243.519162,90.9530721 234.022221,84.5527702 C202.274114,60.4607617 164.988496,43.2307692 136.966949,43.2307692 C84.5560991,43.2307692 39.3409442,78.1094367 29.2283995,124.474801 Z" id="Rectangle-1" stroke="none" fill="#3FA1B3" fill-rule="evenodd" transform="translate(183.827639, 126.710875) scale(-1, 1) translate(-183.827639, -126.710875) "></path>
                            <path d="M28.4830414,185.594164 L27.7719888,185.594164 L27.7719888,190.38782 C27.336075,195.506289 27.7719888,200.750845 27.7719888,206.091512 L27.7719888,314.541114 L338.586312,314.541114 L338.586312,61.1193634 C338.586312,61.1193634 331.985243,115.080535 309.517347,140.127321 C293.859205,157.582722 282.684456,161.742706 264.050503,159.506631 C253.456971,158.235407 242.773804,152.072435 233.276863,145.672134 C201.528756,121.580125 164.243138,104.350133 136.221591,104.350133 C83.810741,104.350133 38.5955861,139.2288 28.4830414,185.594164 Z" id="Rectangle-1" stroke="none" fill="#CEF7F0" fill-rule="evenodd"></path>
                        </g>
                    </g>
                </g>
                <g id="cat-body" transform="translate(144.169761, 31.305040)" sketch:type="MSShapeGroup">
                    <g id="cat-body-parts" transform="translate(0.000000, 0.000000)">
                        <path d="M2.08739347,0.00844095081 L29.5766633,18.9664186 L8.22014627,32.839771 L2.08739347,0.00844095081 L2.08739347,0.00844095081 Z" id="Triangle-1" fill="#808FBE"></path>
                        <path d="M89.8909771,1.55223269 L62.4017072,20.5102103 L83.7582243,34.3835628 L89.8909771,1.55223269 L89.8909771,1.55223269 Z" id="Triangle-1" fill="#808FBE"></path>
                        <path d="M47.0339115,192.759946 C72.9263507,192.759946 93.9163198,165.364606 93.9163198,131.570741 C93.9163198,97.7768758 72.9263507,70.3815355 47.0339115,70.3815355 C34.140518,70.3815355 22.4627603,77.1745924 13.9870597,88.1681016 C5.44190682,99.2516948 0.151503212,114.604862 0.151503212,131.570741 C0.151503212,165.364606 21.1414724,192.759946 47.0339115,192.759946 Z" id="Oval-3" fill="#287D98"></path>
                        <path d="M9.16062379,10.7759818 L26.8421554,21.9523121 L13.1053071,30.1310942 L9.16062379,10.7759818 L9.16062379,10.7759818 Z" id="Triangle-1" fill="#494A97"></path>
                        <path d="M66.6046145,10.7759818 L84.2861461,21.9523121 L70.5492978,30.1310942 L66.6046145,10.7759818 L66.6046145,10.7759818 Z" id="Triangle-1" fill="#494A97" transform="translate(75.445380, 20.453538) scale(-1, 1) translate(-75.445380, -20.453538) "></path>
                        <path d="M26.0041064,78.9126163 C31.947315,81.277722 38.6792068,82.6116854 45.8110518,82.6116854 C69.8899485,82.6116854 89.409751,67.4057451 89.409751,48.6482672 C89.409751,29.8907893 69.8899485,14.684849 45.8110518,14.684849 C21.732155,14.684849 2.21235246,29.8907893 2.21235246,48.6482672 C2.21235246,61.8500327 11.8815529,73.292532 26.0041064,78.9126163 Z" id="Oval-2" fill="#297C97"></path>
                        <path d="M46.196881,82.6116854 C71.7986174,82.6116854 89.409751,67.4057451 89.409751,48.6482672 C89.409751,29.8907893 71.7986174,14.684849 46.196881,14.684849" id="Oval-2" fill="#1B6C86"></path>
                        <path d="M46.5874124,192.759946 C75.1567835,192.759946 94.8093181,166.251819 94.8093181,133.552388 C94.8093181,101.516583 76.7649009,72.3011603 49.1342548,71.2552429 C48.5618815,71.2335766 47.1672207,74.3448296 46.5874124,74.3448296" id="Oval-2" fill="#1B6C86"></path>
                        <path d="M46.196881,14.684849 L46.196881,55.981278" id="Path-2" stroke="#091A3E"></path>
                        <path d="M53.5276357,46.7185275 L77.4490459,42.0871523" id="Line" stroke="#808FBE" stroke-linecap="square"></path>
                        <path d="M53.5276357,47.4904234 L80.1498503,46.7185275" id="Line" stroke="#808FBE" stroke-linecap="square"></path>
                        <path d="M53.5276357,48.2623193 L78.6065335,50.9639548" id="Line" stroke="#808FBE" stroke-linecap="square"></path>
                        <g id="moustache" transform="translate(25.462831, 46.546032) scale(-1, 1) translate(-25.462831, -46.546032) translate(11.673706, 41.701204)" stroke="#808FBE" stroke-linecap="square">
                            <path d="M0.385829197,5.01732314 L24.3072394,0.385947934" id="Line"></path>
                            <path d="M0.385829197,5.78921901 L27.0080438,5.01732314" id="Line"></path>
                            <path d="M0.385829197,6.56111488 L25.464727,9.26275042" id="Line"></path>
                        </g>
                        <g id="legs2" transform="translate(13.830239, 172.694960)">
                            <g id="Rectangle-160-+-Path-867-+-Path-868" transform="translate(52.283393, 18.870976) rotate(-11.000000) translate(-52.283393, -18.870976) translate(40.783393, 2.870976)">
                                <path d="M3.65922169,12.3688068 C3.65922169,8.8301487 2.31233592,2.09440871 2.31233592,2.09440871 C2.10917527,1.01201295 2.84752824,0.134557823 3.94263047,0.134557823 L17.6653166,0.134557823 C18.768864,0.134557823 19.5517737,1.02050462 19.4182297,2.11675303 C19.4182297,2.11675303 18.5203069,8.94910255 18.5203069,12.3688068 C18.5203069,15.4263162 20.7281616,19.8727576 20.7281616,19.8727576 C22.9812222,25.4519713 19.9178435,30.2139809 13.9115947,30.5077477 L13.5094857,30.527415 C13.5094857,30.527415 9.45825694,30.8493153 7.66028265,30.527415 C6.75056341,30.3645434 7.66028265,30.527415 7.66028265,30.527415 C1.97813239,29.3066505 -0.56943643,23.8923239 1.81528236,18.3466641 C1.81528236,18.3466641 3.65922169,15.3073623 3.65922169,12.3688068 Z" id="Rectangle-160" fill="#1C6C86"></path>
                                <path d="M18.9009364,28.7385027 C18.9009364,28.7385027 18.8988309,26.7699233 18.7065471,25.9333827 C18.5177775,25.1121311 17.7577761,23.7651261 17.7577761,23.7651261" id="Path-867" stroke="#0F163A"></path>
                                <path d="M10.4498515,31.0408646 C10.4498515,31.0408646 11.3968103,28.8633932 11.5930119,27.7252801 C11.7778638,26.6530036 11.5930119,24.4096958 11.5930119,24.4096958" id="Path-868" stroke="#0F163A"></path>
                            </g>
                            <g id="Rectangle-160-+-Path-867-+-Path-868" transform="translate(14.816200, 18.398785) scale(-1, 1) rotate(-12.000000) translate(-14.816200, -18.398785) translate(3.316200, 2.898785)">
                                <g transform="translate(0.000000, 0.000000)">
                                    <path d="M3.77636562,12.234249 C3.77636562,8.69559088 2.4612726,1.95985089 2.4612726,1.95985089 C2.26290749,0.87745513 2.99583237,0 4.10361619,0 L17.4013201,0 C18.5067265,0 19.2937796,0.885946794 19.1633879,1.98219521 C19.1633879,1.98219521 18.2866602,8.81454473 18.2866602,12.234249 C18.2866602,15.2917584 20.3607553,19.5135438 20.3607553,19.5135438 C22.605724,25.2168315 19.4584876,30.089077 13.3941176,30.3928571 L13.3941176,30.3928571 C13.3941176,30.3928571 9.4385167,30.7147575 7.68298296,30.3928571 C6.79473732,30.2299856 7.68298296,30.3928571 7.68298296,30.3928571 C2.13495783,29.1720927 -0.309881792,23.6611107 2.06223976,17.9914363 C2.06223976,17.9914363 3.77636562,15.1728045 3.77636562,12.234249 Z" id="Rectangle-160" fill="#287D98"></path>
                                    <path d="M17.9608188,29.418191 C17.9608188,29.418191 17.9587133,27.4496116 17.7664294,26.613071 C17.5776598,25.7918194 16.8176584,24.4448143 16.8176584,24.4448143" id="Path-867" stroke="#0F163A"></path>
                                    <path d="M10.5559056,30.715521 C10.5559056,30.715521 11.0884996,28.4175406 11.1017568,27.2629167 C11.1142472,26.1750846 10.6331483,23.9881528 10.6331483,23.9881528" id="Path-868" stroke="#0F163A"></path>
                                </g>
                            </g>
                        </g>
                        <path d="M46.196881,44.7887879 C42.3613045,44.7887879 39.2519554,45.1100436 39.2519554,47.2202599 C39.2519554,49.3304761 42.3613045,51.7358507 46.196881,51.7358507 C50.0324574,51.7358507 53.1418065,49.3304761 53.1418065,47.2202599 C53.1418065,45.1100436 50.0324574,44.7887879 46.196881,44.7887879 L46.196881,44.7887879 Z" id="Oval-4" stroke="#091A3E" fill="#081839"></path>
                        <path d="M46.196881,55.59533 C46.196881,59.4320869 48.7880052,62.5423928 51.9843189,62.5423928 L51.9843189,62.5423928 C55.1806326,62.5423928 57.7717569,59.4320869 57.7717569,55.59533" id="Oval-5" stroke="#091A3E" transform="translate(51.984319, 59.068861) scale(-1, 1) translate(-51.984319, -59.068861) "></path>
                        <path d="M34.622005,55.59533 C34.622005,59.4320869 37.2131293,62.5423928 40.409443,62.5423928 L40.409443,62.5423928 C43.6057567,62.5423928 46.196881,59.4320869 46.196881,55.59533" id="Oval-5" stroke="#091A3E" transform="translate(40.409443, 59.068861) scale(-1, 1) translate(-40.409443, -59.068861) "></path>
                        <path d="M29.873338,39.3855168 C32.430389,39.3855168 35.9278885,37.1870182 35.9278885,34.6291803 C35.9278885,32.0713424 32.430389,30.1227664 29.873338,30.1227664 C27.316287,30.1227664 23.8187875,32.0713424 23.8187875,34.6291803 C23.8187875,37.1870182 27.316287,39.3855168 29.873338,39.3855168 Z" id="Oval-5" fill="#F3F3F3"></path>
                        <path d="M23.9060974,78.6871598 L69.7933909,78.6871598" id="Line" stroke="#FFFFFF" stroke-linecap="square"></path>
                        <path d="M29.9920547,39.3855168 C32.1229305,39.3855168 33.8503466,37.3119795 33.8503466,34.7541416 C33.8503466,32.1963037 32.1229305,30.1227664 29.9920547,30.1227664 C27.8611788,30.1227664 26.1337627,32.1963037 26.1337627,34.7541416 C26.1337627,37.3119795 27.8611788,39.3855168 29.9920547,39.3855168 Z" id="Oval-7" fill="#000000"></path>
                        <path d="M62.2829906,39.3855168 C64.8400415,39.3855168 68.337541,37.1870182 68.337541,34.6291803 C68.337541,32.0713424 64.8400415,30.1227664 62.2829906,30.1227664 C59.7259396,30.1227664 56.2284401,32.0713424 56.2284401,34.6291803 C56.2284401,37.1870182 59.7259396,39.3855168 62.2829906,39.3855168 Z" id="Oval-5" fill="#F3F3F3"></path>
                        <path d="M62.4017072,39.3855168 C64.5325831,39.3855168 66.2599992,37.3119795 66.2599992,34.7541416 C66.2599992,32.1963037 64.5325831,30.1227664 62.4017072,30.1227664 C60.2708314,30.1227664 58.5434153,32.1963037 58.5434153,34.7541416 C58.5434153,37.3119795 60.2708314,39.3855168 62.4017072,39.3855168 Z" id="Oval-7" fill="#000000"></path>
                        <ellipse id="Oval-12" fill="#E4CF83" cx="46.196881" cy="83.7781463" rx="3.85829197" ry="3.85947934"></ellipse>
                        <path d="M47.9269098,188.293581 C68.8874558,188.293581 85.8793356,168.89688 85.8793356,144.969837 C85.8793356,121.042794 68.8874558,101.646093 47.9269098,101.646093 C37.4894007,101.646093 28.0359778,106.455776 21.1746964,114.239501 C14.2571917,122.087009 9.974484,132.957499 9.974484,144.969837 C9.974484,168.89688 26.9663638,188.293581 47.9269098,188.293581 Z" id="Oval-3" fill="#FDF1DB"></path>
                        <path d="M46.5874124,188.293581 C69.8661592,188.293581 85.8793356,168.89688 85.8793356,144.969837 C85.8793356,121.042794 69.8661592,101.646093 46.5874124,101.646093" id="Oval-2" opacity="0.580573694" fill="#E4CF83"></path>
                    </g>
                    <g id="right-hand" transform="translate(12.283564, 103.160576)">
                        <path d="M1.3928369,0.222428421 L22.4674451,33.285855 C22.4674451,33.285855 0.840839816,4.44246047 0.260873182,3.56224029" id="Line" stroke="#287D98" stroke-width="7" stroke-linecap="square"></path>
                        <path d="M21.241851,36.3072084 C22.3072889,34.4612479 22.4230038,32.5328143 21.5003075,31.9999314 C20.5776112,31.4670485 18.96591,32.5315083 17.9004721,34.3774688 C16.8350342,36.2234293 16.7193193,38.1518629 17.6420155,38.6847457 C18.5647118,39.2176286 20.1764131,38.1531689 21.241851,36.3072084 L21.241851,36.3072084 Z" id="Oval-16" fill="#287D98"></path>
                        <path d="M25.3815589,33.0026253 C27.3430404,32.1697695 28.5956578,30.6993144 28.179358,29.7182718 C27.7630583,28.7372292 25.8354857,28.6171001 23.8740041,29.4499558 C21.9125226,30.2828115 20.6599053,31.7532667 21.076205,32.7343092 C21.4925048,33.7153518 23.4200774,33.835481 25.3815589,33.0026253 L25.3815589,33.0026253 Z" id="Oval-16" fill="#287D98"></path>
                        <path d="M25.971655,38.7639225 C26.8652064,38.1834649 26.6487547,36.263732 25.4881966,34.4760792 C24.3276384,32.6884264 22.6624536,31.7098014 21.7689022,32.290259 C20.8753508,32.8707167 21.0918025,34.7904495 22.2523606,36.5781023 C23.4129188,38.3657551 25.0781036,39.3443802 25.971655,38.7639225 Z" id="Oval-16" fill="#287D98"></path>
                    </g>
                    <g id="left-hand" transform="translate(65.414326, 122.380810) scale(-1, 1) translate(-65.414326, -122.380810) translate(51.252523, 102.628820)">
                        <path d="M1.3928369,0.222428421 L22.4674451,33.285855 C22.4674451,33.285855 0.840839816,4.44246047 0.260873182,3.56224029" id="Line" stroke="#1C6C86" stroke-width="7" stroke-linecap="square"></path>
                        <path d="M21.5003075,31.9999314 C20.5776112,31.4670485 18.96591,32.5315083 17.9004721,34.3774688 C16.8350342,36.2234293 16.7193193,38.1518629 17.6420155,38.6847457 C18.5647118,39.2176286 20.1764131,38.1531689 21.241851,36.3072084 C22.3072889,34.4612479 22.4230038,32.5328143 21.5003075,31.9999314 Z" id="Oval-16" fill="#1C6C86"></path>
                        <path d="M25.3815589,33.0026253 C27.3430404,32.1697695 28.5956578,30.6993144 28.179358,29.7182718 C27.7630583,28.7372292 25.8354857,28.6171001 23.8740041,29.4499558 C21.9125226,30.2828115 20.6599053,31.7532667 21.076205,32.7343092 C21.4925048,33.7153518 23.4200774,33.835481 25.3815589,33.0026253 L25.3815589,33.0026253 Z" id="Oval-16" fill="#1C6C86"></path>
                        <path d="M25.971655,38.7639225 C26.8652064,38.1834649 26.6487547,36.263732 25.4881966,34.4760792 C24.3276384,32.6884264 22.6624536,31.7098014 21.7689022,32.290259 C20.8753508,32.8707167 21.0918025,34.7904495 22.2523606,36.5781023 C23.4129188,38.3657551 25.0781036,39.3443802 25.971655,38.7639225 Z" id="Oval-16" fill="#1C6C86"></path>
                    </g>
                </g>
            </g>
        </g>
    </g>
</svg>
