<svg viewBox="0 0 374 387" xmlns="http://www.w3.org/2000/svg"><title>mountain middle</title><g id="mountain-middle" fill="none" fill-rule="evenodd"><path d="M395.046025 143H396v6.431346c.584838 6.867127 0 13.903417 0 21.068653V316H-21V-24v.000016C-20.99595-23.9669-12.13687 48.403986 18 82c21.007543 23.418813 36 29 61 26 14.212675-1.70552 28.545608-9.973992 41.287055-18.560874C162.88149 57.116396 212.905255 34 250.5 34c70.316336 0 130.97866 46.79451 144.546026 109z" id="Rectangle-1" fill="#3FA1B3"/><path d="M394.046025 313H395v6.431346c.584838 6.867127 0 13.903417 0 21.068653V486H-22V146v.000016c.00405.033085 8.86313 72.40397 39 105.999984 21.007543 23.418813 36 29 61 26 14.212675-1.70552 28.545608-9.973992 41.287055-18.560874C161.88149 227.116396 211.905255 204 249.5 204c70.316336 0 130.97866 46.79451 144.546026 109z" id="Rectangle-1" fill="#3FA1B3"/></g></svg>