<?xml version="1.0" encoding="UTF-8" standalone="no"?>
<svg width="155px" height="174px" viewBox="0 0 155 174" version="1.1" xmlns="http://www.w3.org/2000/svg" xmlns:xlink="http://www.w3.org/1999/xlink" xmlns:sketch="http://www.bohemiancoding.com/sketch/ns">
    <!-- Generator: Sketch 3.4.4 (17248) - http://www.bohemiancoding.com/sketch -->
    <title>Group</title>
    <desc>Created with Sketch.</desc>
    <defs></defs>
    <g id="Page-1" stroke="none" stroke-width="1" fill="none" fill-rule="evenodd" sketch:type="MSPage">
        <g id="Group" sketch:type="MSLayerGroup" transform="translate(-103.000000, -138.000000)">
            <path d="M180.222435,309.226014 C222.116344,309.226014 256.078068,264.707655 256.078068,209.791476 C256.078068,154.875297 222.116344,110.356938 180.222435,110.356938 C159.360952,110.356938 140.466366,121.395886 126.752701,139.260712 C112.926662,157.271928 104.366801,182.221346 104.366801,209.791476 C104.366801,264.707655 138.328525,309.226014 180.222435,309.226014 Z" id="Oval-3" fill="#287D98" sketch:type="MSShapeGroup"></path>
            <path d="M141.690629,147.400176 C152.818816,151.847907 165.423751,154.35651 178.777565,154.35651 C223.863392,154.35651 260.412676,125.760775 260.412676,90.4861493 C260.412676,55.2115234 223.863392,26.6157892 178.777565,26.6157892 C133.691739,26.6157892 97.1424547,55.2115234 97.1424547,90.4861493 C97.1424547,115.312906 115.247267,136.831251 141.690629,147.400176 Z" id="Oval-2" fill="#297C97" sketch:type="MSShapeGroup"></path>
            <path d="M179.5,155.35651 C226.574907,155.35651 258.957182,126.760775 258.957182,91.4861493 C258.957182,56.2115234 226.574907,27.6157892 179.5,27.6157892" id="Oval-2" fill="#1B6C86" sketch:type="MSShapeGroup"></path>
            <path d="M179.5,309.226014 C225.72518,309.226014 257.522938,266.149407 257.522938,213.011719 C257.522938,159.874032 225.72518,116.797425 179.5,116.797425" id="Oval-2" fill="#1B6C86" sketch:type="MSShapeGroup"></path>
            <path d="M126.762274,139.388919 L233.682596,139.388919" id="Line" stroke="#FFFFFF" stroke-width="2" stroke-linecap="square" sketch:type="MSShapeGroup"></path>
            <ellipse id="Oval-12" fill="#E4CF83" sketch:type="MSShapeGroup" cx="179.5" cy="149.550113" rx="7.22434608" ry="7.25799547"></ellipse>
            <path d="M181.667304,301.968018 C215.581421,301.968018 243.074245,270.44772 243.074245,231.565462 C243.074245,192.683204 215.581421,161.162906 181.667304,161.162906 C164.779437,161.162906 149.48382,168.978804 138.382281,181.627622 C127.189774,194.380089 120.260362,212.045005 120.260362,231.565462 C120.260362,270.44772 147.753186,301.968018 181.667304,301.968018 Z" id="Oval-3" fill="#FDF1DB" sketch:type="MSShapeGroup"></path>
            <path d="M179.5,301.968018 C217.164961,301.968018 243.074245,270.44772 243.074245,231.565462 C243.074245,192.683204 217.164961,161.162906 179.5,161.162906" id="Oval-2" opacity="0.580573694" fill="#E4CF83" sketch:type="MSShapeGroup"></path>
        </g>
    </g>
</svg>