<?xml version="1.0" encoding="UTF-8" standalone="no"?>
<svg width="154px" height="170px" viewBox="0 0 154 170" version="1.1" xmlns="http://www.w3.org/2000/svg" xmlns:xlink="http://www.w3.org/1999/xlink" xmlns:sketch="http://www.bohemiancoding.com/sketch/ns">
    <!-- Generator: Sketch 3.4.4 (17248) - http://www.bohemiancoding.com/sketch -->
    <title>Group</title>
    <desc>Created with Sketch.</desc>
    <defs></defs>
    <g id="Page-1" stroke="none" stroke-width="1" fill="none" fill-rule="evenodd" sketch:type="MSPage">
        <g id="Group" sketch:type="MSLayerGroup" transform="translate(-8.000000, -140.000000)">
            <path d="M84.2224346,309.226014 C126.116344,309.226014 160.078068,264.707655 160.078068,209.791476 C160.078068,154.875297 126.116344,110.356938 84.2224346,110.356938 C63.3609521,110.356938 44.4663657,121.395886 30.7527008,139.260712 C16.9266622,157.271928 8.3668008,182.221346 8.3668008,209.791476 C8.3668008,264.707655 42.3285249,309.226014 84.2224346,309.226014 Z" id="Oval-3" fill="#287D98" sketch:type="MSShapeGroup"></path>
            <path d="M45.6906293,148.400176 C56.8188165,152.847907 69.4237506,155.35651 82.7775654,155.35651 C127.863392,155.35651 164.412676,126.760775 164.412676,91.4861493 C164.412676,56.2115234 127.863392,27.6157892 82.7775654,27.6157892 C37.6917387,27.6157892 1.14245473,56.2115234 1.14245473,91.4861493 C1.14245473,116.312906 19.2472666,137.831251 45.6906293,148.400176 Z" id="Oval-2" fill="#297C97" sketch:type="MSShapeGroup"></path>
            <path d="M83.5,155.35651 C130.574907,155.35651 162.957182,126.760775 162.957182,91.4861493 C162.957182,56.2115234 130.574907,27.6157892 83.5,27.6157892" id="Oval-2" fill="#1B6C86" sketch:type="MSShapeGroup"></path>
            <path d="M83.5,309.226014 C129.72518,309.226014 161.522938,266.149407 161.522938,213.011719 C161.522938,161.75138 133.587713,117.685906 90,115 C88.4036526,114.901632 85.13313,120 83.5,120" id="Oval-2" fill="#1C6C86" sketch:type="MSShapeGroup"></path>
            <path d="M85.6673038,301.968018 C119.581421,301.968018 147.074245,270.44772 147.074245,231.565462 C147.074245,192.683204 119.581421,161.162906 85.6673038,161.162906 C68.779437,161.162906 53.4838195,168.978804 42.3822812,181.627622 C31.1897738,194.380089 24.2603622,212.045005 24.2603622,231.565462 C24.2603622,270.44772 51.7531864,301.968018 85.6673038,301.968018 Z" id="Oval-3" fill="#FDF1DB" sketch:type="MSShapeGroup"></path>
            <path d="M83.5,301.968018 C121.164961,301.968018 147.074245,270.44772 147.074245,231.565462 C147.074245,192.683204 121.164961,161.162906 83.5,161.162906" id="Oval-2" opacity="0.580573694" fill="#E4CF83" sketch:type="MSShapeGroup"></path>
        </g>
    </g>
</svg>