<?xml version="1.0" encoding="UTF-8" standalone="no"?>
<svg width="154px" height="201px" viewBox="0 0 154 201" version="1.1" xmlns="http://www.w3.org/2000/svg" xmlns:xlink="http://www.w3.org/1999/xlink">
    <!-- Generator: Sketch 3.8.3 (29802) - http://www.bohemiancoding.com/sketch -->
    <title>Group</title>
    <desc>Created with Sketch.</desc>
    <defs></defs>
    <g id="Page-1" stroke="none" stroke-width="1" fill="none" fill-rule="evenodd">
        <g id="belliSVG">
            <g id="Page-1">
                <g id="Group">
                    <path d="M76.2224346,199.226014 C118.116344,199.226014 152.078068,154.707655 152.078068,99.791476 C152.078068,44.875297 118.116344,0.356938 76.2224346,0.356938 C55.3609521,0.356938 36.4663657,11.395886 22.7527008,29.260712 C8.9266622,47.271928 0.3668008,72.221346 0.3668008,99.791476 C0.3668008,154.707655 34.3285249,199.226014 76.2224346,199.226014 L76.2224346,199.226014 Z" id="Oval-3" fill="#287D98"></path>
                    <path d="M75.5,199.226014 C121.72518,199.226014 153.522938,156.149407 153.522938,103.011719 C153.522938,78.1373 146.944919,54.957085 135.192372,37.377199 C131.557099,31.939426 125.583909,24.250521 121,20 C117.374745,16.638411 113.644871,12.692215 110,11 C107.492049,9.835626 107.33645,9.34260992 104.295355,7.2356177 C99.0837841,3.62483317 90.2743564,1.39295014 83.1147685,0.951771142 C81.5184211,0.853403142 77.13313,0.951771141 75.5,0.951771141" id="Oval-2" fill="#1C6C86"></path>
                    <path d="M77.6673038,191.968018 C111.581421,191.968018 139.074245,160.44772 139.074245,121.565462 C139.074245,82.683204 111.581421,51.162906 77.6673038,51.162906 C60.779437,51.162906 45.4838195,58.978804 34.3822812,71.627622 C23.1897738,84.380089 16.2603622,102.045005 16.2603622,121.565462 C16.2603622,160.44772 43.7531864,191.968018 77.6673038,191.968018 L77.6673038,191.968018 Z" id="Oval-3" fill="#FDF1DB"></path>
                    <path d="M75.5,191.968018 C113.164961,191.968018 139.074245,160.44772 139.074245,121.565462 C139.074245,82.683204 113.164961,51.162906 75.5,51.162906" id="Oval-2" fill="#E4CF83" opacity="0.580573694"></path>
                </g>
            </g>
        </g>
    </g>
</svg>