<?xml version="1.0" encoding="UTF-8" standalone="no"?>
<svg width="169px" height="170px" viewBox="0 0 169 170" version="1.1" xmlns="http://www.w3.org/2000/svg" xmlns:xlink="http://www.w3.org/1999/xlink">
    <!-- Generator: Sketch 3.8.3 (29802) - http://www.bohemiancoding.com/sketch -->
    <title>Slice 1</title>
    <desc>Created with Sketch.</desc>
    <defs></defs>
    <g id="Page-1" stroke="none" stroke-width="1" fill="none" fill-rule="evenodd">
        <g id="Group">
            <g>
                <polygon id="Triangle-1" fill="#808FBE" points="3.90847892 0.0158737429 55.3799591 35.667552 15.3915727 61.7572705 3.90847892 0.0158737429"></polygon>
                <polygon id="Triangle-1" fill="#808FBE" points="168.313734 2.91907193 116.842254 38.5707502 156.83064 64.6604687 168.313734 2.91907193"></polygon>
                <polygon id="Triangle-1" fill="#494A97" points="17.1525424 20.2649167 50.2598097 41.2827139 24.5386493 56.6634321 17.1525424 20.2649167"></polygon>
                <polygon id="Triangle-1" fill="#494A97" transform="translate(141.265498, 38.464174) scale(-1, 1) translate(-141.265498, -38.464174) " points="124.711864 20.2649167 157.819132 41.2827139 132.097971 56.6634321 124.711864 20.2649167"></polygon>
                <path d="M81.6351107,155.740721 C126.720937,155.740721 163.270221,127.144986 163.270221,91.8703601 C163.270221,56.5957342 126.720937,28 81.6351107,28 C36.549284,28 0,56.5957342 0,91.8703601 C0,116.697117 18.1048119,138.215462 44.5481746,148.784387 C55.6763618,153.232118 68.2812959,155.740721 81.6351107,155.740721 Z" id="Oval-2" fill="#297C97"></path>
                <path d="M86,155.740721 C133.074907,155.740721 165.457182,127.144986 165.457182,91.8703601 C165.457182,56.5957342 133.074907,28 86,28" id="Oval-2" fill="#1B6C86"></path>
                <path d="M87,28 L87,105.660552" id="Path-2" stroke="#091A3E"></path>
                <g id="Line-+-Line-+-Line" transform="translate(21.925755, 78.421757)" stroke="#808FBE">
                    <path d="M78.300503,9.43539412 L123.091449,0.725799547" id="Line"></path>
                    <path d="M78.300503,10.8869932 L128.148491,9.43539412" id="Line"></path>
                    <path d="M78.300503,12.3385923 L125.258753,17.4191891" id="Line"></path>
                    <g id="Line" transform="translate(26.070422, 9.000000) scale(-1, 1) translate(-26.070422, -9.000000) translate(0.570422, 0.000000)">
                        <path d="M0.722434608,9.43539412 L45.5133803,0.725799547" id="Shape"></path>
                        <path d="M0.722434608,10.8869932 L50.5704225,9.43539412" id="Shape"></path>
                        <path d="M0.722434608,12.3385923 L47.6806841,17.4191891" id="Shape"></path>
                    </g>
                </g>
                <path d="M86.5,84.2281539 C79.3181869,84.2281539 73.4961771,84.8322956 73.4961771,88.800691 C73.4961771,92.7690864 79.3181869,97.2925457 86.5,97.2925457 C93.6818131,97.2925457 99.5038229,92.7690864 99.5038229,88.800691 C99.5038229,84.8322956 93.6818131,84.2281539 86.5,84.2281539 L86.5,84.2281539 L86.5,84.2281539 Z" id="Oval-4" stroke="#091A3E" fill="#081839"></path>
                <path d="M86.5,104.550541 C86.5,111.765806 91.3516749,117.614933 97.3365191,117.614933 L97.3365191,117.614933 C103.321363,117.614933 108.173038,111.765806 108.173038,104.550541" id="Oval-5" stroke="#091A3E" transform="translate(97.336519, 111.082737) scale(-1, 1) translate(-97.336519, -111.082737) "></path>
                <path d="M64.826962,104.550541 C64.826962,111.765806 69.6786368,117.614933 75.6634811,117.614933 L75.6634811,117.614933 C81.6483253,117.614933 86.5000002,111.765806 86.5000002,104.550541" id="Oval-5" stroke="#091A3E" transform="translate(75.663481, 111.082737) scale(-1, 1) translate(-75.663481, -111.082737) "></path>
                <path d="M100.000001,63 C100.000001,67.3127721 106.145456,70.8089647 113.726259,70.8089647 C121.307061,70.8089647 127.452516,67.3127721 127.452516,63" id="Oval-5" stroke="#091A3E" transform="translate(113.726259, 66.904482) scale(-1, 1) translate(-113.726259, -66.904482) "></path>
                <path d="M46.0000009,62.7572705 C46.0000009,67.0700426 52.1454557,70.5662352 59.7262584,70.5662352 C67.3070612,70.5662352 73.452516,67.0700426 73.452516,62.7572705" id="Oval-5" stroke="#091A3E" transform="translate(59.726258, 66.661753) scale(-1, 1) translate(-59.726258, -66.661753) "></path>
            </g>
        </g>
        <path d="M44.8972051,146.395942 C47.6654807,143.862437 51.3167038,141.841719 51.3167038,141.841719 L44.8633742,153.721719 L40.7728397,151.491384 C40.7728397,151.491384 42.1289296,148.929447 44.8972051,146.395942 Z" id="Triangle-1" fill="#FFFFFF" transform="translate(46.044772, 147.781719) rotate(-118.000000) translate(-46.044772, -147.781719) "></path>
        <path d="M121.127627,146.32392 C123.894888,143.790415 127.544773,141.769697 127.544773,141.769697 L121.093809,153.649697 L117.004773,151.419362 C117.004773,151.419362 118.360366,148.857425 121.127627,146.32392 Z" id="Triangle-1-Copy" fill="#FFFFFF" transform="translate(122.274773, 147.709697) scale(-1, 1) rotate(-118.000000) translate(-122.274773, -147.709697) "></path>
        <g id="colar" transform="translate(47.000000, 146.000000)">
            <g id="Page-1">
                <g id="Line-+-Oval-12">
                    <path d="M1.03063265,2.25 L73.1749208,2.25" id="Line" stroke="#FFFFFF" stroke-width="4.5"></path>
                    <ellipse id="Oval-12" fill="#E4CF83" cx="37.5078427" cy="11.372061" rx="6.66408311" ry="6.76832354"></ellipse>
                </g>
            </g>
        </g>
    </g>
</svg>