<?xml version="1.0" encoding="UTF-8" standalone="no"?>
<svg width="172px" height="140px" viewBox="0 0 172 140" version="1.1" xmlns="http://www.w3.org/2000/svg" xmlns:xlink="http://www.w3.org/1999/xlink" xmlns:sketch="http://www.bohemiancoding.com/sketch/ns">
    <!-- Generator: Sketch 3.4.4 (17248) - http://www.bohemiancoding.com/sketch -->
    <title>Group</title>
    <desc>Created with Sketch.</desc>
    <defs></defs>
    <g id="Page-1" stroke="none" stroke-width="1" fill="none" fill-rule="evenodd" sketch:type="MSPage">
        <g id="Group" sketch:type="MSLayerGroup" transform="translate(-36.000000, 2.000000)">
            <path d="M38.9084789,0.0158737429 L90.3799591,35.667552 L50.3915727,61.7572705 L38.9084789,0.0158737429 L38.9084789,0.0158737429 Z" id="Triangle-1" fill="#808FBE" sketch:type="MSShapeGroup"></path>
            <path d="M203.313734,2.91907193 L151.842254,38.5707502 L191.83064,64.6604687 L203.313734,2.91907193 L203.313734,2.91907193 Z" id="Triangle-1" fill="#808FBE" sketch:type="MSShapeGroup"></path>
            <path d="M122.222435,309.226014 C164.116344,309.226014 198.078068,264.707655 198.078068,209.791476 C198.078068,154.875297 164.116344,110.356938 122.222435,110.356938 C101.360952,110.356938 82.4663657,121.395886 68.7527008,139.260712 C54.9266622,157.271928 46.3668008,182.221346 46.3668008,209.791476 C46.3668008,264.707655 80.3285249,309.226014 122.222435,309.226014 Z" id="Oval-3" fill="#287D98" sketch:type="MSShapeGroup"></path>
            <path d="M52.1525424,20.2649167 L85.2598097,41.2827139 L59.5386493,56.6634321 L52.1525424,20.2649167 L52.1525424,20.2649167 Z" id="Triangle-1" fill="#494A97" sketch:type="MSShapeGroup"></path>
            <path d="M159.711864,20.2649167 L192.819132,41.2827139 L167.097971,56.6634321 L159.711864,20.2649167 L159.711864,20.2649167 Z" id="Triangle-1" fill="#494A97" sketch:type="MSShapeGroup" transform="translate(176.265498, 38.464174) scale(-1, 1) translate(-176.265498, -38.464174) "></path>
            <path d="M83.6906293,148.400176 C94.8188165,152.847907 107.423751,155.35651 120.777565,155.35651 C165.863392,155.35651 202.412676,126.760775 202.412676,91.4861493 C202.412676,56.2115234 165.863392,27.6157892 120.777565,27.6157892 C75.6917387,27.6157892 39.1424547,56.2115234 39.1424547,91.4861493 C39.1424547,116.312906 57.2472666,137.831251 83.6906293,148.400176 Z" id="Oval-2" fill="#297C97" sketch:type="MSShapeGroup"></path>
            <path d="M121.5,155.35651 C168.574907,155.35651 200.957182,126.760775 200.957182,91.4861493 C200.957182,56.2115234 168.574907,27.6157892 121.5,27.6157892" id="Oval-2" fill="#1B6C86" sketch:type="MSShapeGroup"></path>
            <path d="M121.5,309.226014 C167.72518,309.226014 199.522938,266.149407 199.522938,213.011719 C199.522938,159.874032 167.72518,116.797425 121.5,116.797425" id="Oval-2" fill="#1B6C86" sketch:type="MSShapeGroup"></path>
            <path d="M121.5,27.6157892 L121.5,105.276341" id="Path-2" stroke="#091A3E" sketch:type="MSShapeGroup"></path>
            <g id="Line-+-Line-+-Line" transform="translate(57.925755, 78.421757)" stroke="#808FBE" stroke-linecap="square" sketch:type="MSShapeGroup">
                <path d="M77.300503,9.43539412 L122.091449,0.725799547" id="Line"></path>
                <path d="M77.300503,10.8869932 L127.148491,9.43539412" id="Line"></path>
                <path d="M77.300503,12.3385923 L124.258753,17.4191891" id="Line"></path>
                <g transform="translate(25.285211, 8.709595) scale(-1, 1) translate(-25.285211, -8.709595) " id="Line">
                    <path d="M0.722434608,9.43539412 L45.5133803,0.725799547"></path>
                    <path d="M0.722434608,10.8869932 L50.5704225,9.43539412"></path>
                    <path d="M0.722434608,12.3385923 L47.6806841,17.4191891"></path>
                </g>
            </g>
            <path d="M121.5,84.2281539 C114.318187,84.2281539 108.496177,84.8322956 108.496177,88.800691 C108.496177,92.7690864 114.318187,97.2925457 121.5,97.2925457 C128.681813,97.2925457 134.503823,92.7690864 134.503823,88.800691 C134.503823,84.8322956 128.681813,84.2281539 121.5,84.2281539 L121.5,84.2281539 Z" id="Oval-4" stroke="#091A3E" fill="#081839" sketch:type="MSShapeGroup"></path>
            <path d="M121.5,104.550541 C121.5,111.765806 126.351675,117.614933 132.336519,117.614933 L132.336519,117.614933 C138.321363,117.614933 143.173038,111.765806 143.173038,104.550541" id="Oval-5" stroke="#091A3E" sketch:type="MSShapeGroup" transform="translate(132.336519, 111.082737) scale(-1, 1) translate(-132.336519, -111.082737) "></path>
            <path d="M99.8269618,104.550541 C99.8269618,111.765806 104.678637,117.614933 110.663481,117.614933 L110.663481,117.614933 C116.648325,117.614933 121.5,111.765806 121.5,104.550541" id="Oval-5" stroke="#091A3E" sketch:type="MSShapeGroup" transform="translate(110.663481, 111.082737) scale(-1, 1) translate(-110.663481, -111.082737) "></path>
            <path d="M90.9354589,74.0669602 C95.7233343,74.0669602 102.272125,69.9325442 102.272125,65.1223679 C102.272125,60.3121917 95.7233343,56.6477711 90.9354589,56.6477711 C86.1475835,56.6477711 79.5987928,60.3121917 79.5987928,65.1223679 C79.5987928,69.9325442 86.1475835,74.0669602 90.9354589,74.0669602 Z" id="Oval-5" fill="#F3F3F3" sketch:type="MSShapeGroup"></path>
            <path d="M68.7622736,139.388919 L175.682596,139.388919" id="Line" stroke="#FFFFFF" stroke-width="2" stroke-linecap="square" sketch:type="MSShapeGroup"></path>
            <path d="M91.1577465,74.0669602 C95.1476426,74.0669602 98.3820926,70.1675419 98.3820926,65.3573656 C98.3820926,60.5471894 95.1476426,56.6477711 91.1577465,56.6477711 C87.1678503,56.6477711 83.9334004,60.5471894 83.9334004,65.3573656 C83.9334004,70.1675419 87.1678503,74.0669602 91.1577465,74.0669602 Z" id="Oval-7" fill="#000000" sketch:type="MSShapeGroup"></path>
            <g id="Oval-5-+-Oval-7" transform="translate(140.283300, 56.647771)" sketch:type="MSShapeGroup">
                <path d="M11.3366662,17.4191891 C16.1245415,17.4191891 22.6733323,13.2847731 22.6733323,8.47459688 C22.6733323,3.66442063 16.1245415,0 11.3366662,0 C6.54879075,0 0,3.66442063 0,8.47459688 C0,13.2847731 6.54879075,17.4191891 11.3366662,17.4191891 Z" id="Oval-5" fill="#F3F3F3"></path>
                <path d="M11.5589537,17.4191891 C15.5488499,17.4191891 18.7832998,13.5197708 18.7832998,8.70959457 C18.7832998,3.89941831 15.5488499,0 11.5589537,0 C7.56905756,0 4.33460765,3.89941831 4.33460765,8.70959457 C4.33460765,13.5197708 7.56905756,17.4191891 11.5589537,17.4191891 Z" id="Oval-7" fill="#000000"></path>
            </g>
            <g transform="translate(37.256951, 152.769270) rotate(-199.000000) translate(-37.256951, -152.769270) translate(10.756951, 115.769270)" stroke-linecap="square" id="Line" stroke="#287D98" stroke-width="5" sketch:type="MSShapeGroup">
                <g transform="translate(0.000000, 0.000000)">
                    <path d="M2.60797675,0.418290741 L42.0685111,62.5961597 C42.0685111,62.5961597 1.57440595,8.35432842 0.488464369,6.6990186"></path>
                </g>
            </g>
            <g transform="translate(208.042467, 152.878327) scale(-1, 1) rotate(-192.000000) translate(-208.042467, -152.878327) translate(181.042467, 115.378327)" stroke-linecap="square" id="Line" stroke="#1C6C86" stroke-width="5" sketch:type="MSShapeGroup">
                <g transform="translate(0.043705, 0.584177)">
                    <path d="M2.60797675,0.418290741 L42.0685111,62.5961597 C42.0685111,62.5961597 1.57440595,8.35432842 0.488464369,6.6990186"></path>
                </g>
            </g>
        </g>
    </g>
</svg>