<?xml version="1.0" encoding="UTF-8" standalone="no"?>
<svg width="66px" height="58px" viewBox="0 0 66 58" version="1.1" xmlns="http://www.w3.org/2000/svg" xmlns:xlink="http://www.w3.org/1999/xlink" xmlns:sketch="http://www.bohemiancoding.com/sketch/ns">
    <!-- Generator: Sketch 3.4.4 (17248) - http://www.bohemiancoding.com/sketch -->
    <title>Group</title>
    <desc>Created with Sketch.</desc>
    <defs></defs>
    <g id="Page-1" stroke="none" stroke-width="1" fill="none" fill-rule="evenodd" sketch:type="MSPage">
        <g id="Group" sketch:type="MSLayerGroup" transform="translate(-305.000000, -80.000000)">
            <g transform="translate(340.048351, 114.935882) scale(-1, 1) rotate(-192.000000) translate(-340.048351, -114.935882) translate(313.548351, 77.935882)" sketch:type="MSShapeGroup">
                <g transform="translate(0.000000, -0.000000)">
                    <path d="M2.60797675,0.418290741 L42.0685111,62.5961597 C42.0685111,62.5961597 1.57440595,8.35432842 0.488464369,6.6990186" id="Line" stroke="#1C6C86" stroke-width="5" stroke-linecap="square"></path>
                    <path d="M39.7736832,68.2780062 C41.7686313,64.8065605 41.9852984,61.1800189 40.2576226,60.1778989 C38.5299469,59.1757788 35.5121641,61.1775628 33.517216,64.6490085 C31.5222679,68.1204542 31.3056008,71.7469958 33.0332766,72.7491158 C34.7609523,73.7512359 37.7787351,71.7494519 39.7736832,68.2780062 L39.7736832,68.2780062 Z" id="Oval-16" fill="#287D98"></path>
                    <path d="M47.5249584,62.0635282 C51.1976772,60.4972902 53.5431039,57.7320061 52.7636156,55.8870934 C51.9841273,54.0421806 48.3749003,53.8162701 44.7021815,55.3825081 C41.0294627,56.9487461 38.684036,59.7140302 39.4635243,61.5589429 C40.2430127,63.4038556 43.8522396,63.6297662 47.5249584,62.0635282 L47.5249584,62.0635282 Z" id="Oval-16" fill="#287D98"></path>
                    <path d="M48.6298666,72.8980127 C50.3029709,71.8064253 49.8976822,68.1962461 47.724629,64.8344517 C45.5515758,61.4726573 42.4336491,59.632291 40.7605449,60.7238784 C39.0874406,61.8154657 39.4927294,65.425645 41.6657825,68.7874394 C43.8388357,72.1492337 46.9567624,73.9896001 48.6298666,72.8980127 Z" id="Oval-16" fill="#287D98"></path>
                </g>
            </g>
        </g>
    </g>
</svg>