<?xml version="1.0" encoding="UTF-8" standalone="no"?>
<svg width="9px" height="9px" viewBox="0 0 9 9" version="1.1" xmlns="http://www.w3.org/2000/svg" xmlns:xlink="http://www.w3.org/1999/xlink" xmlns:sketch="http://www.bohemiancoding.com/sketch/ns">
    <!-- Generator: Sketch 3.4.4 (17248) - http://www.bohemiancoding.com/sketch -->
    <title>Rectangle 25</title>
    <desc>Created with Sketch.</desc>
    <defs>
        <linearGradient x1="50%" y1="-4.30092768%" x2="50%" y2="63.2498751%" id="linearGradient-1">
            <stop stop-color="#494A97" offset="0%"></stop>
            <stop stop-color="#091A3E" offset="100%"></stop>
        </linearGradient>
    </defs>
    <g id="Page-1" stroke="none" stroke-width="1" fill="none" fill-rule="evenodd" sketch:type="MSPage">
        <g id="Mobile-Portrait" sketch:type="MSArtboardGroup" transform="translate(-39.000000, -173.000000)">
            <rect id="Rectangle-21" fill="url(#linearGradient-1)" sketch:type="MSShapeGroup" x="0" y="-32" width="320" height="1024"></rect>
            <path d="M41.3658622,177.939861 C41.3658622,176.799953 40.3188348,174.333374 40.3188348,174.333374 C40.3188348,174.333374 42.5543292,175.562905 43.5342865,175.562905 C44.5948185,175.562905 46.3064288,174.547959 46.3064288,174.547959 C46.3064288,174.547959 45.4839737,176.397867 45.4839737,177.394108 C45.4839737,178.438356 46.7490327,180.735861 46.7490327,180.735861 C46.7490327,180.735861 44.2523322,179.713098 43.2674266,179.713098 C42.2118429,179.713098 40.3188348,180.51129 40.3188348,180.51129 C40.3188348,180.51129 41.3658622,178.840442 41.3658622,177.939861 Z" id="Rectangle-25" fill="#F2F3F6" sketch:type="MSShapeGroup" transform="translate(43.533934, 177.534618) rotate(-47.000000) translate(-43.533934, -177.534618) "></path>
        </g>
    </g>
</svg>