<?xml version="1.0" encoding="UTF-8" standalone="no"?>
<svg width="281px" height="281px" viewBox="0 0 281 281" version="1.1" xmlns="http://www.w3.org/2000/svg" xmlns:xlink="http://www.w3.org/1999/xlink" xmlns:sketch="http://www.bohemiancoding.com/sketch/ns">
    <!-- Generator: Sketch 3.4.4 (17248) - http://www.bohemiancoding.com/sketch -->
    <title>cat-landing2 + ic_chevron_right + ic_chevron_right + coming soon!</title>
    <desc>Created with Sketch.</desc>
    <defs>
        <path id="path-1" d="M140.5,281 C218.096007,281 281,218.096007 281,140.5 C281,62.9039927 218.096007,0 140.5,0 C62.9039927,0 0,62.9039927 0,140.5 C0,218.096007 62.9039927,281 140.5,281 Z"></path>
    </defs>
    <g id="app" stroke="none" stroke-width="1" fill="none" fill-rule="evenodd" sketch:type="MSPage">
        <g id="cat-landing2-+-ic_chevron_right-+-ic_chevron_right-+-coming-soon!" sketch:type="MSLayerGroup">
            <g id="cat-landing2-+-ic_chevron_right-+-ic_chevron_right">
                <g id="cat-landing2">
                    <g id="round-bacgkround">
                        <mask id="mask-2" sketch:name="Mask" fill="white">
                            <use xlink:href="#path-1"></use>
                        </mask>
                        <use id="Mask" fill="#FFBF90" sketch:type="MSShapeGroup" xlink:href="#path-1"></use>
                        <g id="mountains" mask="url(#mask-2)" sketch:type="MSShapeGroup">
                            <g transform="translate(-23.684350, 64.846154)">
                                <path d="M176.985663,67.5285488 C173.286875,65.0627842 169.544216,62.7012564 165.778534,60.4585695 C145.6147,35.1061461 112.995237,18.6339523 76.9774536,18.6339523 C59.4037064,18.6339523 38.1862277,25.4108294 16.9761273,36.4071122 L16.9761273,50.4538038 L16.9761273,64.5004955 L16.9761273,245.96817 L295.740053,245.96817 L295.740053,172.923075 L176.985663,67.5285488 Z" id="Rectangle-1" stroke="none" fill="#FF9C9C" fill-rule="evenodd"></path>
                                <path d="M151.140584,47.7029178 C151.140584,47.7029178 179.525281,69.0706919 195.862069,83.4801061 C223.749861,108.077765 277.106101,159.506631 277.106101,159.506631" id="Path-392" stroke="#FF9C9C" stroke-width="4" fill="none"></path>
                                <path d="M2.22839951,124.474801 L1.51734689,124.474801 L1.51734689,129.268457 C1.0814331,134.386926 1.51734689,139.631482 1.51734689,144.972149 L1.51734689,253.421751 L312.33167,253.421751 L312.33167,0 C312.33167,8.27513713e-17 305.730601,53.9611711 283.262705,79.0079576 C267.604563,96.463359 256.429814,100.623342 237.795861,98.3872679 C227.202329,97.116044 216.519162,90.9530721 207.022221,84.5527702 C175.274114,60.4607617 137.988496,43.2307692 109.966949,43.2307692 C57.5560991,43.2307692 12.3409442,78.1094367 2.22839951,124.474801 Z" id="Rectangle-1" stroke="none" fill="#FFE99C" fill-rule="evenodd" transform="translate(156.827639, 126.710875) scale(-1, 1) translate(-156.827639, -126.710875) "></path>
                                <path d="M1.48304142,185.594164 L0.771988798,185.594164 L0.771988798,190.38782 C0.336075011,195.506289 0.771988798,200.750845 0.771988798,206.091512 L0.771988798,314.541114 L311.586312,314.541114 L311.586312,61.1193634 C311.586312,61.1193634 304.985243,115.080535 282.517347,140.127321 C266.859205,157.582722 255.684456,161.742706 237.050503,159.506631 C226.456971,158.235407 215.773804,152.072435 206.276863,145.672134 C174.528756,121.580125 137.243138,104.350133 109.221591,104.350133 C56.810741,104.350133 11.5955861,139.2288 1.48304142,185.594164 Z" id="Rectangle-1" stroke="none" fill="#F7F3D7" fill-rule="evenodd"></path>
                            </g>
                        </g>
                    </g>
                </g>
            </g>
            <path d="M44.8690233,148.294922 C45.5955895,148.294922 45.9588671,148.558591 45.9588671,149.085938 C45.9588671,150.035161 45.290905,150.509766 43.9549608,150.509766 C43.4041768,150.509766 42.8387528,150.430665 42.2586718,150.272461 C41.6785907,150.114257 41.2420717,149.941407 40.9491014,149.753906 C39.3553435,148.722651 38.5584764,145.90432 38.5584764,141.298828 L38.5408983,139.189453 C38.5408983,132.287075 39.3846399,128.21485 41.0721483,126.972656 C41.9393402,126.339841 43.1463593,126.023438 44.6932421,126.023438 C44.9510559,126.023438 45.1883582,126.117187 45.4051561,126.304688 C45.6219541,126.492188 45.7303514,126.708983 45.7303514,126.955078 L45.7303514,127.095703 C45.5076941,127.646487 44.9276218,127.921875 43.9901171,127.921875 L43.3397264,127.886719 C42.941287,127.886719 42.5867983,128.103513 42.2762499,128.537109 C41.9657015,128.970705 41.7283991,129.492184 41.5643358,130.101562 C41.4002725,130.710941 41.2655082,131.390621 41.1600389,132.140625 C40.9959756,133.324225 40.9139452,134.431635 40.9139452,135.462891 L40.9139452,135.638672 L40.6854296,142.582031 C40.6854296,144.046882 40.7645303,145.060544 40.9227343,145.623047 C41.0809382,146.18555 41.244999,146.639647 41.4149218,146.985352 C41.5848445,147.331056 41.7869909,147.615233 42.0213671,147.837891 C42.5604323,148.353518 43.2518316,148.611328 44.0955858,148.611328 C44.3768372,148.611328 44.6346472,148.50586 44.8690233,148.294922 L44.8690233,148.294922 Z M56.9916015,131.841797 L57.0443358,133.951172 L57.0267577,137.396484 C57.0267577,137.689455 57.032617,138.035154 57.0443358,138.433594 C57.0560547,138.832033 57.0707029,139.356442 57.0882812,140.006836 C57.1058594,140.65723 57.1410153,141.301755 57.1937499,141.94043 C57.2464845,142.579105 57.3080074,143.252926 57.3783202,143.961914 C57.4486331,144.670902 57.5423821,145.327145 57.6595702,145.930664 C57.7767583,146.534183 57.9056633,147.082029 58.046289,147.574219 C58.3626968,148.64063 58.7787083,149.173828 59.2943358,149.173828 C59.9857455,149.173828 60.513084,148.523444 60.8763671,147.222656 C61.4154323,145.289053 61.6849608,142.91017 61.6849608,140.085938 L61.7376952,136.376953 C61.7376952,133.775378 61.6234385,132.023442 61.3949218,131.121094 C61.166405,130.218745 60.95254,129.539065 60.7533202,129.082031 C60.3548807,128.156245 59.7513711,127.693359 58.9427733,127.693359 L58.8724608,127.693359 C57.6185483,127.693359 56.9916015,129.076158 56.9916015,131.841797 L56.9916015,131.841797 Z M63.671289,140.314453 C63.671289,147.216831 62.2591937,150.667969 59.4349608,150.667969 C56.8333853,150.667969 55.3744155,147.39847 55.0580077,140.859375 C55.0345701,140.238278 55.0228515,139.617191 55.0228515,138.996094 L55.0052733,136.798828 L55.0052733,136.095703 C55.0052733,131.021459 55.7494065,127.886725 57.2376952,126.691406 C57.6009783,126.398436 58.0052711,126.240234 58.4505858,126.216797 C58.7904313,126.333985 59.2064428,126.442382 59.6986327,126.541992 C60.1908227,126.641602 60.5541003,126.74414 60.7884765,126.849609 C61.2220724,127.048829 61.6908177,127.567379 62.1947265,128.405273 C62.6986352,129.243168 63.0707018,130.362298 63.3109374,131.762695 C63.551173,133.163093 63.671289,134.566399 63.671289,135.972656 L63.671289,140.314453 Z M75.5301952,148.435547 L75.5829296,149.507812 C75.5829296,149.894533 75.5038288,150.190429 75.3456249,150.395508 C75.187421,150.600587 74.9325407,150.703125 74.5809765,150.703125 C74.2294122,150.703125 73.9423057,150.618165 73.7196484,150.448242 C73.496991,150.278319 73.3915233,150.032228 73.4032421,149.709961 C73.4149609,149.387694 73.5526549,146.381864 73.816328,140.692383 C74.0800012,135.002901 74.2118359,130.716811 74.2118359,127.833984 C74.2469923,127.224606 74.3407413,126.817384 74.4930859,126.612305 C74.6454304,126.407226 74.8622251,126.292969 75.1434765,126.269531 C75.4247279,126.246094 75.612226,126.257812 75.7059765,126.304688 C75.799727,126.351563 75.884687,126.430664 75.9608593,126.541992 C76.0370316,126.653321 76.101484,126.755859 76.1542187,126.849609 C76.2069533,126.94336 76.2567575,127.086913 76.3036327,127.280273 C76.350508,127.473634 76.3856639,127.620117 76.4091015,127.719727 C76.4325391,127.819336 76.4618357,127.977538 76.4969921,128.194336 C76.5321485,128.411134 76.5673044,128.622069 76.6024609,128.827148 C76.6376173,129.032228 76.8133968,129.864251 77.1298046,131.323242 C77.4462124,132.782234 77.7948418,134.663074 78.175703,136.96582 C78.5565643,139.268566 78.9989427,142.189435 79.5028515,145.728516 C80.2411364,141.779277 80.8798019,138.035174 81.4188671,134.496094 C81.9579323,130.957014 82.2421092,129.076173 82.2714062,128.853516 C82.3007032,128.630858 82.3241405,128.466797 82.3417187,128.361328 C82.3592969,128.255859 82.3915231,128.097657 82.4383984,127.886719 C82.4852736,127.67578 82.5292185,127.511719 82.5702343,127.394531 C82.6112501,127.277343 82.672773,127.139649 82.7548046,126.981445 C82.8368363,126.823241 82.924726,126.703125 83.0184765,126.621094 C83.2411338,126.410155 83.5048031,126.304688 83.8094921,126.304688 C84.1141811,126.304688 84.407147,126.392577 84.6883984,126.568359 C84.9696498,126.744142 85.1102734,126.984373 85.1102734,127.289062 C85.1102734,132.796903 85.1600776,136.611318 85.2596874,138.732422 C85.3592973,140.853526 85.4091015,142.130857 85.4091015,142.564453 L85.3739452,148.365234 C85.4794145,148.623048 85.5321484,148.895506 85.5321484,149.182617 C85.5321484,149.469728 85.4383993,149.777342 85.2508984,150.105469 C85.0633974,150.433595 84.8173061,150.597656 84.5126171,150.597656 C83.7626134,150.597656 83.3876171,149.847664 83.3876171,148.347656 L83.4403515,145.025391 C83.4403515,142.693348 83.4169142,140.607431 83.370039,138.767578 C83.4051954,137.677729 83.4227734,134.830101 83.4227734,130.224609 C83.0594903,132.474621 82.5555891,135.492169 81.9110546,139.277344 C81.2665201,143.062519 80.9237501,145.069335 80.8827343,145.297852 C80.8417185,145.526368 80.8094922,145.746093 80.7860546,145.957031 C80.762617,146.16797 80.7391797,146.349609 80.7157421,146.501953 C80.6923045,146.654298 80.6483596,146.830077 80.5839062,147.029297 C80.5194527,147.228517 80.4462113,147.392577 80.3641796,147.521484 C80.1649599,147.837892 79.8837127,147.996094 79.5204296,147.996094 C78.8173011,147.996094 78.3954303,147.480474 78.2548046,146.449219 C78.0673037,144.984368 77.6835184,142.409198 77.1034374,138.723633 C76.5233564,135.038068 76.0926966,132.556647 75.8114452,131.279297 C75.6239443,139.494182 75.5301952,145.212875 75.5301952,148.435547 L75.5301952,148.435547 Z M100.080508,149.595703 L98.7269921,149.613281 L97.162539,149.683594 C96.4945669,149.683594 96.0492589,149.466799 95.8266015,149.033203 C95.8266015,148.681639 95.8705464,148.409181 95.9584374,148.21582 C96.0463285,148.02246 96.230897,147.925781 96.5121484,147.925781 L97.5316796,147.925781 L97.6019921,147.451172 L97.3558984,139.804688 L97.5492578,131.789062 C97.5492578,130.4414 97.4906646,129.164069 97.3734765,127.957031 L95.9760156,127.957031 C95.5482791,127.957031 95.2348056,127.889649 95.0355859,127.754883 C94.8363661,127.620117 94.7367578,127.365236 94.7367578,126.990234 C94.7367578,126.427732 95.3871419,126.152344 96.6879296,126.164062 L96.8109765,126.164062 C99.8930232,126.164062 101.434023,126.574215 101.434023,127.394531 C101.434023,127.523438 101.363712,127.746092 101.223086,128.0625 L99.3773828,128.0625 C99.4711332,128.941411 99.5180078,129.97265 99.5180078,131.15625 L99.3246484,138.029297 L99.5883203,145.675781 L99.5883203,146.748047 C99.5883203,146.958985 99.547305,147.281248 99.4652734,147.714844 L100.99457,147.714844 C101.97895,147.714844 102.471133,148.013669 102.471133,148.611328 C102.471133,148.880861 102.386173,149.109374 102.21625,149.296875 C102.046327,149.484376 101.855899,149.578125 101.644961,149.578125 L100.080508,149.595703 Z M113.679648,135.796875 L113.890586,145.113281 L113.890586,149.191406 C113.890586,149.507814 113.808555,149.774413 113.644492,149.991211 C113.480429,150.208009 113.251915,150.316406 112.958945,150.316406 C112.173785,150.316406 111.781211,149.583992 111.781211,148.119141 L111.710898,135.427734 L111.921836,128.712891 C111.921836,127.095695 112.361285,126.287109 113.240195,126.287109 C113.767542,126.287109 114.148397,126.691402 114.382773,127.5 C114.7109,129.046883 115.282183,131.270493 116.096641,134.170898 C116.911098,137.071304 117.470663,139.277336 117.775352,140.789062 C117.998009,141.527347 118.285115,142.62011 118.63668,144.067383 C118.988244,145.514656 119.263632,146.601559 119.462852,147.328125 C119.556602,142.124974 119.603477,135.82035 119.603477,128.414062 L119.550742,127.447266 C119.550742,127.119139 119.612265,126.858399 119.735312,126.665039 C119.85836,126.471679 120.066366,126.375 120.359336,126.375 C120.652306,126.375 120.892538,126.445312 121.080039,126.585938 C121.455041,126.867189 121.642539,127.265622 121.642539,127.78125 C121.642539,131.074235 121.54879,135.304662 121.361289,140.472656 C121.173788,145.640651 120.892541,148.869134 120.517539,150.158203 C120.470664,150.169922 120.371055,150.202148 120.218711,150.254883 C120.066366,150.307617 119.955039,150.339844 119.884727,150.351562 C119.216754,150.503907 118.794884,150.47461 118.619102,150.263672 C118.443319,150.052733 118.317344,149.771486 118.241172,149.419922 C118.165,149.068358 118.07711,148.725588 117.9775,148.391602 C117.87789,148.057616 117.505823,146.460952 116.861289,143.601562 C115.138624,136.042931 114.078088,131.648444 113.679648,130.417969 L113.679648,135.796875 Z M137.104961,140.876953 L136.472148,140.894531 C136.132303,140.894531 135.862774,140.838868 135.663555,140.727539 C135.464335,140.61621 135.364727,140.393556 135.364727,140.05957 C135.364727,139.725584 135.473124,139.470704 135.689922,139.294922 C135.90672,139.11914 136.173319,139.03125 136.489727,139.03125 L136.489727,139.048828 C138.833488,139.048828 140.005352,139.417965 140.005352,140.15625 L139.618633,142.775391 L139.794414,146.589844 C139.794414,147.281253 139.74168,147.873044 139.636211,148.365234 C138.241673,149.642585 137.005357,150.28125 135.927227,150.28125 C135.353005,150.28125 134.825666,150.125978 134.345195,149.81543 C133.864724,149.504881 133.395979,148.974613 132.938945,148.224609 C132.481912,147.474606 132.083478,146.047862 131.743633,143.944336 C131.403787,141.84081 131.233867,140.37891 131.233867,139.558594 C131.233867,138.738277 131.251445,138.058596 131.286602,137.519531 C131.321758,136.980466 131.374492,136.368167 131.444805,135.682617 C131.515118,134.997067 131.556133,134.551759 131.567852,134.34668 C131.57957,134.141601 131.600078,133.848635 131.629375,133.467773 C131.658672,133.086912 131.687969,132.723635 131.717266,132.37793 C131.746563,132.032225 131.811015,131.545902 131.910625,130.918945 C132.010235,130.291989 132.118632,129.796877 132.23582,129.433594 C132.353008,129.070311 132.522929,128.657229 132.745586,128.194336 C132.968243,127.731443 133.226053,127.371095 133.519023,127.113281 C134.233871,126.503903 135.062964,126.199219 136.006328,126.199219 C136.949692,126.199219 137.421367,126.503903 137.421367,127.113281 C137.421367,127.394533 137.318829,127.625976 137.11375,127.807617 C136.908671,127.989259 136.671369,128.080078 136.401836,128.080078 L135.751445,127.992188 C135.048317,127.992188 134.515119,128.812492 134.151836,130.453125 C133.800272,132.046883 133.595196,133.482415 133.536602,134.759766 C133.431132,136.716807 133.378398,138.020505 133.378398,138.670898 C133.378398,139.321292 133.381328,139.825194 133.387187,140.182617 C133.393047,140.540041 133.404766,140.985349 133.422344,141.518555 C133.439922,142.05176 133.469219,142.523435 133.510234,142.933594 C133.55125,143.343752 133.606914,143.797849 133.677227,144.295898 C133.747539,144.793948 133.832499,145.227537 133.932109,145.59668 C134.031719,145.965822 134.154765,146.334959 134.30125,146.704102 C134.447735,147.073244 134.614726,147.374999 134.802227,147.609375 C135.224104,148.136721 135.728005,148.400391 136.313945,148.400391 C137.356919,148.400391 137.86668,146.378926 137.843242,142.335938 L137.843242,141.017578 C137.690898,140.923828 137.444806,140.876953 137.104961,140.876953 L137.104961,140.876953 Z M160.840352,148.488281 L162.738789,148.751953 C163.195823,148.751953 163.594256,148.552736 163.934102,148.154297 C164.273947,147.755857 164.525898,147.257815 164.689961,146.660156 C165.006369,145.511713 165.16457,144.495122 165.16457,143.610352 C165.16457,142.725582 165.018087,141.849614 164.725117,140.982422 C164.432147,140.11523 164.074729,139.309574 163.652852,138.56543 C163.230974,137.821285 162.803244,137.062504 162.369648,136.289062 C161.361831,134.472647 160.85793,132.679696 160.85793,130.910156 C160.85793,129.832026 161.039569,128.876957 161.402852,128.044922 C162.082542,126.498039 162.984877,125.724609 164.109883,125.724609 C164.53176,125.724609 164.933123,125.859374 165.313984,126.128906 C165.694846,126.398439 165.885273,126.691405 165.885273,127.007812 C165.885273,127.558597 165.592308,127.833984 165.006367,127.833984 C164.748553,127.833984 164.496603,127.763673 164.250508,127.623047 C163.488785,127.658203 162.973165,128.507804 162.703633,130.171875 C162.645039,130.535158 162.615742,130.959959 162.615742,131.446289 C162.615742,131.93262 162.72121,132.5332 162.932148,133.248047 C163.143087,133.962894 163.409686,134.59863 163.731953,135.155273 C164.05422,135.711917 164.39992,136.327145 164.769063,137.000977 C165.138205,137.674808 165.486834,138.328122 165.814961,138.960938 C166.553246,140.425789 166.922383,142.101553 166.922383,143.988281 C166.922383,145.488289 166.623558,146.876947 166.025898,148.154297 C165.709491,148.81055 165.261253,149.346678 164.681172,149.762695 C164.101091,150.178713 163.430199,150.392578 162.668477,150.404297 L162.668477,150.492188 C162.223162,150.433593 161.818869,150.284181 161.455586,150.043945 C161.092303,149.80371 160.887227,149.490236 160.840352,149.103516 L160.840352,148.488281 Z M178.130898,131.841797 L178.183633,133.951172 L178.166055,137.396484 C178.166055,137.689455 178.171914,138.035154 178.183633,138.433594 C178.195352,138.832033 178.21,139.356442 178.227578,140.006836 C178.245156,140.65723 178.280312,141.301755 178.333047,141.94043 C178.385782,142.579105 178.447304,143.252926 178.517617,143.961914 C178.58793,144.670902 178.681679,145.327145 178.798867,145.930664 C178.916055,146.534183 179.04496,147.082029 179.185586,147.574219 C179.501994,148.64063 179.918005,149.173828 180.433633,149.173828 C181.125043,149.173828 181.652381,148.523444 182.015664,147.222656 C182.554729,145.289053 182.824258,142.91017 182.824258,140.085938 L182.876992,136.376953 C182.876992,133.775378 182.762736,132.023442 182.534219,131.121094 C182.305702,130.218745 182.091837,129.539065 181.892617,129.082031 C181.494178,128.156245 180.890668,127.693359 180.08207,127.693359 L180.011758,127.693359 C178.757845,127.693359 178.130898,129.076158 178.130898,131.841797 L178.130898,131.841797 Z M184.810586,140.314453 C184.810586,147.216831 183.398491,150.667969 180.574258,150.667969 C177.972682,150.667969 176.513713,147.39847 176.197305,140.859375 C176.173867,140.238278 176.162148,139.617191 176.162148,138.996094 L176.14457,136.798828 L176.14457,136.095703 C176.14457,131.021459 176.888704,127.886725 178.376992,126.691406 C178.740275,126.398436 179.144568,126.240234 179.589883,126.216797 C179.929728,126.333985 180.34574,126.442382 180.83793,126.541992 C181.33012,126.641602 181.693397,126.74414 181.927773,126.849609 C182.361369,127.048829 182.830115,127.567379 183.334023,128.405273 C183.837932,129.243168 184.209999,130.362298 184.450234,131.762695 C184.69047,133.163093 184.810586,134.566399 184.810586,135.972656 L184.810586,140.314453 Z M196.370664,131.841797 L196.423398,133.951172 L196.40582,137.396484 C196.40582,137.689455 196.41168,138.035154 196.423398,138.433594 C196.435117,138.832033 196.449766,139.356442 196.467344,140.006836 C196.484922,140.65723 196.520078,141.301755 196.572813,141.94043 C196.625547,142.579105 196.68707,143.252926 196.757383,143.961914 C196.827696,144.670902 196.921445,145.327145 197.038633,145.930664 C197.155821,146.534183 197.284726,147.082029 197.425352,147.574219 C197.741759,148.64063 198.157771,149.173828 198.673398,149.173828 C199.364808,149.173828 199.892147,148.523444 200.25543,147.222656 C200.794495,145.289053 201.064023,142.91017 201.064023,140.085938 L201.116758,136.376953 C201.116758,133.775378 201.002501,132.023442 200.773984,131.121094 C200.545468,130.218745 200.331603,129.539065 200.132383,129.082031 C199.733943,128.156245 199.130434,127.693359 198.321836,127.693359 L198.251523,127.693359 C196.997611,127.693359 196.370664,129.076158 196.370664,131.841797 L196.370664,131.841797 Z M203.050352,140.314453 C203.050352,147.216831 201.638256,150.667969 198.814023,150.667969 C196.212448,150.667969 194.753478,147.39847 194.43707,140.859375 C194.413633,140.238278 194.401914,139.617191 194.401914,138.996094 L194.384336,136.798828 L194.384336,136.095703 C194.384336,131.021459 195.128469,127.886725 196.616758,126.691406 C196.980041,126.398436 197.384334,126.240234 197.829648,126.216797 C198.169494,126.333985 198.585505,126.442382 199.077695,126.541992 C199.569885,126.641602 199.933163,126.74414 200.167539,126.849609 C200.601135,127.048829 201.06988,127.567379 201.573789,128.405273 C202.077698,129.243168 202.449764,130.362298 202.69,131.762695 C202.930236,133.163093 203.050352,134.566399 203.050352,135.972656 L203.050352,140.314453 Z M214.97957,135.796875 L215.190508,145.113281 L215.190508,149.191406 C215.190508,149.507814 215.108477,149.774413 214.944414,149.991211 C214.780351,150.208009 214.551837,150.316406 214.258867,150.316406 C213.473707,150.316406 213.081133,149.583992 213.081133,148.119141 L213.01082,135.427734 L213.221758,128.712891 C213.221758,127.095695 213.661207,126.287109 214.540117,126.287109 C215.067464,126.287109 215.448319,126.691402 215.682695,127.5 C216.010822,129.046883 216.582105,131.270493 217.396563,134.170898 C218.21102,137.071304 218.770584,139.277336 219.075274,140.789062 C219.297931,141.527347 219.585037,142.62011 219.936602,144.067383 C220.288166,145.514656 220.563554,146.601559 220.762774,147.328125 C220.856524,142.124974 220.903399,135.82035 220.903399,128.414062 L220.850664,127.447266 C220.850664,127.119139 220.912187,126.858399 221.035234,126.665039 C221.158282,126.471679 221.366288,126.375 221.659258,126.375 C221.952228,126.375 222.19246,126.445312 222.379961,126.585938 C222.754963,126.867189 222.942461,127.265622 222.942461,127.78125 C222.942461,131.074235 222.848712,135.304662 222.661211,140.472656 C222.47371,145.640651 222.192463,148.869134 221.817461,150.158203 C221.770586,150.169922 221.670977,150.202148 221.518633,150.254883 C221.366288,150.307617 221.254961,150.339844 221.184649,150.351562 C220.516676,150.503907 220.094806,150.47461 219.919024,150.263672 C219.743241,150.052733 219.617266,149.771486 219.541094,149.419922 C219.464922,149.068358 219.377032,148.725588 219.277422,148.391602 C219.177812,148.057616 218.805745,146.460952 218.161211,143.601562 C216.438546,136.042931 215.37801,131.648444 214.97957,130.417969 L214.97957,135.796875 Z M234.836524,140.455078 L234.766211,142.441406 C234.766211,143.929695 234.578713,144.673828 234.203711,144.673828 C233.828709,144.673828 233.641211,143.62501 233.641211,141.527344 L233.623633,135.568359 C233.623633,135.568359 233.524025,131.630899 233.324805,123.755859 C233.324805,123.380858 233.483006,123.055665 233.799414,122.780273 C234.115822,122.504881 234.432225,122.367188 234.748633,122.367188 C235.065041,122.367188 235.308202,122.452148 235.478125,122.62207 C235.648048,122.791993 235.733008,122.999999 235.733008,123.246094 C235.733008,125.167978 235.583595,128.039043 235.284766,131.859375 C234.985936,135.679707 234.836524,138.544912 234.836524,140.455078 L234.836524,140.455078 Z M233.869727,150.667969 C233.283786,150.515624 232.82676,150.099613 232.498633,149.419922 C232.498633,149.009764 232.645116,148.637697 232.938086,148.303711 C233.231056,147.969725 233.594334,147.802734 234.02793,147.802734 C234.461526,147.802734 234.810155,147.972655 235.073828,148.3125 C235.337501,148.652345 235.469336,149.062498 235.469336,149.542969 C235.469336,150.386723 234.936138,150.84375 233.869727,150.914062 L233.869727,150.667969 Z" id="coming-soon!" fill="#FFFFFF" sketch:type="MSShapeGroup"></path>
        </g>
    </g>
</svg>