<?xml version="1.0" encoding="UTF-8" standalone="no"?>
<svg width="281px" height="281px" viewBox="0 0 281 281" version="1.1" xmlns="http://www.w3.org/2000/svg" xmlns:xlink="http://www.w3.org/1999/xlink">
    <!-- Generator: Sketch 40.3 (33839) - http://www.bohemiancoding.com/sketch -->
    <title>round-bacgkround</title>
    <desc>Created with Sketch.</desc>
    <defs>
        <path d="M140.5,281 C218.096007,281 281,218.096007 281,140.5 C281,62.9039927 218.096007,0 140.5,0 C62.9039927,0 0,62.9039927 0,140.5 C0,218.096007 62.9039927,281 140.5,281 Z" id="path-1"></path>
    </defs>
    <g id="dog" stroke="none" stroke-width="1" fill="none" fill-rule="evenodd">
        <g id="Desktop-Copy-2" transform="translate(-684.000000, -70.000000)">
            <g id="CAT-LANDING" transform="translate(684.000000, 70.000000)">
                <g id="round-bacgkround">
                    <mask id="mask-2" fill="white">
                        <use xlink:href="#path-1"></use>
                    </mask>
                    <use id="Mask" fill="#091A3E" xlink:href="#path-1"></use>
                    <g id="mountains" mask="url(#mask-2)">
                        <g transform="translate(-50.684350, 64.846154)">
                            <path d="M203.985663,67.5285488 C200.286875,65.0627842 196.544216,62.7012564 192.778534,60.4585695 C172.6147,35.1061461 139.995237,18.6339523 103.977454,18.6339523 C86.4037064,18.6339523 65.1862277,25.4108294 43.9761273,36.4071122 L43.9761273,23.1061008 L-2.84217094e-14,23.1061008 L-2.84217094e-14,291.435013 L43.9761273,291.435013 L43.9761273,245.96817 L322.740053,245.96817 L322.740053,172.923075 L203.985663,67.5285488 L203.985663,67.5285488 Z M43.9761273,50.4538038 L43.9761273,64.5004955 C28.3223123,78.4586791 17.0844469,96.6289642 12.6367821,117.02122 L11.9257294,117.02122 L11.9257294,121.814876 C11.4898157,126.933345 11.9257294,132.177901 11.9257294,137.518568 L11.9257294,245.96817 L43.9761273,245.96817 L43.9761273,50.4538038 Z" id="Rectangle-1" stroke="none" fill="#1C6C86" fill-rule="evenodd"></path>
                            <path d="M178.140584,47.7029178 C178.140584,47.7029178 206.525281,69.0706919 222.862069,83.4801061 C250.749861,108.077765 304.106101,159.506631 304.106101,159.506631" id="Path-392" stroke="#1C6C86" stroke-width="4" fill="none"></path>
                            <path d="M338.426878,124.474801 L339.137931,124.474801 L339.137931,129.268457 C339.573845,134.386926 339.137931,139.631481 339.137931,144.972148 L339.137931,253.421751 L28.3236074,253.421751 L28.3236074,0 C28.3236074,8.27513713e-17 34.9246772,53.9611711 57.3925729,79.0079576 C73.050715,96.463359 84.2254642,100.623342 102.859416,98.3872679 C113.452949,97.116044 124.136116,90.9530721 133.633057,84.5527702 C165.381164,60.4607617 202.666782,43.2307692 230.688329,43.2307692 C283.099179,43.2307692 328.314334,78.1094367 338.426878,124.474801 L338.426878,124.474801 Z" id="Rectangle-1" stroke="none" fill="#3FA1B3" fill-rule="evenodd"></path>
                            <path d="M28.4830414,185.594164 L27.7719888,185.594164 L27.7719888,190.38782 C27.336075,195.506289 27.7719888,200.750845 27.7719888,206.091512 L27.7719888,314.541114 L338.586312,314.541114 L338.586312,61.1193634 C338.586312,61.1193634 331.985243,115.080535 309.517347,140.127321 C293.859205,157.582722 282.684456,161.742706 264.050503,159.506631 C253.456971,158.235407 242.773804,152.072435 233.276863,145.672134 C201.528756,121.580125 164.243138,104.350133 136.221591,104.350133 C83.810741,104.350133 38.5955861,139.2288 28.4830414,185.594164 L28.4830414,185.594164 Z" id="Rectangle-1" stroke="none" fill="#CEF7F0" fill-rule="evenodd"></path>
                        </g>
                    </g>
                </g>
                <g id="startsBUNDLE" transform="translate(35.000000, 11.000000)" fill="#F2F3F6">
                    <path d="M30.6397022,53.5996066 C30.6397022,51.8459437 29.0289287,48.0512958 29.0289287,48.0512958 C29.0289287,48.0512958 32.4680698,49.942838 33.9756608,49.942838 C35.60721,49.942838 38.2403945,48.3814199 38.2403945,48.3814199 C38.2403945,48.3814199 36.9751088,51.2273645 36.9751088,52.760006 C36.9751088,54.3665047 38.9213075,57.9010444 38.9213075,57.9010444 C38.9213075,57.9010444 35.0803204,56.3276001 33.5651168,56.3276001 C31.9411802,56.3276001 29.0289287,57.5555578 29.0289287,57.5555578 C29.0289287,57.5555578 30.6397022,54.9850839 30.6397022,53.5996066 L30.6397022,53.5996066 L30.6397022,53.5996066 Z" id="Rectangle-25" transform="translate(33.975118, 52.976170) rotate(-47.000000) translate(-33.975118, -52.976170) "></path>
                    <path d="M186.365862,72.9398608 C186.365862,71.7999528 185.318835,69.3333738 185.318835,69.3333738 C185.318835,69.3333738 187.554329,70.5629048 188.534286,70.5629048 C189.594818,70.5629048 191.306429,69.5479588 191.306429,69.5479588 C191.306429,69.5479588 190.483973,71.3978668 190.483973,72.3941078 C190.483973,73.4383558 191.749032,75.7358608 191.749032,75.7358608 C191.749032,75.7358608 189.252332,74.7130978 188.267426,74.7130978 C187.211843,74.7130978 185.318835,75.5112898 185.318835,75.5112898 C185.318835,75.5112898 186.365862,73.8404418 186.365862,72.9398608 L186.365862,72.9398608 L186.365862,72.9398608 Z" id="Rectangle-25" transform="translate(188.533934, 72.534617) rotate(-47.000000) translate(-188.533934, -72.534617) "></path>
                    <path d="M222.695734,96.5406499 C222.695734,95.7236199 221.945276,93.9556969 221.945276,93.9556969 C221.945276,93.9556969 223.547569,94.8369649 224.249954,94.8369649 C225.010092,94.8369649 226.23689,94.1095019 226.23689,94.1095019 C226.23689,94.1095019 225.647395,95.4354249 225.647395,96.1494809 C225.647395,96.8979469 226.554127,98.5446869 226.554127,98.5446869 C226.554127,98.5446869 224.764614,97.8116199 224.058682,97.8116199 C223.302092,97.8116199 221.945276,98.3837249 221.945276,98.3837249 C221.945276,98.3837249 222.695734,97.1861429 222.695734,96.5406499 L222.695734,96.5406499 L222.695734,96.5406499 Z" id="Rectangle-25" transform="translate(224.249702, 96.250192) rotate(-47.000000) translate(-224.249702, -96.250192) "></path>
                    <path d="M190.695734,36.5406503 C190.695734,35.7236203 189.945276,33.955697 189.945276,33.955697 C189.945276,33.955697 191.547569,34.8369649 192.249954,34.8369649 C193.010092,34.8369649 194.23689,34.1095015 194.23689,34.1095015 C194.23689,34.1095015 193.647395,35.4354247 193.647395,36.1494811 C193.647395,36.8979475 194.554127,38.5446866 194.554127,38.5446866 C194.554127,38.5446866 192.764614,37.8116202 192.058682,37.8116202 C191.302092,37.8116202 189.945276,38.3837246 189.945276,38.3837246 C189.945276,38.3837246 190.695734,37.186143 190.695734,36.5406503 L190.695734,36.5406503 L190.695734,36.5406503 Z" id="Rectangle-25" transform="translate(192.249702, 36.250192) rotate(-47.000000) translate(-192.249702, -36.250192) "></path>
                    <path d="M32.6957342,18.5406503 C32.6957342,17.7236203 31.9452762,15.955697 31.9452762,15.955697 C31.9452762,15.955697 33.5475691,16.8369649 34.2499545,16.8369649 C35.0100919,16.8369649 36.2368904,16.1095015 36.2368904,16.1095015 C36.2368904,16.1095015 35.6473948,17.4354247 35.6473948,18.1494811 C35.6473948,18.8979475 36.5541271,20.5446866 36.5541271,20.5446866 C36.5541271,20.5446866 34.7646145,19.8116202 34.0586824,19.8116202 C33.3020917,19.8116202 31.9452762,20.3837246 31.9452762,20.3837246 C31.9452762,20.3837246 32.6957342,19.186143 32.6957342,18.5406503 L32.6957342,18.5406503 L32.6957342,18.5406503 Z" id="Rectangle-25" transform="translate(34.249702, 18.250192) rotate(-47.000000) translate(-34.249702, -18.250192) "></path>
                    <path d="M95.6957342,3.54065027 C95.6957342,2.72362027 94.9452762,0.955696974 94.9452762,0.955696974 C94.9452762,0.955696974 96.5475691,1.83696487 97.2499545,1.83696487 C98.0100919,1.83696487 99.2368904,1.10950147 99.2368904,1.10950147 C99.2368904,1.10950147 98.6473948,2.43542467 98.6473948,3.14948107 C98.6473948,3.89794747 99.5541271,5.54468657 99.5541271,5.54468657 C99.5541271,5.54468657 97.7646145,4.81162017 97.0586824,4.81162017 C96.3020917,4.81162017 94.9452762,5.38372457 94.9452762,5.38372457 C94.9452762,5.38372457 95.6957342,4.18614297 95.6957342,3.54065027 L95.6957342,3.54065027 L95.6957342,3.54065027 Z" id="Rectangle-25" transform="translate(97.249702, 3.250192) rotate(-47.000000) translate(-97.249702, -3.250192) "></path>
                    <path d="M1.69573419,43.5406503 C1.69573419,42.7236203 0.945276193,40.955697 0.945276193,40.955697 C0.945276193,40.955697 2.54756909,41.8369649 3.24995449,41.8369649 C4.01009189,41.8369649 5.23689039,41.1095015 5.23689039,41.1095015 C5.23689039,41.1095015 4.64739479,42.4354247 4.64739479,43.1494811 C4.64739479,43.8979475 5.55412709,45.5446866 5.55412709,45.5446866 C5.55412709,45.5446866 3.76461449,44.8116202 3.05868239,44.8116202 C2.30209169,44.8116202 0.945276193,45.3837246 0.945276193,45.3837246 C0.945276193,45.3837246 1.69573419,44.186143 1.69573419,43.5406503 L1.69573419,43.5406503 L1.69573419,43.5406503 Z" id="Rectangle-25" transform="translate(3.249702, 43.250192) rotate(-47.000000) translate(-3.249702, -43.250192) "></path>
                </g>
                <g id="cat" transform="translate(88.000000, 24.000000)">
                    <g id="legs2" transform="translate(10.998064, 198.619807)">
                        <path d="M41.5019364,35.3801927 C63.9811668,35.3801927 82.2041835,29.6921739 82.2041835,22.6756472 C82.2041835,15.6591205 63.9811668,9.97110175 41.5019364,9.97110175 C19.0227059,9.97110175 0.799689162,15.6591205 0.799689162,22.6756472 C0.799689162,29.6921739 19.0227059,35.3801927 41.5019364,35.3801927 Z" id="Oval-71" fill-opacity="0.853543931" fill="#091A3E" opacity="0.811275653"></path>
                        <g id="right" transform="translate(59.829705, 17.112774) rotate(-11.000000) translate(-59.829705, -17.112774) translate(50.329705, 3.112774)">
                            <path d="M3.04519844,10.8644925 C3.04519844,7.75621169 1.91189367,2.06929486 1.91189367,2.06929486 C1.7119873,0.99173088 2.44743249,0.118192682 3.55405161,0.118192682 L14.9969042,0.118192682 C16.1037493,0.118192682 16.8905361,1.00301374 16.7571692,2.11275641 C16.7571692,2.11275641 16.0041809,7.86069819 16.0041809,10.8644925 C16.0041809,13.5501426 17.9487325,17.507817 17.9487325,17.507817 C19.9027681,22.3797498 17.2228437,26.5393075 11.9853479,26.797346 L11.6347056,26.8146213 C11.6347056,26.8146213 8.1020025,27.0973715 6.53415487,26.8146213 C5.74087259,26.6715584 6.53415487,26.8146213 6.53415487,26.8146213 C1.57927543,25.7423281 -0.649810859,21.0034182 1.41506798,16.1708824 C1.41506798,16.1708824 3.04519844,13.4456561 3.04519844,10.8644925 Z" id="Rectangle-160" fill="#1C6C86"></path>
                            <path d="M16.1697059,26.1055195 C16.1697059,26.1055195 16.1678699,24.3763619 16.0001968,23.6415627 C15.8355883,22.9201931 15.1728611,21.737013 15.1728611,21.737013" id="Path-867" stroke="#0F163A"></path>
                            <path d="M8.96668075,27.2656243 C8.96668075,27.2656243 9.79243619,25.3529805 9.9635255,24.3532866 C10.1247178,23.4114221 9.96352552,21.440949 9.96352552,21.440949" id="Path-868" stroke="#0F163A"></path>
                        </g>
                        <g id="left" transform="translate(24.438961, 15.763849) scale(-1, 1) rotate(-12.000000) translate(-24.438961, -15.763849) translate(15.438961, 2.263849)">
                            <path d="M2.63264298,10.7462998 C2.63264298,7.63801901 1.52608946,1.95110217 1.52608946,1.95110217 C1.33090181,0.873538198 2.07121282,-1.42108547e-14 3.1760252,-1.42108547e-14 L14.2556926,-1.42108547e-14 C15.3621146,-1.42108547e-14 16.1511664,0.884821054 16.0209475,1.99456373 C16.0209475,1.99456373 15.2857333,7.74250551 15.2857333,10.7462998 C15.2857333,13.4319499 17.113039,17.1921506 17.113039,17.1921506 C19.0603533,22.1731451 16.3075759,26.4295946 11.0193979,26.6964286 L11.0193979,26.6964286 C11.0193979,26.6964286 7.57008298,26.9791789 6.03924383,26.6964286 C5.2646867,26.5533657 6.03924383,26.6964286 6.03924383,26.6964286 C1.20132255,25.6241355 -0.938039293,20.8004293 1.11294112,15.8677804 C1.11294112,15.8677804 2.63264298,13.3274634 2.63264298,10.7462998 Z" id="Rectangle-160" fill="#287D98"></path>
                            <path d="M14.8202964,26.6994866 C14.8202964,26.6994866 14.8184604,24.970329 14.6507873,24.2355298 C14.4861788,23.5141602 13.8234516,22.3309801 13.8234516,22.3309801" id="Path-867" stroke="#0F163A"></path>
                            <path d="M8.08307493,26.9319866 C8.08307493,26.9319866 8.90883036,25.0193427 9.07991967,24.0196488 C9.24111195,23.0777843 9.0799197,21.1073112 9.0799197,21.1073112" id="Path-868" stroke="#0F163A" transform="translate(8.617318, 24.019649) rotate(-9.000000) translate(-8.617318, -24.019649) "></path>
                        </g>
                    </g>
                    <g id="belly" transform="translate(0.000000, 78.000000)">
                        <path d="M51.9497961,136.202946 C80.5484581,136.202946 103.732254,105.760094 103.732254,68.2069319 C103.732254,30.6537702 80.5484581,0.210917652 51.9497961,0.210917652 C37.7088125,0.210917652 24.8105203,7.75964768 15.4489574,19.9760968 C6.01068337,32.2926509 0.167338006,49.3537347 0.167338006,68.2069319 C0.167338006,105.760094 23.3511342,136.202946 51.9497961,136.202946 Z" id="Oval-3" fill="#287D98"></path>
                        <path d="M51.4566299,136.202946 C83.012011,136.202946 104.718587,106.746003 104.718587,70.4090213 C104.718587,34.80949 84.7882054,2.3440853 54.2696629,1.18181805 C53.6374663,1.15774149 52.0970385,4.61509648 51.4566299,4.61509648" id="Oval-2" fill="#1B6C86"></path>
                        <path d="M52.9361287,131.239733 C76.0874264,131.239733 94.8552614,109.685305 94.8552614,83.0965701 C94.8552614,56.5078351 76.0874264,34.9534067 52.9361287,34.9534067 C41.4077133,34.9534067 30.9662387,40.298128 23.3878307,48.9477306 C15.7473231,57.6682105 11.0169959,69.747956 11.0169959,83.0965701 C11.0169959,109.685305 29.7848309,131.239733 52.9361287,131.239733 Z" id="Oval-3" fill="#FDF1DB"></path>
                        <path d="M51.4566299,131.239733 C77.1684219,131.239733 94.8552614,109.685305 94.8552614,83.0965701 C94.8552614,56.5078351 77.1684219,34.9534067 51.4566299,34.9534067" id="Oval-2" fill="#E4CF83" opacity="0.580573694"></path>
                    </g>
                    <g id="leftHand" transform="translate(13.567416, 114.636364)">
                        <path d="M1.53841325,0.247171801 L24.8156947,36.9886398 C24.8156947,36.9886398 0.928722609,4.93664861 0.288139094,3.95851099" id="Line" stroke="#287D98" stroke-width="7" stroke-linecap="square"></path>
                        <path d="M23.4620041,40.3460946 C24.6387994,38.2947858 24.7666086,36.1518294 23.747474,35.5596675 C22.7283395,34.9675057 20.9481867,36.150378 19.7713915,38.2016868 C18.5945962,40.2529957 18.466787,42.395952 19.4859216,42.9881139 C20.5050561,43.5802757 22.2852089,42.3974034 23.4620041,40.3460946 L23.4620041,40.3460946 Z" id="Oval-16" fill="#287D98"></path>
                        <path d="M28.0343856,36.673903 C30.200877,35.7483987 31.5844152,34.1143673 31.1246047,33.0241915 C30.6647942,31.9340158 28.5357558,31.8005232 26.3692644,32.7260275 C24.202773,33.6515318 22.8192347,35.2855633 23.2790453,36.375739 C23.7388558,37.4659147 25.8678942,37.5994073 28.0343856,36.673903 L28.0343856,36.673903 Z" id="Oval-16" fill="#287D98"></path>
                        <path d="M28.6861573,43.0760984 C29.6731008,42.4310695 29.434026,40.2977818 28.1521688,38.3112669 C26.8703116,36.3247521 25.0310852,35.2372628 24.0441416,35.8822918 C23.0571981,36.5273207 23.2962729,38.6606084 24.5781302,40.6471233 C25.8599874,42.6336381 27.6992138,43.7211273 28.6861573,43.0760984 Z" id="Oval-16" fill="#287D98"></path>
                    </g>
                    <g id="rightHand" transform="translate(56.629213, 114.045455)">
                        <path d="M7.69862437,0.247171801 L30.9759058,36.9886398 C30.9759058,36.9886398 7.08893373,4.93664861 6.44835021,3.95851099" id="Line" stroke="#1C6C86" stroke-width="7" stroke-linecap="square" transform="translate(18.712128, 18.617906) scale(-1, 1) translate(-18.712128, -18.617906) "></path>
                        <path d="M7.51657091,35.5596675 C8.53570547,34.9675057 10.3158583,36.150378 11.4926535,38.2016868 C12.6694487,40.2529957 12.7972579,42.395952 11.7781234,42.9881139 C10.7589888,43.5802757 8.97883602,42.3974034 7.8020408,40.3460946 C6.62524558,38.2947858 6.49743636,36.1518294 7.51657091,35.5596675 Z" id="Oval-16" fill="#1C6C86"></path>
                        <path d="M4.89478057,36.673903 C7.06127198,35.7483987 8.44481021,34.1143673 7.98499969,33.0241915 C7.52518916,31.9340158 5.39615078,31.8005232 3.22965936,32.7260275 C1.06316794,33.6515318 -0.320370283,35.2855633 0.139440241,36.375739 C0.599250764,37.4659147 2.72828915,37.5994073 4.89478057,36.673903 L4.89478057,36.673903 Z" id="Oval-16" fill="#1C6C86" transform="translate(4.062220, 34.699965) scale(-1, 1) translate(-4.062220, -34.699965) "></path>
                        <path d="M2.57788766,43.0760984 C1.59094414,42.4310695 1.83001894,40.2977818 3.11187617,38.3112669 C4.39373339,36.3247521 6.23295978,35.2372628 7.2199033,35.8822918 C8.20684681,36.5273207 7.96777201,38.6606084 6.68591479,40.6471233 C5.40405757,42.6336381 3.56483117,43.7211273 2.57788766,43.0760984 Z" id="Oval-16" fill="#1C6C86"></path>
                    </g>
                    <g id="head" transform="translate(2.284369, 0.000000)">
                        <polygon id="Triangle-1" fill="#808FBE" points="0.0211946061 0.00937993898 30.3835846 21.0762807 6.79492971 36.4929326"></polygon>
                        <polygon id="Triangle-1" fill="#808FBE" points="97.0018224 1.72490614 66.6394324 22.7918069 90.2280873 38.2084588"></polygon>
                        <polygon id="Triangle-1" fill="#494A97" points="7.83370394 11.9747235 27.3632718 24.394331 12.1906771 33.4829372"></polygon>
                        <polygon id="Triangle-1" fill="#494A97" transform="translate(81.046403, 22.728830) scale(-1, 1) translate(-81.046403, -22.728830) " points="71.2816186 11.9747235 90.8111864 24.394331 75.6385918 33.4829372"></polygon>
                        <path d="M26.4376316,87.6910128 C33.0020117,90.3192177 40.4375065,91.8015738 48.3147568,91.8015738 C74.9103288,91.8015738 96.4702997,74.9040944 96.4702997,54.0599973 C96.4702997,33.2159002 74.9103288,16.3184209 48.3147568,16.3184209 C21.7191849,16.3184209 0.159214042,33.2159002 0.159214042,54.0599973 C0.159214042,68.7303535 10.8390188,81.4457392 26.4376316,87.6910128 Z" id="Oval-2" fill="#297C97"></path>
                        <path d="M48.7409121,91.8015738 C77.0184877,91.8015738 96.4702997,74.9040944 96.4702997,54.0599973 C96.4702997,33.2159002 77.0184877,16.3184209 48.7409121,16.3184209" id="Oval-2" fill="#1B6C86"></path>
                        <path d="M48.7409121,16.3184209 L48.7409121,62.2087468" id="Path-2" stroke="#091A3E"></path>
                        <g id="Line-+-Line-+-Line" transform="translate(11.064167, 46.340129)" stroke="#808FBE" stroke-linecap="square">
                            <path d="M45.7736946,5.57546016 L72.1953198,0.428881551" id="Line"></path>
                            <path d="M45.7736946,6.43322326 L75.1784066,5.57546016" id="Line"></path>
                            <path d="M45.7736946,7.29098636 L73.4737856,10.2931572" id="Line"></path>
                            <g transform="translate(15.005950, 5.500000) scale(-1, 1) translate(-15.005950, -5.500000) translate(0.005950, 0.000000)" id="Line">
                                <path d="M0.426155246,5.57546016 L26.8477805,0.428881551"></path>
                                <path d="M0.426155246,6.43322326 L29.8308672,5.57546016"></path>
                                <path d="M0.426155246,7.29098636 L28.1262462,10.2931572"></path>
                            </g>
                        </g>
                        <path d="M48.7409121,49.7711818 C44.5044493,49.7711818 41.0701177,50.1281747 41.0701177,52.4731356 C41.0701177,54.8180965 44.5044493,57.4910497 48.7409121,57.4910497 C52.9773749,57.4910497 56.4117065,54.8180965 56.4117065,52.4731356 C56.4117065,50.1281747 52.9773749,49.7711818 48.7409121,49.7711818 L48.7409121,49.7711818 Z" id="Oval-4" stroke="#091A3E" fill="#081839"></path>
                        <path d="M48.7409121,61.7798652 C48.7409121,66.0434306 51.6028551,69.4997332 55.1332408,69.4997332 L55.1332408,69.4997332 C58.6636264,69.4997332 61.5255695,66.0434306 61.5255695,61.7798652" id="Oval-5" stroke="#091A3E" transform="translate(55.133241, 65.639799) scale(-1, 1) translate(-55.133241, -65.639799) "></path>
                        <path d="M35.9562547,61.7798652 C35.9562547,66.0434306 38.8181978,69.4997332 42.3485834,69.4997332 L42.3485834,69.4997332 C45.8789691,69.4997332 48.7409121,66.0434306 48.7409121,61.7798652" id="Oval-5" stroke="#091A3E" transform="translate(42.348583, 65.639799) scale(-1, 1) translate(-42.348583, -65.639799) "></path>
                        <path d="M29.9100123,88.6363636 L67.2740317,88.6363636 C69.4348264,87.9591799 71.5188553,87.1680459 73.5133552,86.2727279 L23.6706874,86.2727273 C24.4936838,86.642165 25.331924,86.9938638 26.1845113,87.3271374 C27.3981365,87.8015397 28.6408322,88.2386081 29.9100123,88.6363636 Z" id="Line" stroke="#FFFFFF" stroke-linecap="square" fill="#FFFFFF"></path>
                        <ellipse id="Oval-12" fill="#E4CF83" cx="48.7409121" cy="93.0977941" rx="4.26155246" ry="4.28881551"></ellipse>
                        <path d="M31.3898789,44.7562691 C34.2956187,44.7562691 38.2700499,42.2579752 38.2700499,39.3513412 C38.2700499,36.4447072 34.2956187,34.2304163 31.3898789,34.2304163 C28.4841392,34.2304163 24.5097079,36.4447072 24.5097079,39.3513412 C24.5097079,42.2579752 28.4841392,44.7562691 31.3898789,44.7562691 Z" id="Oval-5" fill="#F3F3F3"></path>
                        <path d="M31.5247842,44.7562691 C33.946234,44.7562691 35.9092069,42.3999767 35.9092069,39.4933427 C35.9092069,36.5867087 33.946234,34.2304163 31.5247842,34.2304163 C29.1033344,34.2304163 27.1403615,36.5867087 27.1403615,39.4933427 C27.1403615,42.3999767 29.1033344,44.7562691 31.5247842,44.7562691 Z" id="Oval-7" fill="#000000"></path>
                        <path d="M66.2190296,44.7562691 C69.1247693,44.7562691 73.0992006,42.2579752 73.0992006,39.3513412 C73.0992006,36.4447072 69.1247693,34.2304163 66.2190296,34.2304163 C63.3132898,34.2304163 59.3388586,36.4447072 59.3388586,39.3513412 C59.3388586,42.2579752 63.3132898,44.7562691 66.2190296,44.7562691 Z" id="Oval-5" fill="#F3F3F3"></path>
                        <path d="M66.3539349,44.7562691 C68.7753847,44.7562691 70.7383576,42.3999767 70.7383576,39.4933427 C70.7383576,36.5867087 68.7753847,34.2304163 66.3539349,34.2304163 C63.9324851,34.2304163 61.9695122,36.5867087 61.9695122,39.4933427 C61.9695122,42.3999767 63.9324851,44.7562691 66.3539349,44.7562691 Z" id="Oval-7" fill="#000000"></path>
                    </g>
                </g>
            </g>
        </g>
    </g>
</svg>