<?xml version="1.0" encoding="UTF-8" standalone="no"?>
<svg width="7px" height="7px" viewBox="0 0 7 7" version="1.1" xmlns="http://www.w3.org/2000/svg" xmlns:xlink="http://www.w3.org/1999/xlink" xmlns:sketch="http://www.bohemiancoding.com/sketch/ns">
    <!-- Generator: Sketch 3.4.4 (17248) - http://www.bohemiancoding.com/sketch -->
    <title>Rectangle 25</title>
    <desc>Created with Sketch.</desc>
    <defs>
        <linearGradient x1="50%" y1="-4.30092768%" x2="50%" y2="63.2498751%" id="linearGradient-1">
            <stop stop-color="#494A97" offset="0%"></stop>
            <stop stop-color="#091A3E" offset="100%"></stop>
        </linearGradient>
    </defs>
    <g id="Page-1" stroke="none" stroke-width="1" fill="none" fill-rule="evenodd" sketch:type="MSPage">
        <g id="Mobile-Portrait" sketch:type="MSArtboardGroup" transform="translate(-259.000000, -44.000000)">
            <rect id="Rectangle-21" fill="url(#linearGradient-1)" sketch:type="MSShapeGroup" x="0" y="-32" width="320" height="1024"></rect>
            <path d="M260.695734,47.5406503 C260.695734,46.7236203 259.945276,44.955697 259.945276,44.955697 C259.945276,44.955697 261.547569,45.8369649 262.249954,45.8369649 C263.010092,45.8369649 264.23689,45.1095015 264.23689,45.1095015 C264.23689,45.1095015 263.647395,46.4354247 263.647395,47.1494811 C263.647395,47.8979475 264.554127,49.5446866 264.554127,49.5446866 C264.554127,49.5446866 262.764614,48.8116202 262.058682,48.8116202 C261.302092,48.8116202 259.945276,49.3837246 259.945276,49.3837246 C259.945276,49.3837246 260.695734,48.186143 260.695734,47.5406503 Z" id="Rectangle-25" fill="#F2F3F6" sketch:type="MSShapeGroup" transform="translate(262.249702, 47.250192) rotate(-47.000000) translate(-262.249702, -47.250192) "></path>
        </g>
    </g>
</svg>