<svg viewBox="0 0 512 512" xmlns="http://www.w3.org/2000/svg" xmlns:xlink="http://www.w3.org/1999/xlink"><title>cat icon square very big</title><defs><path id="path-1" d="M390 0c74 0 122 48 122 122v268c0 74-48 122-122 122H122C48 512 0 464 0 390V122C0 48 48 0 122 0h268z"/></defs><g id="cat-icon-square-very-big" fill="none" fill-rule="evenodd"><mask id="mask-2" fill="#fff"><use xlink:href="#path-1"/></mask><use id="background" fill="#091A3E" xlink:href="#path-1"/><g id="mountains" mask="url(#mask-2)"><g id="Rectangle-1"><path d="M319.317044 276.190305c-4.42568-2.48688-8.7562-5.115712-12.95714-7.76884-14.23655-10.124063-29.094726-19.526257-44.15857-27.93354-36.118917-42.55749-94.54926-70.208304-159.066917-70.208304-31.479367 0-69.48565 11.37591-107.478715 29.834665v24.92735-22.23121h-78.77322v425.402845h78.77322v-76.322275h499.342105V430.201978L319.317044 276.190305zm-323.661342-28.91746c-28.040246 23.43071-48.170323 53.932-56.137302 88.163174h-1.27369v8.046802c-.78084 8.592045 0 17.395744 0 26.36078v182.047393h57.410992z" fill="#1C6C86"/><path d="M521.536107 347.947867h1.202928v8.046803c.73746 8.592045 0 17.395745 0 26.36078v182.047394H-3.083333V139s11.167407 90.581158 49.17763 132.625592c26.489776 29.301264 45.394738 36.28436 76.91886 32.530806 17.921686-2.133922 35.99501-12.479308 52.06153-23.223084 53.710087-40.44171 116.7883-69.364594 164.193953-69.364594 88.666433 0 165.159497 58.548583 182.267467 136.379147z" fill="#3FA1B3"/><path d="M-2.81361 450.545024h-1.202928v8.046802c-.73746 8.592046 0 17.395745 0 26.36078V667H521.80583V241.597156s-11.167407 90.581158-49.17763 132.625593c-26.489776 29.301262-45.394738 36.28436-76.91886 32.530805-17.921686-2.133923-35.99501-12.479308-52.06153-23.223085-53.710087-40.44171-116.7883-69.364593-164.193953-69.364593-88.666433 0-165.159497 58.548582-182.267467 136.379147z" fill="#CEF7F0"/></g></g><g id="cat-body" mask="url(#mask-2)"><g id="cat-body-parts" transform="translate(64 45)"><path d="M8.597288.034757l113.219266 78.062256-87.960474 57.125565L8.597288.034758zM370.231385 6.391546L257.01212 84.453802l87.960472 57.125565 25.258793-135.18782z" id="Triangle-1" fill="#808FBE"/><path d="M193.71722 793.717375c106.642445 0 193.093228-112.804335 193.093228-251.955535 0-139.1512-86.450783-251.955535-193.093228-251.955535-53.10365 0-101.200495 27.97141-136.10912 73.238797C22.413426 408.683424.623993 471.902342.623993 541.76184c0 139.1512 86.450783 251.955535 193.093228 251.955535z" id="Oval-3" fill="#287D98"/><path d="M37.729598 44.371687l72.824416 46.02018-56.577562 33.677337-16.246854-79.697517zM347.146928 44.371687l-72.824416 46.02018 56.577562 33.677337 16.246854-79.697517z" id="Triangle-1" fill="#494A97"/><path d="M107.102366 324.934282c24.478122 9.73867 52.204572 15.23146 81.578297 15.23146 99.17306 0 179.56871-62.61269 179.56871-139.84936 0-77.23667-80.39565-139.84936-179.56871-139.84936s-179.56871 62.61269-179.56871 139.84936c0 54.360208 39.824258 101.476378 97.990413 124.6179z" id="Oval-2" fill="#297C97"/><path d="M190.269766 340.165742c103.548342 0 174.77803-62.61269 174.77803-139.84936 0-77.23667-71.229688-139.84936-174.77803-139.84936" id="Oval-2" fill="#1B6C86"/><path d="M191.878237 793.717375c117.667848 0 198.610177-109.151103 198.610177-243.795812 0-131.91213-74.319022-252.210922-188.12057-256.51764-2.357418-.089214-8.101567 12.721827-10.489607 12.721827" id="Oval-2" fill="#1B6C86"/><path d="M190.269766 60.467022V230.51113" id="Path-2" stroke="#091A3E"/><path d="M220.462735 192.370396l98.524425-19.070368M220.462735 195.54879l109.64815-3.178394M220.462735 198.727185l103.291736 11.12438" id="Line" stroke="#808FBE" stroke-linecap="square"/><g id="moustache" stroke="#808FBE" stroke-linecap="square"><path d="M160.076796 192.370396L61.55237 173.300028M160.076796 195.54879l-109.64815-3.178394M160.076796 198.727185L56.78506 209.851565" id="Line"/></g><path d="M190.269766 184.42441c-15.797478 0-28.603865 1.322817-28.603865 10.011942 0 8.689125 12.806388 18.593608 28.603866 18.593608 15.79748 0 28.603866-9.904483 28.603866-18.593608 0-8.689125-12.806387-10.011943-28.603866-10.011943z" id="Oval-4" stroke="#091A3E" fill="#081839"/><path d="M237.942876 228.921933c0 15.79841-10.67199 28.60555-23.836555 28.60555-13.164564 0-23.836553-12.80714-23.836553-28.60555M190.269767 228.921933c0 15.79841-10.67199 28.60555-23.836555 28.60555-13.164565 0-23.836554-12.80714-23.836554-28.60555" id="Oval-5" stroke="#091A3E"/><path d="M123.03846 162.175647c10.53165 0 24.936702-9.05264 24.936702-19.584914 0-10.532273-14.40505-18.55582-24.936703-18.55582-10.531654 0-24.936704 8.023547-24.936704 18.55582s14.40505 19.584914 24.936703 19.584914z" id="Oval-5" fill="#F3F3F3"/><path d="M98.461357 321.5h188.994677" id="Line" stroke="#FFF" stroke-width="3" stroke-linecap="square"/><path d="M123.527414 162.175647c8.776377 0 15.891036-8.538094 15.891036-19.070367 0-10.532273-7.11466-19.070367-15.891036-19.070367-8.776377 0-15.891036 8.538094-15.891036 19.070367 0 10.532273 7.11466 19.070367 15.891036 19.070367z" id="Oval-7" fill="#000"/><path d="M256.523164 162.175647c10.531652 0 24.936703-9.05264 24.936703-19.584914 0-10.532273-14.40505-18.55582-24.936703-18.55582-10.531653 0-24.936703 8.023547-24.936703 18.55582s14.40505 19.584914 24.936704 19.584914z" id="Oval-5" fill="#F3F3F3"/><path d="M257.01212 162.175647c8.776376 0 15.891035-8.538094 15.891035-19.070367 0-10.532273-7.11466-19.070367-15.891036-19.070367-8.776378 0-15.891038 8.538094-15.891038 19.070367 0 10.532273 7.11466 19.070367 15.891037 19.070367z" id="Oval-7" fill="#000"/><ellipse id="Oval-12" fill="#E4CF83" cx="190.269766" cy="344.968816" rx="15.891036" ry="15.891973"/><path d="M197.395186 775.32646c86.3296 0 156.313566-79.868763 156.313566-178.391875S283.724785 418.54271 197.395186 418.54271c-42.988668 0-81.92421 19.804574-110.183572 51.855206C58.720686 502.71118 41.08162 547.47202 41.08162 596.934586c0 98.52311 69.983968 178.391874 156.313566 178.391874z" id="Oval-3" fill="#FDF1DB"/><path d="M191.878237 775.32646c95.877505 0 161.830515-79.868763 161.830515-178.391875S287.755742 418.54271 191.878237 418.54271" id="Oval-2" opacity=".580574" fill="#E4CF83"/></g><g id="right-hand" stroke-linecap="square"><path d="M120.328598 470.694697L207.12798 606.83821s-89.072876-118.766912-91.461568-122.391348" id="Line" stroke="#287D98" stroke-width="18"/></g></g></g></svg>