<svg viewBox="0 0 512 512" xmlns="http://www.w3.org/2000/svg" xmlns:xlink="http://www.w3.org/1999/xlink"><title>cat icon square small</title><defs><path id="path-1" d="M390 0c74 0 122 48 122 122v268c0 74-48 122-122 122H122C48 512 0 464 0 390V122C0 48 48 0 122 0h268z"/></defs><g id="cat-icon-square-small" fill="none" fill-rule="evenodd"><g id="background"><mask id="mask-2" fill="#fff"><use xlink:href="#path-1"/></mask><use id="Mask" fill="#091A3E" xlink:href="#path-1"/><g id="mountains" mask="url(#mask-2)"><g id="Rectangle-1"><path d="M319.317044 276.190305c-4.42568-2.48688-8.7562-5.115712-12.95714-7.76884-14.23655-10.124063-29.094726-19.526257-44.15857-27.93354-36.118917-42.55749-94.54926-70.208304-159.066917-70.208304-31.479367 0-69.48565 11.37591-107.478715 29.834665v24.92735-22.23121h-78.77322v425.402845h78.77322v-76.322275h499.342105V430.201978L319.317044 276.190305zm-323.661342-28.91746c-28.040246 23.43071-48.170323 53.932-56.137302 88.163174h-1.27369v8.046802c-.78084 8.592045 0 17.395744 0 26.36078v182.047393h57.410992z" fill="#1C6C86"/><path d="M521.536107 347.947867h1.202928v8.046803c.73746 8.592045 0 17.395745 0 26.36078v182.047394H-3.083333V139s11.167407 90.581158 49.17763 132.625592c26.489776 29.301264 45.394738 36.28436 76.91886 32.530806 17.921686-2.133922 35.99501-12.479308 52.06153-23.223084 53.710087-40.44171 116.7883-69.364594 164.193953-69.364594 88.666433 0 165.159497 58.548583 182.267467 136.379147z" fill="#3FA1B3"/><path d="M-2.81361 450.545024h-1.202928v8.046802c-.73746 8.592046 0 17.395745 0 26.36078V667H521.80583V241.597156s-11.167407 90.581158-49.17763 132.625593c-26.489776 29.301262-45.394738 36.28436-76.91886 32.530805-17.921686-2.133923-35.99501-12.479308-52.06153-23.223085-53.710087-40.44171-116.7883-69.364593-164.193953-69.364593-88.666433 0-165.159497 58.548582-182.267467 136.379147z" fill="#CEF7F0"/></g></g></g><g id="cat-body"><g id="cat-body-parts" transform="translate(155 39)"><path d="M4.419577.017872l58.202232 40.14062-45.217533 29.374703L4.419577.017872zM190.32355 3.286615l-58.20223 40.14062 45.217532 29.374703 12.9847-69.515323z" id="Triangle-1" fill="#808FBE"/><ellipse id="Oval-14" fill="#287D98" cx="61.17527" cy="406.508636" rx="15.521194" ry="26.96713"/><ellipse id="Oval-14" fill="#1C6C86" cx="147.767193" cy="406.508636" rx="15.521194" ry="26.96713"/><path d="M99.583533 408.13972c54.821308 0 99.26276-58.005446 99.26276-129.55879 0-71.553342-44.441452-129.558787-99.26276-129.558787-27.298808 0-52.023784 14.38326-69.96914 37.660335C11.521993 210.150292.320775 242.658276.320775 278.58093c0 71.553344 44.44145 129.55879 99.26276 129.55879z" id="Oval-3" fill="#287D98"/><path d="M19.395522 22.816494l37.436593 23.66417-29.08463 17.317322-8.351963-40.981492zM178.456605 22.816494l-37.436592 23.66417 29.08463 17.317322 8.351962-40.981492z" id="Triangle-1" fill="#494A97"/><path d="M55.057738 167.085402c12.583382 5.00775 26.83662 7.832214 41.93667 7.832214 50.981547 0 92.310257-32.196255 92.310257-71.912347 0-39.716093-41.32871-71.912347-92.310258-71.912347-50.981547 0-92.310257 32.196254-92.310257 71.912346 0 27.95272 20.472316 52.180463 50.373588 64.080132z" id="Oval-2" fill="#297C97"/><path d="M97.811312 174.917616c53.230733 0 89.84753-32.196255 89.84753-71.912347 0-39.716093-36.616797-71.912347-89.84753-71.912347" id="Oval-2" fill="#1B6C86"/><path d="M98.638173 408.13972c60.489098 0 102.098838-56.126907 102.098838-125.362954 0-67.83092-38.20492-129.69011-96.706482-131.90468-1.21187-.045877-4.164744 6.541726-5.392355 6.541726" id="Oval-2" fill="#1B6C86"/><path d="M97.811312 31.092923V118.5318" id="Path-2" stroke="#091A3E"/><path d="M113.332506 98.91934l50.648106-9.80623M113.332506 100.553712l56.36644-1.634372M113.332506 102.188084l53.09882 5.7203" id="Line" stroke="#808FBE" stroke-linecap="square"/><g id="moustache" stroke="#808FBE" stroke-linecap="square"><path d="M82.29012 98.91934l-50.648107-9.806228M82.29012 100.553712l-56.36644-1.63437M82.29012 102.188084l-53.098822 5.7203" id="Line"/></g><path d="M97.811312 94.833412c-8.120954 0-14.70429.68021-14.70429 5.14827s6.583336 9.561073 14.70429 9.561073c8.120955 0 14.70429-5.093013 14.70429-9.561073s-6.583335-5.14827-14.70429-5.14827z" id="Oval-4" stroke="#091A3E" fill="#081839"/><path d="M122.31846 117.714613c0 8.123746-5.486112 14.709343-12.253574 14.709343s-12.253574-6.585597-12.253574-14.709343M97.811312 117.714613c0 8.123746-5.486112 14.709343-12.253574 14.709343s-12.253574-6.585597-12.253574-14.709343" id="Oval-5" stroke="#091A3E"/><path d="M63.24995 83.39281c5.41397 0 12.819123-4.654984 12.819123-10.070814 0-5.41583-7.405154-9.541643-12.819124-9.541643-5.41397 0-12.819124 4.125812-12.819124 9.541643 0 5.41583 7.405154 10.070815 12.819123 10.070815z" id="Oval-5" fill="#F3F3F3"/><path d="M50.615685 166.608033h97.15583" id="Line" stroke="#FFF" stroke-linecap="square"/><path d="M63.501305 83.39281c4.51164 0 8.16905-4.390397 8.16905-9.806228 0-5.41583-3.65741-9.80623-8.16905-9.80623-4.511642 0-8.16905 4.3904-8.16905 9.80623s3.657408 9.80623 8.16905 9.80623z" id="Oval-7" fill="#000"/><path d="M131.869964 83.39281c5.41397 0 12.819124-4.654984 12.819124-10.070814 0-5.41583-7.405154-9.541643-12.819124-9.541643-5.41397 0-12.819124 4.125812-12.819124 9.541643 0 5.41583 7.405154 10.070815 12.819124 10.070815z" id="Oval-5" fill="#F3F3F3"/><path d="M132.12132 83.39281c4.51164 0 8.16905-4.390397 8.16905-9.806228 0-5.41583-3.65741-9.80623-8.16905-9.80623-4.511642 0-8.16905 4.3904-8.16905 9.80623s3.657408 9.80623 8.16905 9.80623z" id="Oval-7" fill="#000"/><ellipse id="Oval-12" fill="#E4CF83" cx="97.811312" cy="177.387418" rx="8.169049" ry="8.171858"/><path d="M101.474252 398.682874c44.379154 0 80.355567-41.06955 80.355567-91.731405 0-50.661857-35.976414-91.731406-80.355568-91.731406-22.099035 0-42.114492 10.183767-56.641683 26.664616-14.646233 16.615898-23.713885 39.6325-23.713885 65.06679 0 50.661855 35.976413 91.731404 80.355567 91.731404z" id="Oval-3" fill="#FDF1DB"/><path d="M98.638173 398.682874c49.287413 0 83.191646-41.06955 83.191646-91.731405 0-50.661857-33.904234-91.731406-83.191647-91.731406" id="Oval-2" opacity=".580574" fill="#E4CF83"/></g><g id="right-hand"><path d="M183.956645 257.897708L228.5773 327.90446s-45.789382-61.07148-47.01733-62.93521" id="Line" stroke="#287D98" stroke-width="7" stroke-linecap="square"/><path d="M225.982385 334.301714c2.25582-3.90854 2.50082-7.991703.547223-9.12-1.953598-1.1283-5.366007 1.125532-7.621827 5.03407-2.25582 3.90854-2.50082 7.991704-.547222 9.120002 1.953598 1.128298 5.366006-1.125533 7.621827-5.034072z" id="Oval-16" fill="#287D98"/><path d="M234.747268 327.304764c4.152988-1.763445 6.805118-4.87691 5.9237-6.954116-.88142-2.077208-4.962614-2.331563-9.115602-.568118-4.152987 1.763444-6.805118 4.876908-5.923698 6.954116.88142 2.077208 4.962613 2.331563 9.1156.568118z" id="Oval-16" fill="#287D98"/><path d="M235.996662 339.50343c1.89189-1.22903 1.433603-5.29377-1.023613-9.078852-2.457217-3.785082-5.982864-5.85717-7.874755-4.62814-1.89189 1.22903-1.433603 5.29377 1.023613 9.078852 2.457216 3.785082 5.982863 5.85717 7.874754 4.62814z" id="Oval-16" fill="#287D98"/></g><g id="left-hand"><path d="M320.535212 256.771797l-44.620655 70.006752s45.789382-61.07148 47.01733-62.935212" id="Line" stroke="#1C6C86" stroke-width="7" stroke-linecap="square"/><path d="M277.96225 324.055802c1.953597-1.128298 5.366006 1.125533 7.621826 5.034072 2.25582 3.90854 2.50082 7.991703.547223 9.12-1.9536 1.1283-5.366007-1.125532-7.621828-5.03407-2.25582-3.90854-2.50082-7.991704-.547223-9.120002z" id="Oval-16" fill="#1C6C86"/><path d="M269.74459 326.178853c-4.15299-1.763445-6.80512-4.87691-5.9237-6.954116.88142-2.077208 4.962613-2.331563 9.1156-.568118 4.152988 1.763443 6.80512 4.876907 5.9237 6.954115-.88142 2.077208-4.962613 2.331563-9.1156.568118z" id="Oval-16" fill="#1C6C86"/><path d="M268.495195 338.37752c-1.89189-1.22903-1.433603-5.293772 1.023613-9.078853 2.457216-3.785082 5.982863-5.85717 7.874754-4.62814 1.89189 1.22903 1.433603 5.29377-1.023613 9.078852-2.457217 3.78508-5.982864 5.85717-7.874755 4.62814z" id="Oval-16" fill="#1C6C86"/></g></g></g></svg>