<svg viewBox="0 0 512 512" xmlns="http://www.w3.org/2000/svg" xmlns:xlink="http://www.w3.org/1999/xlink"><title>cat icon square big</title><defs><path id="path-1" d="M390 0c74 0 122 48 122 122v268c0 74-48 122-122 122H122C48 512 0 464 0 390V122C0 48 48 0 122 0h268z"/><path id="path-3" d="M4.82699.77247l73.0358 114.825667S2.914 15.42818.904078 12.37127"/></defs><g id="cat-icon-square-big" fill="none" fill-rule="evenodd"><mask id="mask-2" fill="#fff"><use xlink:href="#path-1"/></mask><use id="background" fill="#091A3E" xlink:href="#path-1"/><g id="mountains" mask="url(#mask-2)"><g id="Rectangle-1"><path d="M319.317044 276.190305c-4.42568-2.48688-8.7562-5.115712-12.95714-7.76884-14.23655-10.124063-29.094726-19.526257-44.15857-27.93354-36.118917-42.55749-94.54926-70.208304-159.066917-70.208304-31.479367 0-69.48565 11.37591-107.478715 29.834665v24.92735-22.23121h-78.77322v425.402845h78.77322v-76.322275h499.342105V430.201978L319.317044 276.190305zm-323.661342-28.91746c-28.040246 23.43071-48.170323 53.932-56.137302 88.163174h-1.27369v8.046802c-.78084 8.592045 0 17.395744 0 26.36078v182.047393h57.410992z" fill="#1C6C86"/><path d="M521.536107 347.947867h1.202928v8.046803c.73746 8.592045 0 17.395745 0 26.36078v182.047394H-3.083333V139s11.167407 90.581158 49.17763 132.625592c26.489776 29.301264 45.394738 36.28436 76.91886 32.530806 17.921686-2.133922 35.99501-12.479308 52.06153-23.223084 53.710087-40.44171 116.7883-69.364594 164.193953-69.364594 88.666433 0 165.159497 58.548583 182.267467 136.379147z" fill="#3FA1B3"/><path d="M-2.81361 450.545024h-1.202928v8.046802c-.73746 8.592046 0 17.395745 0 26.36078V667H521.80583V241.597156s-11.167407 90.581158-49.17763 132.625593c-26.489776 29.301262-45.394738 36.28436-76.91886 32.530805-17.921686-2.133923-35.99501-12.479308-52.06153-23.223085-53.710087-40.44171-116.7883-69.364593-164.193953-69.364593-88.666433 0-165.159497 58.548582-182.267467 136.379147z" fill="#CEF7F0"/></g></g><g id="cat-body" mask="url(#mask-2)"><g id="cat-body-parts" transform="translate(92 14)"><path d="M7.234035.029314l95.26634 65.838985-74.012778 48.180636L7.234035.029314zM311.524618 5.390734l-95.26634 65.838985 74.012778 48.180636L311.524618 5.390734z" id="Triangle-1" fill="#808FBE"/><path d="M162.99991 669.434227c89.73239 0 162.474866-95.141023 162.474866-212.503423S252.7323 244.42738 162.99991 244.42738c-44.68312 0-85.153356 23.591546-114.526598 61.770802C18.859378 344.69029.525047 398.010162.525047 456.930804c0 117.3624 72.742475 212.503423 162.474864 212.503423z" id="Oval-3" fill="#287D98"/><path d="M31.7469 37.423807L93.02371 76.23798 45.417526 104.642 31.7469 37.423808zM292.100612 37.423807l-61.27681 38.814174L278.429986 104.642l13.670626-67.21819z" id="Triangle-1" fill="#494A97"/><path d="M90.119382 274.054893c20.59668 8.213754 43.92661 12.846463 68.642608 12.846463 83.447408 0 151.0949-52.80857 151.0949-117.95124s-67.647492-117.95124-151.0949-117.95124c-83.44741 0-151.0949 52.80857-151.0949 117.95124 0 45.84829 33.509414 85.586838 82.452292 105.104777z" id="Oval-2" fill="#297C97"/><path d="M160.099113 286.901356c87.12891 0 147.063866-52.80857 147.063866-117.95124s-59.934956-117.95124-147.063867-117.95124" id="Oval-2" fill="#1B6C86"/><path d="M161.452532 669.434227c99.00952 0 167.117003-92.059827 167.117003-205.62138 0-111.256847-62.53442-212.718818-158.29071-216.351175-1.983607-.075245-6.81692 10.729797-8.826293 10.729797" id="Oval-2" fill="#1B6C86"/><path d="M160.099113 50.998876V194.41686" id="Path-2" stroke="#091A3E"/><path d="M185.50445 162.24834l82.901626-16.08426M185.50445 164.92905l92.261487-2.68071M185.50445 167.60976l86.912995 9.382486" id="Line" stroke="#808FBE" stroke-linecap="square"/><g id="moustache" stroke="#808FBE" stroke-linecap="square"><path d="M134.693775 162.24834L51.79215 146.16408M134.693775 164.92905l-92.261487-2.68071M134.693775 167.60976l-86.912995 9.382486" id="Line"/></g><path d="M160.099113 155.546566c-13.292508 0-24.068214 1.115686-24.068214 8.444236s10.775705 15.682154 24.068213 15.682154c13.292507 0 24.068214-8.353603 24.068214-15.682154 0-7.32855-10.775707-8.444236-24.068214-8.444236z" id="Oval-4" stroke="#091A3E" fill="#081839"/><path d="M200.212803 193.076506c0 13.324637-8.979755 24.12639-20.056845 24.12639-11.07709 0-20.056845-10.801753-20.056845-24.12639M160.099113 193.076506c0 13.324637-8.979755 24.12639-20.056845 24.12639-11.07709 0-20.056845-10.801753-20.056845-24.12639" id="Oval-5" stroke="#091A3E"/><path d="M103.528524 136.781596c8.861672 0 20.982546-7.635146 20.982546-16.518237 0-8.883093-12.120874-15.650284-20.982546-15.650284-8.86167 0-20.982545 6.76719-20.982545 15.650283 0 8.88309 12.120873 16.518236 20.982544 16.518236z" id="Oval-5" fill="#F3F3F3"/><path d="M82.848558 271.5H241.87477" id="Line" stroke="#FFF" stroke-width="3" stroke-linecap="square"/><path d="M103.939947 136.781596c7.384726 0 13.37123-7.20117 13.37123-16.08426 0-8.883092-5.986504-16.08426-13.37123-16.08426-7.384727 0-13.37123 7.201168-13.37123 16.08426 0 8.88309 5.986503 16.08426 13.37123 16.08426z" id="Oval-7" fill="#000"/><path d="M215.846856 136.781596c8.861672 0 20.982546-7.635146 20.982546-16.518237 0-8.883093-12.120874-15.650284-20.982546-15.650284-8.86167 0-20.982545 6.76719-20.982545 15.650283 0 8.88309 12.120875 16.518236 20.982546 16.518236z" id="Oval-5" fill="#F3F3F3"/><path d="M216.25828 136.781596c7.384725 0 13.37123-7.20117 13.37123-16.08426 0-8.883092-5.986505-16.08426-13.37123-16.08426-7.384728 0-13.37123 7.201168-13.37123 16.08426 0 8.88309 5.986502 16.08426 13.37123 16.08426z" id="Oval-7" fill="#000"/><ellipse id="Oval-12" fill="#E4CF83" cx="160.099113" cy="290.952347" rx="13.37123" ry="13.40355"/><path d="M166.09467 653.92303c72.640507 0 131.527272-67.362624 131.527272-150.45863 0-83.096005-58.886765-150.458627-131.52727-150.458627-36.172052 0-68.933672 16.703502-92.71201 43.73553C49.409477 423.99484 34.5674 461.746865 34.5674 503.4644c0 83.096006 58.886765 150.45863 131.52727 150.45863z" id="Oval-3" fill="#FDF1DB"/><path d="M161.452532 653.92303c80.674423 0 136.16941-67.362624 136.16941-150.45863 0-83.096005-55.494987-150.458627-136.16941-150.458627" id="Oval-2" opacity=".580574" fill="#E4CF83"/></g><g id="right-hand"><path d="M139.396697 373.037876l73.0358 114.825667s-74.94879-100.169957-76.958713-103.226866" id="Line" stroke="#287D98" stroke-width="18" stroke-linecap="square"/><path d="M208.185098 498.356373c3.692363-6.41082 4.093383-13.108058.895702-14.958702-3.19768-1.850643-8.783164 1.84611-12.475527 8.256928-3.692363 6.41082-4.093383 13.108058-.895703 14.958703s8.783165-1.846108 12.475528-8.256927z" id="Oval-16" fill="#287D98"/><path d="M222.531598 486.879917c6.797677-2.892417 11.138726-7.999147 9.696004-11.4062-1.44272-3.407054-8.122883-3.82425-14.92056-.931833-6.797676 2.892417-11.138725 7.999147-9.696004 11.4062 1.44272 3.407054 8.122884 3.82425 14.92056.931833z" id="Oval-16" fill="#287D98"/><path d="M224.576625 506.888273c3.096676-2.015866 2.346545-8.68289-1.675465-14.89121-4.02201-6.208324-9.792846-9.606982-12.889522-7.591116-3.096677 2.015866-2.346545 8.682888 1.675465 14.89121 4.02201 6.208324 9.792846 9.606982 12.889522 7.591116z" id="Oval-16" fill="#287D98"/></g><g id="left-hand"><g id="Line" transform="matrix(-1 0 0 1 367.778 370.42)"><use stroke="#1C6C86" stroke-width="18" stroke-linecap="square" xlink:href="#path-3"/><use xlink:href="#path-3"/></g><path d="M293.266906 481.552265c3.19768-1.850644 8.783164 1.846108 12.475527 8.256927 3.692363 6.41082 4.093383 13.108058.895703 14.958703-3.19768 1.850644-8.783165-1.84611-12.475528-8.256928-3.692363-6.41082-4.093383-13.108058-.895702-14.958702z" id="Oval-16" fill="#1C6C86"/><path d="M279.816108 485.03451c-6.797677-2.892416-11.138726-7.999146-9.696004-11.4062 1.44272-3.407053 8.122883-3.82425 14.92056-.931832 6.797676 2.892417 11.138725 7.999147 9.696004 11.4062-1.44272 3.407054-8.122884 3.82425-14.92056.931833z" id="Oval-16" fill="#1C6C86"/><path d="M277.77108 505.042867c-3.096675-2.015866-2.346544-8.68289 1.675466-14.89121 4.02201-6.208324 9.792846-9.606982 12.889522-7.591116 3.096677 2.015867 2.346545 8.68289-1.675465 14.891212-4.02201 6.208323-9.792846 9.60698-12.889522 7.591115z" id="Oval-16" fill="#1C6C86"/></g></g></g></svg>