<svg viewBox="0 0 377 377" xmlns="http://www.w3.org/2000/svg" xmlns:xlink="http://www.w3.org/1999/xlink"><title>cat icon round big no border</title><defs><path id="path-1" d="M188.5 377C292.605675 377 377 292.605675 377 188.5S292.605675 0 188.5 0 0 84.394325 0 188.5 84.394325 377 188.5 377z"/><path id="path-3" d="M3.917346.626885L63.18956 93.81171S2.364856 12.520477.733703 10.039695"/></defs><g id="cat-icon-round-big-no-border" fill="none" fill-rule="evenodd"><g id="cat-icon-round-big-no-border"><mask id="mask-2" fill="#fff"><use xlink:href="#path-1"/></mask><use id="Mask" fill="#091A3E" xlink:href="#path-1"/><g id="mountains" mask="url(#mask-2)"><path d="M205.674716 177.5988c-4.96243-3.30816-9.983722-6.476474-15.0359-9.485346C163.58627 134.099704 119.82279 112 71.5 112c-23.57759 0-52.043744 9.09211-80.5 23.84513V417h374v-98.000003L205.674716 177.5988z" id="Rectangle-1" fill="#1C6C86"/><path d="M171 151s38.08196 28.667797 60 48c37.415294 33.00113 109 102 109 102" id="Path-392" stroke="#1C6C86" stroke-width="4"/><path d="M386.046025 254H387v6.431346c.584838 6.867127 0 13.903417 0 21.068653V427H-30V87v.000016C-29.99595 87.0331-21.13687 159.403986 9 193c21.007543 23.418813 36 29 61 26 14.212675-1.70552 28.545608-9.973992 41.287055-18.560874C153.88149 168.116396 203.905255 145 241.5 145c70.316336 0 130.97866 46.79451 144.546025 109z" id="Rectangle-1" fill="#3FA1B3"/><path d="M-29.786097 336h-.953975v6.431346c-.584838 6.867127 0 13.903417 0 21.068653V509h417V169v.000016c-.00405.033085-8.86313 72.40397-39 105.999984-21.007543 23.418813-36 29-61 26-14.212675-1.70552-28.545608-9.973992-41.287055-18.560874C202.378438 250.116396 152.354673 227 114.759928 227c-70.316336 0-130.97866 46.79451-144.546025 109z" id="Rectangle-1" fill="#CEF7F0"/></g><g id="cat-body" mask="url(#mask-2)"><g id="cat-body-parts" transform="translate(58 64)"><path d="M5.870782.02379l77.313412 53.430512-60.06508 39.10018L5.870782.02379zM252.81785 4.37476l-77.31341 53.43051 60.06508 39.10018 17.24833-92.53069z" id="Triangle-1" fill="#808FBE"/><path d="M132.282603 543.268002c72.822335 0 131.8565-77.210085 131.8565-172.453552 0-95.243466-59.034165-172.45355-131.8565-172.45355-36.262594 0-69.10622 19.145317-92.94408 50.129045C15.305332 279.727563.426104 322.9984.426104 370.81445c0 95.243467 59.034165 172.453552 131.8565 172.453552z" id="Oval-3" fill="#287D98"/><path d="M25.7642 30.370656l49.729206 31.498985L36.8586 84.92044 25.7642 30.370656zM237.054297 30.370656l-49.729205 31.498985 38.634806 23.0508 11.0944-54.549784z" id="Triangle-1" fill="#494A97"/><path d="M73.136398 222.404604c16.71524 6.665732 35.648646 10.42533 55.70692 10.42533 67.721756 0 122.621087-42.8559 122.621087-95.72133 0-52.865432-54.89933-95.72133-122.621088-95.72133-67.721757 0-122.62109 42.8559-122.62109 95.72133 0 37.2074 27.19457 69.456547 66.91417 85.296z" id="Oval-2" fill="#297C97"/><path d="M129.92846 232.829933c70.70948 0 119.349702-42.8559 119.349702-95.72133 0-52.86543-48.64022-95.72133-119.349703-95.72133" id="Oval-2" fill="#1B6C86"/><path d="M131.026827 543.268002c80.35119 0 135.62383-74.709593 135.62383-166.868546 0-90.28861-50.74982-172.628353-128.46085-175.57613-1.609797-.061064-5.532273 8.707585-7.16298 8.707585" id="Oval-2" fill="#1B6C86"/><path d="M129.92846 41.387273v116.388435" id="Path-2" stroke="#091A3E"/><path d="M150.546164 131.66989l67.278828-13.052907M150.546164 133.845376l74.874824-2.175485M150.546164 136.02086l70.534255 7.614197" id="Line" stroke="#808FBE" stroke-linecap="square"/><g id="moustache" stroke="#808FBE" stroke-linecap="square"><path d="M109.310756 131.66989l-67.278828-13.052908M109.310756 133.845376l-74.874824-2.175485M109.310756 136.02086L38.7765 143.635057" id="Line"/></g><path d="M129.92846 126.23118c-10.787537 0-19.532563.905415-19.532563 6.852776 0 5.94736 8.745026 12.726586 19.532562 12.726586s19.532562-6.779225 19.532562-12.726586c0-5.94736-8.745026-6.852777-19.532563-6.852777z" id="Oval-4" stroke="#091A3E" fill="#081839"/><path d="M162.48273 156.687966c0 10.813384-7.28752 19.579363-16.277135 19.579363-8.989614 0-16.277136-8.76598-16.277136-19.579364" id="Oval-5" stroke="#091A3E"/><path d="M129.92846 156.687966c0 10.813384-7.287522 19.579363-16.277136 19.579363-8.989613 0-16.277135-8.76598-16.277135-19.579364" id="Oval-5" stroke="#091A3E"/><path d="M84.01859 111.002786c7.19169 0 17.028388-6.196173 17.028388-13.405095 0-7.208922-9.836697-12.70072-17.028388-12.70072-7.191692 0-17.02839 5.491798-17.02839 12.70072 0 7.208923 9.836698 13.405096 17.02839 13.405096z" id="Oval-5" fill="#F3F3F3"/><path d="M67.23576 220.331224h129.057746" id="Line" stroke="#FFF" stroke-width="3" stroke-linecap="square"/><path d="M84.35248 111.002786c5.993075 0 10.851423-5.843986 10.851423-13.05291 0-7.20892-4.858348-13.052907-10.851423-13.052907-5.993076 0-10.851424 5.843985-10.851424 13.052907 0 7.208923 4.858348 13.05291 10.851423 13.05291z" id="Oval-7" fill="#000"/><path d="M175.17055 111.002786c7.19169 0 17.028387-6.196173 17.028387-13.405095 0-7.208922-9.836697-12.70072-17.028388-12.70072-7.191692 0-17.02839 5.491798-17.02839 12.70072 0 7.208923 9.836698 13.405096 17.02839 13.405096z" id="Oval-5" fill="#F3F3F3"/><path d="M175.50444 111.002786c5.993075 0 10.851423-5.843986 10.851423-13.05291 0-7.20892-4.858348-13.052907-10.851424-13.052907-5.993077 0-10.851425 5.843985-10.851425 13.052907 0 7.208923 4.858348 13.05291 10.851424 13.05291z" id="Oval-7" fill="#000"/><ellipse id="Oval-12" fill="#E4CF83" cx="129.928459" cy="236.117446" rx="10.851424" ry="10.877424"/><path d="M134.794155 530.68015c58.951414 0 106.740977-54.666993 106.740977-122.102148 0-67.435155-47.789563-122.10215-106.740977-122.10215-29.355433 0-55.94313 13.555444-75.240444 35.49283-19.45544 22.117144-31.500532 52.75416-31.500532 86.60932 0 67.435155 47.789563 122.10215 106.740977 122.10215z" id="Oval-3" fill="#FDF1DB"/><path d="M131.026827 530.68015c65.47134 0 110.508305-54.666993 110.508305-122.102148 0-67.435155-45.036965-122.10215-110.508305-122.10215" id="Oval-2" opacity=".580574" fill="#E4CF83"/></g><g id="right-hand" stroke-linecap="square"><path d="M96.464798 355.371104l59.272213 93.184824s-60.8247-81.29123-62.455854-83.772013" id="Line" stroke="#287D98" stroke-width="18"/></g><g id="left-hand"><g id="Line" transform="matrix(-1 0 0 1 281.807 353.246)"><use stroke="#1C6C86" stroke-width="18" stroke-linecap="square" xlink:href="#path-3"/><use xlink:href="#path-3"/></g></g></g></g></g></svg>