<svg viewBox="0 0 224 412" xmlns="http://www.w3.org/2000/svg"><title>Breathing cat whole</title><g id="breathing-cat-whole" fill="none" fill-rule="evenodd"><g id="Legs" transform="translate(64 350)"><ellipse id="Oval-14" fill="#287D98" cx="14.100704" cy="24.048615" rx="13.726257" ry="23.951385"/><ellipse id="Oval-14" fill="#1C6C86" cx="90.678773" cy="24.048615" rx="13.726257" ry="23.951385"/></g><g id="belly"><path d="M112.067273 375.497294c48.481542 0 87.783596-51.518674 87.783596-115.070178 0-63.551505-39.302055-115.070178-87.783597-115.070178-24.141858 0-46.007534 12.774774-61.877612 33.448764-16.00012 20.8434-25.905982 49.716003-25.905982 81.621414 0 63.551504 39.302054 115.070178 87.783595 115.070178z" id="Oval-3" fill="#287D98"/><path d="M111.23124 375.497294c53.493883 0 90.291698-49.850213 90.291698-111.343566C201.522938 203.908368 167.736196 148.966914 116 147c-1.071724-.040745-3.683116 5.810163-4.76876 5.810163" id="Oval-2" fill="#1B6C86"/><path d="M113.739342 367.09801c39.246962 0 71.06291-36.476725 71.06291-81.473045s-31.815948-81.473046-71.06291-81.473046c-19.54341 0-37.244194 9.044912-50.0914 23.6827-12.95248 14.757736-20.97151 35.200382-20.97151 57.790345 0 44.99632 31.815948 81.473045 71.06291 81.473045z" id="Oval-3" fill="#FDF1DB"/><path d="M111.23124 367.09801c43.587608 0 73.571013-36.476725 73.571013-81.473045s-29.983405-81.473046-73.571014-81.473046" id="Oval-2" opacity=".580574" fill="#E4CF83"/></g><g id="leftHand"><path d="M49.607977 207.41829l39.460534 62.17787s-40.494104-54.241832-41.580046-55.89714" id="Line" stroke="#287D98" stroke-width="5" stroke-linecap="square"/><path d="M86.773683 275.278006c1.994948-3.471446 2.211615-7.097987.48394-8.100107-1.727676-1.00212-4.74546.999663-6.740407 4.471108-1.994948 3.471446-2.211615 7.097988-.48394 8.100108 1.727676 1.00212 4.74546-.999664 6.740407-4.47111z" id="Oval-16" fill="#287D98"/><path d="M94.524958 269.063528c3.67272-1.566238 6.018146-4.331522 5.238658-6.176435-.77949-1.844912-4.388716-2.070823-8.061434-.504585-3.67272 1.566238-6.018146 4.331522-5.238658 6.176435.77949 1.844913 4.388716 2.070823 8.061434.504585z" id="Oval-16" fill="#287D98"/><path d="M95.629867 279.898013c1.673104-1.091588 1.267815-4.701767-.905238-8.06356-2.173054-3.361796-5.29098-5.202162-6.964085-4.110575-1.673104 1.091588-1.267816 4.701767.905237 8.06356 2.173054 3.361796 5.29098 5.202162 6.964085 4.110575z" id="Oval-16" fill="#287D98"/></g><g id="rightHand"><path d="M170.392023 206.41829l-39.460535 62.17787s40.494105-54.241832 41.580047-55.89714" id="Line" stroke="#1C6C86" stroke-width="5" stroke-linecap="square"/><path d="M132.742377 266.1779c1.727676-1.00212 4.74546.999663 6.740407 4.471108 1.994948 3.471446 2.211615 7.097988.48394 8.100108-1.727676 1.00212-4.74546-.999664-6.740407-4.47111-1.994948-3.471446-2.211615-7.097987-.48394-8.100107z" id="Oval-16" fill="#1C6C86"/><path d="M125.475042 268.063528c-3.67272-1.566238-6.018146-4.331522-5.238658-6.176435.77949-1.844912 4.388716-2.070823 8.061434-.504585 3.67272 1.566238 6.018146 4.331522 5.238658 6.176435-.77949 1.844913-4.388716 2.070823-8.061434.504585z" id="Oval-16" fill="#1C6C86"/><path d="M124.370133 278.898013c-1.673104-1.091588-1.267815-4.701767.905238-8.06356 2.173054-3.361796 5.29098-5.202162 6.964085-4.110575 1.673104 1.091588 1.267816 4.701767-.905238 8.06356-2.173053 3.361796-5.29098 5.202162-6.964084 4.110575z" id="Oval-16" fill="#1C6C86"/></g><g id="head" transform="translate(27 13)"><path d="M.90848.015874l51.47148 35.651678L12.391572 61.75727.90848.015874zM165.313734 2.919072l-51.47148 35.651678 39.988386 26.08972L165.313734 2.91907z" id="Triangle-1" fill="#808FBE"/><path d="M14.152542 20.264917L47.25981 41.282714 21.53865 56.663432 14.15254 20.264917zM154.819132 20.264917l-33.107268 21.017797 25.72116 15.380718 7.386108-36.398515z" id="Triangle-1" fill="#494A97"/><path d="M45.69063 148.400176c11.128186 4.44773 23.73312 6.956334 37.086935 6.956334 45.085827 0 81.63511-28.595735 81.63511-63.87036 0-35.274627-36.549283-63.87036-81.63511-63.87036-45.085826 0-81.63511 28.595733-81.63511 63.87036 0 24.826756 18.104812 46.3451 44.548174 56.914026z" id="Oval-2" fill="#297C97"/><path d="M83.5 155.35651c47.074907 0 79.457182-28.595735 79.457182-63.87036 0-35.274627-32.382275-63.87036-79.457182-63.87036" id="Oval-2" fill="#1B6C86"/><path d="M83.5 27.61579v77.66055" id="Path-2" stroke="#091A3E"/><g id="Line-+-Line-+-Line" stroke="#808FBE" stroke-linecap="square"><path d="M97.226258 87.85715l44.790946-8.709593M97.226258 89.30875l49.847988-1.4516M97.226258 90.76035l46.95825 5.080596" id="Line"/><g id="Line"><path d="M69.773742 87.85715l-44.790945-8.709593M69.773742 89.30875l-49.847987-1.4516M69.773742 90.76035l-46.95825 5.080596"/></g></g><path d="M83.5 84.228154c-7.181813 0-13.003823.604142-13.003823 4.572537 0 3.968396 5.82201 8.491856 13.003823 8.491856 7.181813 0 13.003823-4.52346 13.003823-8.491855 0-3.968394-5.82201-4.572536-13.003823-4.572536z" id="Oval-4" stroke="#091A3E" fill="#081839"/><path d="M105.173038 104.55054c0 7.215266-4.851675 13.064393-10.83652 13.064393-5.984843 0-10.836518-5.849127-10.836518-13.064392M83.5 104.55054c0 7.215266-4.851675 13.064393-10.83652 13.064393-5.984843 0-10.836518-5.849127-10.836518-13.064392" id="Oval-5" stroke="#091A3E"/><path d="M51.577138 150h63.340912c3.663062-1.146003 7.195987-2.484845 10.57714-4H41c1.395175.625202 2.816192 1.220385 4.26153 1.784386 2.057384.802835 4.16405 1.54249 6.315612 2.215614z" id="Line" stroke="#FFF" stroke-linecap="square" fill="#FFF"/><ellipse id="Oval-12" fill="#E4CF83" cx="83.5" cy="157.550113" rx="7.224346" ry="7.257995"/><path d="M124.452516 64c0 4.312772-6.145455 7.808965-13.726258 7.808965C103.145456 71.808965 97 68.312772 97 64M70.452516 63c0 4.312772-6.145455 7.808965-13.726258 7.808965C49.145457 70.808965 43 67.312772 43 63" id="Oval-5" stroke="#091A3E"/></g></g></svg>