<?xml version="1.0" encoding="UTF-8" standalone="no"?>
<svg width="138px" height="70px" viewBox="0 0 138 70" version="1.1" xmlns="http://www.w3.org/2000/svg" xmlns:xlink="http://www.w3.org/1999/xlink" xmlns:sketch="http://www.bohemiancoding.com/sketch/ns">
    <!-- Generator: Sketch 3.4.4 (17248) - http://www.bohemiancoding.com/sketch -->
    <title>leftHand + rightHand</title>
    <desc>Created with Sketch.</desc>
    <defs></defs>
    <g id="app" stroke="none" stroke-width="1" fill="none" fill-rule="evenodd" sketch:type="MSPage">
        <g id="leftHand-+-rightHand" sketch:type="MSLayerGroup" transform="translate(6.000000, -5.000000)">
            <g id="leftHand" transform="translate(0.000000, 1.000000)" sketch:type="MSShapeGroup">
                <path d="M2.60797675,0.418290741 L42.0685111,62.5961597 C42.0685111,62.5961597 1.57440595,8.35432842 0.488464369,6.6990186" id="Line" stroke="#287D98" stroke-width="9" stroke-linecap="square"></path>
                <path d="M39.7736832,68.2780062 C41.7686313,64.8065605 41.9852984,61.1800189 40.2576226,60.1778989 C38.5299469,59.1757788 35.5121641,61.1775628 33.517216,64.6490085 C31.5222679,68.1204542 31.3056008,71.7469958 33.0332766,72.7491158 C34.7609523,73.7512359 37.7787351,71.7494519 39.7736832,68.2780062 L39.7736832,68.2780062 Z" id="Oval-16" fill="#287D98"></path>
                <path d="M47.5249584,62.0635282 C51.1976772,60.4972902 53.5431039,57.7320061 52.7636156,55.8870934 C51.9841273,54.0421806 48.3749003,53.8162701 44.7021815,55.3825081 C41.0294627,56.9487461 38.684036,59.7140302 39.4635243,61.5589429 C40.2430127,63.4038556 43.8522396,63.6297662 47.5249584,62.0635282 L47.5249584,62.0635282 Z" id="Oval-16" fill="#287D98"></path>
                <path d="M48.6298666,72.8980127 C50.3029709,71.8064253 49.8976822,68.1962461 47.724629,64.8344517 C45.5515758,61.4726573 42.4336491,59.632291 40.7605449,60.7238784 C39.0874406,61.8154657 39.4927294,65.425645 41.6657825,68.7874394 C43.8388357,72.1492337 46.9567624,73.9896001 48.6298666,72.8980127 Z" id="Oval-16" fill="#287D98"></path>
            </g>
            <g id="rightHand" transform="translate(73.000000, 0.000000)" sketch:type="MSShapeGroup">
                <path d="M13.0510013,0.418290741 L52.5115356,62.5961597 C52.5115356,62.5961597 12.0174305,8.35432842 10.9314889,6.6990186" id="Line" stroke="#1C6C86" stroke-width="9" stroke-linecap="square" transform="translate(31.721512, 31.507225) scale(-1, 1) translate(-31.721512, -31.507225) "></path>
                <path d="M12.7423774,60.1778989 C14.4700531,59.1757788 17.4878359,61.1775628 19.482784,64.6490085 C21.4777321,68.1204542 21.6943992,71.7469958 19.9667234,72.7491158 C18.2390477,73.7512359 15.2212649,71.7494519 13.2263168,68.2780062 C11.2313687,64.8065605 11.0147016,61.1800189 12.7423774,60.1778989 Z" id="Oval-16" fill="#1C6C86"></path>
                <path d="M8.29781848,62.0635282 C11.9705373,60.4972902 14.315964,57.7320061 13.5364757,55.8870934 C12.7569873,54.0421806 9.14776037,53.8162701 5.47504159,55.3825081 C1.8023228,56.9487461 -0.543103908,59.7140302 0.236384408,61.5589429 C1.01587272,63.4038556 4.6250997,63.6297662 8.29781848,62.0635282 L8.29781848,62.0635282 Z" id="Oval-16" fill="#1C6C86" transform="translate(6.886430, 58.723018) scale(-1, 1) translate(-6.886430, -58.723018) "></path>
                <path d="M4.37013336,72.8980127 C2.69702912,71.8064253 3.10231783,68.1962461 5.27537102,64.8344517 C7.44842422,61.4726573 10.5663509,59.632291 12.2394551,60.7238784 C13.9125594,61.8154657 13.5072706,65.425645 11.3342175,68.7874394 C9.16116425,72.1492337 6.0432376,73.9896001 4.37013336,72.8980127 Z" id="Oval-16" fill="#1C6C86"></path>
            </g>
        </g>
    </g>
</svg>