<svg viewBox="0 0 13 68" xmlns="http://www.w3.org/2000/svg"><title>twho hand breathing</title><g id="two-hands" fill="none" fill-rule="evenodd"><g id="leftHand"><path d="M3.607977-7.58171L43.06851 54.59616S2.574407.354328 1.488465-1.30098" id="Line" stroke="#287D98" stroke-width="5" stroke-linecap="square"/><path d="M40.773683 60.278006c1.994948-3.471445 2.211615-7.097987.48394-8.100107-1.727676-1.00212-4.74546.999663-6.740407 4.471108-1.994948 3.471446-2.211615 7.097988-.48394 8.100108 1.727676 1.00212 4.74546-.999664 6.740407-4.47111z" id="Oval-16" fill="#287D98"/><path d="M48.524958 54.063528c3.67272-1.566238 6.018146-4.331522 5.238658-6.176435-.77949-1.844912-4.388716-2.070823-8.061434-.504585-3.67272 1.566238-6.018146 4.331522-5.238658 6.176435.77949 1.844913 4.388716 2.070823 8.061434.504585z" id="Oval-16" fill="#287D98"/><path d="M49.629867 64.898013c1.673104-1.091588 1.267815-4.701767-.905238-8.06356-2.173054-3.361796-5.29098-5.202162-6.964085-4.110575-1.673104 1.091588-1.267816 4.701767.905237 8.06356 2.173054 3.361796 5.29098 5.202162 6.964085 4.110575z" id="Oval-16" fill="#287D98"/></g><g id="rightHand"><path d="M124.392023-8.58171L84.931488 53.59616S125.425594-.645672 126.511535-2.30098" id="Line" stroke="#1C6C86" stroke-width="5" stroke-linecap="square"/><path d="M86.742377 51.1779c1.727676-1.00212 4.74546.999663 6.740407 4.471108 1.994948 3.471446 2.211615 7.097988.48394 8.100108-1.727676 1.00212-4.74546-.999664-6.740407-4.47111-1.994948-3.471445-2.211615-7.097987-.48394-8.100107z" id="Oval-16" fill="#1C6C86"/><path d="M79.475042 53.063528c-3.67272-1.566238-6.018146-4.331522-5.238658-6.176435.77949-1.844912 4.388716-2.070823 8.061434-.504585 3.67272 1.566238 6.018146 4.331522 5.238658 6.176435-.77949 1.844913-4.388716 2.070823-8.061434.504585z" id="Oval-16" fill="#1C6C86"/><path d="M78.370133 63.898013c-1.673104-1.091588-1.267815-4.701767.905238-8.06356 2.173054-3.361796 5.29098-5.202162 6.964085-4.110575 1.673104 1.091588 1.267816 4.701767-.905238 8.06356-2.173053 3.361796-5.29098 5.202162-6.964084 4.110575z" id="Oval-16" fill="#1C6C86"/></g></g></svg>
