<?xml version="1.0" encoding="UTF-8" standalone="no"?>
<svg width="281px" height="281px" viewBox="0 0 281 281" version="1.1" xmlns="http://www.w3.org/2000/svg" xmlns:xlink="http://www.w3.org/1999/xlink">
    <title>dog landing</title>
    <defs>
        <path d="M140.5,281 C218.096007,281 281,218.096007 281,140.5 C281,62.9039927 218.096007,0 140.5,0 C62.9039927,0 0,62.9039927 0,140.5 C0,218.096007 62.9039927,281 140.5,281 Z" id="path-1"></path>
    </defs>
    <g id="dog" stroke="none" stroke-width="1" fill="none" fill-rule="evenodd">
        <g id="Mobile-Portrait" transform="translate(-20.000000, -101.000000)">
            <g id="dog-landing-lighter" transform="translate(20.000000, 101.000000)">
                <g id="round-bacgkround">
                    <mask id="mask-2" fill="white">
                        <use xlink:href="#path-1"></use>
                    </mask>
                    <use id="Mask" fill="#FEEEB0" xlink:href="#path-1"></use>
                    <g id="mountains" mask="url(#mask-2)">
                        <g transform="translate(-23.684350, 64.846154)">
                            <path d="M176.985663,67.5285488 C173.286875,65.0627842 169.544216,62.7012564 165.778534,60.4585695 C145.6147,35.1061461 112.995237,18.6339523 76.9774536,18.6339523 C59.4037064,18.6339523 38.1862277,25.4108294 16.9761273,36.4071122 L16.9761273,50.4538038 L16.9761273,64.5004955 L16.9761273,245.96817 L295.740053,245.96817 L295.740053,172.923075 L176.985663,67.5285488 L176.985663,67.5285488 Z" id="Rectangle-1" stroke="none" fill="#FF9C9C" fill-rule="evenodd"></path>
                            <path d="M151.140584,47.7029178 C151.140584,47.7029178 179.525281,69.0706919 195.862069,83.4801061 C223.749861,108.077765 277.106101,159.506631 277.106101,159.506631" id="Path-392" stroke="#FF9C9C" stroke-width="4" fill="none"></path>
                            <path d="M311.426878,124.474801 L312.137931,124.474801 L312.137931,129.268457 C312.573845,134.386926 312.137931,139.631482 312.137931,144.972149 L312.137931,253.421751 L1.32360743,253.421751 L1.32360743,0 C1.32360743,8.27513713e-17 7.92467716,53.9611711 30.3925729,79.0079576 C46.050715,96.463359 57.2254642,100.623342 75.8594164,98.3872679 C86.452949,97.116044 97.1361163,90.9530721 106.633057,84.5527702 C138.381164,60.4607617 175.666782,43.2307692 203.688329,43.2307692 C256.099179,43.2307692 301.314334,78.1094367 311.426878,124.474801 L311.426878,124.474801 Z" id="Rectangle-1" stroke="none" fill="#F3D5D5" fill-rule="evenodd"></path>
                            <path d="M1.48304142,185.594164 L0.771988798,185.594164 L0.771988798,190.38782 C0.336075011,195.506289 0.771988798,200.750845 0.771988798,206.091512 L0.771988798,314.541114 L311.586312,314.541114 L311.586312,61.1193634 C311.586312,61.1193634 304.985243,115.080535 282.517347,140.127321 C266.859205,157.582722 255.684456,161.742706 237.050503,159.506631 C226.456971,158.235407 215.773804,152.072435 206.276863,145.672134 C174.528756,121.580125 137.243138,104.350133 109.221591,104.350133 C56.810741,104.350133 11.5955861,139.2288 1.48304142,185.594164 L1.48304142,185.594164 Z" id="Rectangle-1" stroke="none" fill="#FFF5F5" fill-rule="evenodd"></path>
                        </g>
                    </g>
                </g>
                <g id="DOG" transform="translate(88.000000, 25.000000)">
                    <g id="legs" transform="translate(14.165899, 193.822785)">
                        <path d="M38.6282815,37.7804629 C59.9620922,37.7804629 77.2565629,32.3909066 77.2565629,25.7425521 C77.2565629,19.0941976 59.9620922,13.7046414 38.6282815,13.7046414 C17.2944707,13.7046414 0,19.0941976 0,25.7425521 C0,32.3909066 17.2944707,37.7804629 38.6282815,37.7804629 Z" id="Oval-71" fill="#546079" opacity="0.811275653"></path>
                        <g id="right-leg" transform="translate(35.567094, 0.000000)">
                            <path d="M9.11473289,16.9393713 L13.1773015,13.106767 C13.1773015,13.106767 21.1350727,9.76884105 24.8146679,9.76884105 C28.4942631,9.76884105 32.3273335,11.7774712 33.8682248,14.0249976 L33.2181093,16.4005697 L27.9673932,19.7028764 L21.7728623,19.254946 L8.18741025,16.8213568" id="Path-12" fill="#FF9C9C"></path>
                            <path d="M26.6957028,14.6774492 C26.6957028,14.6774492 30.5189881,11.6069504 34.1015092,14.5496841 C37.6840303,17.4924179 34.3148673,22.204723 33.0319011,22.204723 C31.7489349,22.204723 30.7912567,22.1853255 30.7912567,22.1853255" id="Path-11" fill="#FF9C9C"></path>
                            <path d="M12.885823,13.062282 C12.885823,9.55779599 14.2953185,0.0157659507 14.2953185,0.0157659507 L5.49922652,3.97803353 L5.49922652,3.97803353 C5.49922652,3.97803353 5.62831715,12.6489854 1.33349243,17.1499869 C-2.96133228,21.6509884 5.00514751,22.2378281 5.00514751,22.2378281 C5.00514751,22.2378281 13.0236221,22.299383 17.2889916,24.299397 C21.5543612,26.2994111 28.160779,25.1143516 28.160779,25.1143516 C28.160779,25.1143516 31.160087,24.6133783 30.625283,20.6454207 C30.090479,16.6774632 25.0769473,16.6797909 25.0769473,16.6797909" id="Path-10" fill="#FF9C9C"></path>
                            <path d="M25.2319617,16.6385728 C25.2319617,16.6385728 33.4659629,17.4152946 29.4645908,24.2569335" id="Path-13" stroke="#F5807F"></path>
                            <path d="M29.2764638,13.6730461 C29.2764638,13.6730461 37.9005179,13.6079985 35.2003349,19.8484845 C35.2003349,19.8484845 33.8768738,21.9686077 33.4019771,21.9686077" id="Path-14" stroke="#F5807F"></path>
                        </g>
                        <g id="left-leg" transform="translate(24.283399, 12.814332) scale(-1, 1) translate(-24.283399, -12.814332) translate(5.977210, 0.000000)">
                            <path d="M9.11473289,16.9393713 L13.1773015,13.106767 C13.1773015,13.106767 21.1350727,9.76884105 24.8146679,9.76884105 C28.4942631,9.76884105 32.3273335,11.7774712 33.8682248,14.0249976 L33.2181093,16.4005697 L27.9673932,19.7028764 L21.7728623,19.254946 L8.18741025,16.8213568" id="Path-12" fill="#F7BABA"></path>
                            <path d="M26.6957028,14.6774492 C26.6957028,14.6774492 30.5189881,11.6069504 34.1015092,14.5496841 C37.6840303,17.4924179 34.3148673,22.204723 33.0319011,22.204723 C31.7489349,22.204723 30.7912567,22.1853255 30.7912567,22.1853255" id="Path-11" fill="#F7BABA"></path>
                            <path d="M12.885823,13.062282 C12.885823,9.55779599 14.2953185,0.0157659507 14.2953185,0.0157659507 L5.49922652,3.97803353 C5.49922652,3.97803353 5.62831715,12.6489854 1.33349243,17.1499869 C-2.96133228,21.6509884 5.00514751,22.2378281 5.00514751,22.2378281 C5.00514751,22.2378281 13.0236221,22.299383 17.2889916,24.299397 C21.5543612,26.2994111 28.160779,25.1143516 28.160779,25.1143516 C28.160779,25.1143516 31.160087,24.6133783 30.625283,20.6454207 C30.090479,16.6774632 25.0769473,16.6797909 25.0769473,16.6797909" id="Path-10" fill="#F7BABA"></path>
                            <path d="M25.2319617,16.6385728 C25.2319617,16.6385728 33.4659629,17.4152946 29.4645908,24.2569335" id="Path-13" stroke="#F5807F"></path>
                            <path d="M29.2764638,13.6730461 C29.2764638,13.6730461 37.9005179,13.6079985 35.2003349,19.8484845 C35.2003349,19.8484845 33.8768738,21.9686077 33.4019771,21.9686077" id="Path-14" stroke="#F5807F"></path>
                        </g>
                    </g>
                    <g id="belly" transform="translate(5.373272, 73.907173)">
                        <path d="M47.8709677,125.78903 C74.3093732,125.78903 95.7419355,97.849331 95.7419355,63.3839662 C95.7419355,52.0851925 86.5009251,36.2792226 82.472865,27.1375798 C79.1533313,19.6039306 72.0910889,8.6880831 68.0934788,4.56056339 C62.1450507,-1.58116952 58.4993362,0.978902954 47.8709677,0.978902954 C39.0309615,0.978902954 32.564458,-0.565275882 26.7022819,4.56056339 C21.640339,8.98668518 16.9091814,19.4854126 12.918229,27.1375798 C7.70810223,37.1273659 0,50.3933334 0,63.3839662 C0,97.849331 21.4325623,125.78903 47.8709677,125.78903 Z" id="Oval" fill="#F7BABA"></path>
                        <ellipse id="Oval-8" fill="#FFFFFF" cx="47.8709677" cy="76.1097046" rx="37.6129032" ry="45.7637131"></ellipse>
                        <path d="M47.3824885,1.01862139 C58.1193096,1.01862139 61.8022254,-1.54145108 67.8113516,4.60028183 C71.8497538,8.72780154 78.9840598,19.643649 82.3374663,27.1772982 C86.4066291,36.3189411 95.7419355,52.124911 95.7419355,63.4236847 C95.7419355,97.8890495 74.5841373,125.828748 47.8759522,125.828748 C47.7112895,125.828748 47.5468002,125.827686 47.3824885,125.825567 L47.3824885,1.01862139 Z" id="Combined-Shape" fill="#FF9C9C"></path>
                        <path d="M47.2915205,121.893391 C68.0645533,121.893391 84.5069124,101.384305 84.5069124,76.1097046 C84.5069124,50.8351038 68.1493657,30.3954536 47.3763329,30.3954536" id="Oval-8" fill="#F6F6F6"></path>
                    </g>
                    <g id="hands" transform="translate(13.592729, 101.805907)">
                        <g id="right-hand" transform="translate(59.334287, 26.197072) rotate(14.000000) translate(-59.334287, -26.197072) translate(44.689336, 2.856681)">
                            <g id="hand" transform="translate(11.462925, 32.325420) rotate(-16.000000) translate(-11.462925, -32.325420) translate(3.225140, 19.968742)">
                                <path d="M13.0248205,0.235580682 C12.4761023,0.148179907 9.9678593,0.0807691477 6.59751189,5.1313063 C2.77245064,10.8632418 1.94993062,11.7960574 1.94993062,11.7960574 C1.94993062,11.7960574 -0.336653353,17.688722 0.0986284307,18.8578607 C0.533910214,20.0269994 1.28851905,21.7018108 2.78220384,21.7018108 C2.85638332,21.7018108 2.94318608,21.6756867 3.04117538,21.6260332 C3.02644083,21.8155758 3.03439873,21.9734714 3.07126294,22.0903968 C3.38885634,23.0977349 4.41046125,23.8705521 6.07340489,23.8705521 C6.4545702,23.8705521 6.74703492,23.4998202 6.9714358,22.9283083 C6.99369955,23.0750927 7.19795296,23.9274311 8.93936401,23.9274311 C10.8448507,23.9274311 12.5617754,19.3727074 12.5617754,19.3727074 C12.5617754,19.3727074 16.2224771,8.10846334 15.4443884,7.13014451 C14.6662996,6.15182568 16.3117009,3.07265341 16.3117009,3.07265341 C16.3117009,3.07265341 14.6283705,-0.485403365 13.1343245,0.165585983 C13.0994431,0.180784589 13.0629097,0.204247549 13.0248205,0.235580682 Z" id="Combined-Shape" fill="#FF9C9C"></path>
                                <path d="M3.42756283,15.3939064 C3.42756283,15.3939064 4.88127246,16.6780164 4.42611738,18.4341217 C3.9709623,20.190227 3.05697895,21.6193098 3.05697895,21.6193098" id="Path-15" stroke="#F5807F"></path>
                                <path d="M7.02356369,16.8600974 C7.02356369,16.8600974 7.76079283,21.8542892 7.13507361,22.6860678" id="Path-20" stroke="#F5807F"></path>
                            </g>
                            <rect id="Rectangle" fill="#FF9C9C" transform="translate(19.472854, 13.810065) rotate(26.000000) translate(-19.472854, -13.810065) " x="15.3407369" y="0.542665933" width="8.26423426" height="26.534799"></rect>
                        </g>
                        <g id="left-hand" transform="translate(19.948415, 26.197072) scale(-1, 1) rotate(14.000000) translate(-19.948415, -26.197072) translate(5.303464, 2.856681)">
                            <g id="hand" transform="translate(11.462925, 32.325420) rotate(-16.000000) translate(-11.462925, -32.325420) translate(3.225140, 19.968742)">
                                <path d="M13.0248205,0.235580682 C12.4761023,0.148179907 9.9678593,0.0807691477 6.59751189,5.1313063 C2.77245064,10.8632418 1.94993062,11.7960574 1.94993062,11.7960574 C1.94993062,11.7960574 -0.336653353,17.688722 0.0986284307,18.8578607 C0.533910214,20.0269994 1.28851905,21.7018108 2.78220384,21.7018108 C2.85638332,21.7018108 2.94318608,21.6756867 3.04117538,21.6260332 C3.02644083,21.8155758 3.03439873,21.9734714 3.07126294,22.0903968 C3.38885634,23.0977349 4.41046125,23.8705521 6.07340489,23.8705521 C6.4545702,23.8705521 6.74703492,23.4998202 6.9714358,22.9283083 C6.99369955,23.0750927 7.19795296,23.9274311 8.93936401,23.9274311 C10.8448507,23.9274311 12.5617754,19.3727074 12.5617754,19.3727074 C12.5617754,19.3727074 16.2224771,8.10846334 15.4443884,7.13014451 C14.6662996,6.15182568 16.3117009,3.07265341 16.3117009,3.07265341 C16.3117009,3.07265341 14.6283705,-0.485403365 13.1343245,0.165585983 C13.0994431,0.180784589 13.0629097,0.204247549 13.0248205,0.235580682 Z" id="Combined-Shape" fill="#F7BABA"></path>
                                <path d="M3.42756283,15.3939064 C3.42756283,15.3939064 4.88127246,16.6780164 4.42611738,18.4341217 C3.9709623,20.190227 3.05697895,21.6193098 3.05697895,21.6193098" id="Path-15" stroke="#F5807F"></path>
                                <path d="M7.02356369,16.8600974 C7.02356369,16.8600974 7.76079283,21.8542892 7.13507361,22.6860678" id="Path-20" stroke="#F5807F"></path>
                            </g>
                            <rect id="Rectangle" fill="#F7BABA" transform="translate(19.472854, 13.810065) rotate(26.000000) translate(-19.472854, -13.810065) " x="15.3407369" y="0.542665933" width="8.26423426" height="26.534799"></rect>
                        </g>
                    </g>
                    <g id="head">
                        <path d="M31.5294309,4.66472842 C31.5294309,4.66472842 5.62551427,17.7106514 3.09100877,22.8185255 C0.556503279,27.9263997 0.214129585,31.0198789 0.214129585,36.8309941 C0.214129585,42.6421093 13.0693887,49.9801519 12.2385562,53.741126 C11.4077236,57.5021002 14.3027897,59.7736435 14.3027897,59.7736435 C14.3027897,59.7736435 17.3859115,62.5059119 17.3859115,59.0891052 C17.3859115,55.6722985 17.3463208,41.3892532 17.3463208,41.3892532 C17.3463208,41.3892532 18.4213539,29.0889981 19.8313544,29.0889981" id="Path-6" fill="#F5807F"></path>
                        <path d="M52.8150313,0.289611644 C52.8150313,0.289611644 19.3277809,-3.79418684 18.6273487,30.1447611 C18.4059149,40.8741819 22.0495797,49.3001442 24.9280697,56.6897536 C27.0254529,62.0741192 29.0752935,68.3960375 31.9463161,72.0292067 C37.5987071,79.1820912 45.3870744,81.2603608 53.0337033,80.6422523 L52.8150313,0.289611644 Z" id="Path-9" fill="#F7BABA"></path>
                        <path d="M105.901528,4.66472842 C105.901528,4.66472842 79.9976119,17.7106514 77.4631064,22.8185255 C74.9286009,27.9263997 74.5862272,31.0198789 74.5862272,36.8309941 C74.5862272,42.6421093 87.4414863,49.9801519 86.6106538,53.741126 C85.7798212,57.5021002 88.6748873,59.7736435 88.6748873,59.7736435 C88.6748873,59.7736435 91.7580091,62.5059119 91.7580091,59.0891052 C91.7580091,55.6722985 91.7184184,41.3892532 91.7184184,41.3892532 C91.7184184,41.3892532 92.7934515,29.0889981 94.203452,29.0889981" id="Path-6" fill="#F5807F" transform="translate(90.243878, 32.736367) scale(-1, 1) translate(-90.243878, -32.736367) "></path>
                        <path d="M88.0590727,0.349489523 C88.0590727,0.349489523 53.4866875,-3.79418684 52.7862553,30.1447611 C52.5648215,40.8741819 56.2084863,49.3001442 59.0869763,56.6897536 C61.1843595,62.0741192 63.1861302,68.3960375 66.0571528,72.0292067 C71.7095437,79.1820912 80.4124438,81.3776022 88.0590727,80.7594937 L88.0590727,0.349489523 Z" id="Path-9" fill="#FF9C9C" transform="translate(70.417851, 40.524271) scale(-1, 1) translate(-70.417851, -40.524271) "></path>
                        <path d="M25.9286237,43.4304795 C30.6264664,46.1355625 38.0840871,42.0245705 42.5856857,34.2483217 C47.0872843,26.472073 46.928197,17.9752748 42.2303543,15.2701918 C37.5325115,12.5651088 30.0748909,16.6761009 25.5732923,24.4523496 C21.0716937,32.2285983 21.230781,40.7253965 25.9286237,43.4304795 L25.9286237,43.4304795 Z" id="Oval-4" fill="#F5807F"></path>
                        <ellipse id="Oval-2" fill="#000000" cx="35.9111045" cy="32.6151762" rx="2.88885585" ry="6.10842809"></ellipse>
                        <ellipse id="Oval-3" fill="#FFFFFF" cx="35.9111045" cy="28.9452002" rx="1.15554234" ry="1.28598486"></ellipse>
                        <ellipse id="Oval-2" fill="#000000" cx="70.5773748" cy="32.6151762" rx="2.88885585" ry="6.10842809"></ellipse>
                        <ellipse id="Oval-3" fill="#FFFFFF" cx="70.5773748" cy="28.9452002" rx="1.15554234" ry="1.28598486"></ellipse>
                        <path d="M51.0190252,0.116492497 C50.3941459,0.116492497 49.1881827,0.116492497 49.1881827,0.116492497 C49.1881827,0.116492497 54.6756602,32.0768097 39.1200039,41.3514049 C23.5643475,50.6260001 27.2971435,61.8245457 27.2971435,61.8245457 C27.2971435,61.8245457 29.0546113,68.3720719 34.3009625,73.3007782 C38.323613,77.0798736 44.3724544,79.4583588 53.4036758,79.9156833 L53.4036758,0.496055711 C53.4036758,0.496055711 51.8151995,0.116492497 51.0190252,0.116492497 Z" id="Path-8" fill="#FFFFFF"></path>
                        <path d="M79.451046,0.254895378 C79.451046,0.254895378 78.1511499,0.137760841 77.5010831,0.116490966 C76.7411413,0.0916260368 75.2210201,0.116490966 75.2210201,0.116490966 C75.2210201,0.116490966 80.732448,32.0723821 65.0616205,41.3456929 C49.3907929,50.6190037 53.1512259,61.8159985 53.1512259,61.8159985 C53.1512259,61.8159985 54.9217056,68.362618 60.2068999,73.2906416 C64.2593332,77.0692138 70.3529592,79.4473695 79.451046,79.9046307 L79.451046,0.496001616" id="Path-8" fill="#F6F6F6" transform="translate(66.103403, 40.005035) scale(-1, 1) translate(-66.103403, -40.005035) "></path>
                        <ellipse id="Oval-12" fill="#CFDCFF" cx="52.9422332" cy="86.3278084" rx="4.58278619" ry="4.58941173"></ellipse>
                        <path d="M34.6820276,76.0512842 C34.6820276,76.0512842 51.056056,86.384427 71.8064516,76.3084585" id="Path-7" stroke="#9C90FF" stroke-width="4"></path>
                        <path d="M70.5414245,69.4415364 C70.5414245,69.4415364 69.107428,76.8718494 61.6385367,76.1484229 C54.1696454,75.4249963 53.2442396,69.1480384 53.2442396,69.1480384" id="Path-5" stroke="#979797"></path>
                        <path d="M53.357338,69.4415364 C53.357338,69.4415364 51.9233415,76.8718494 44.4544502,76.1484229 C36.9855589,75.4249963 36.0601531,69.1480384 36.0601531,69.1480384" id="Path-5" stroke="#979797"></path>
                        <path d="M53.2216157,69.3199766 C58.327123,69.3199766 63.9608951,63.7930722 63.9608951,60.6106216 C63.9608951,57.428171 58.3497469,55.3184307 53.2442396,55.3184307 C48.1387323,55.3184307 42.4823364,57.428171 42.4823364,60.6106216 C42.4823364,63.7930722 48.1161084,69.3199766 53.2216157,69.3199766 Z" id="Oval-6" fill="#000000"></path>
                    </g>
                </g>
            </g>
        </g>
    </g>
</svg>
