<?xml version="1.0" encoding="UTF-8" standalone="no"?>
<svg width="281px" height="281px" viewBox="0 0 281 281" version="1.1" xmlns="http://www.w3.org/2000/svg" xmlns:xlink="http://www.w3.org/1999/xlink">
    <title>panda landing</title>
    <defs>
        <path d="M140.5,281 C218.096007,281 281,218.096007 281,140.5 C281,62.9039927 218.096007,0 140.5,0 C62.9039927,0 0,62.9039927 0,140.5 C0,218.096007 62.9039927,281 140.5,281 Z" id="path-1"></path>
    </defs>
    <g id="Page-1" stroke="none" stroke-width="1" fill="none" fill-rule="evenodd">
        <g id="for-export-SVG" transform="translate(-70.000000, -657.000000)">
            <g id="panda-landing" transform="translate(70.000000, 657.000000)">
                <g id="round-bacgkround">
                    <mask id="mask-2" fill="white">
                        <use xlink:href="#path-1"></use>
                    </mask>
                    <use id="Mask" fill="#9C90FF" xlink:href="#path-1"></use>
                    <g id="mountains" mask="url(#mask-2)">
                        <g transform="translate(-23.684350, 64.846154)">
                            <path d="M176.985663,67.5285488 C173.286875,65.0627842 169.544216,62.7012564 165.778534,60.4585695 C145.6147,35.1061461 112.995237,18.6339523 76.9774536,18.6339523 C59.4037064,18.6339523 38.1862277,25.4108294 16.9761273,36.4071122 L16.9761273,50.4538038 L16.9761273,64.5004955 L16.9761273,245.96817 L295.740053,245.96817 L295.740053,172.923075 L176.985663,67.5285488 L176.985663,67.5285488 Z" id="Rectangle-1" stroke="none" fill="#4942A5" fill-rule="evenodd"></path>
                            <path d="M151.140584,47.7029178 C151.140584,47.7029178 179.525281,69.0706919 195.862069,83.4801061 C223.749861,108.077765 277.106101,159.506631 277.106101,159.506631" id="Path-392" stroke="#473BA9" stroke-width="4" fill="none"></path>
                            <path d="M311.426878,124.474801 L312.137931,124.474801 L312.137931,129.268457 C312.573845,134.386926 312.137931,139.631482 312.137931,144.972149 L312.137931,253.421751 L1.32360743,253.421751 L1.32360743,0 C1.32360743,8.27513713e-17 7.92467716,53.9611711 30.3925729,79.0079576 C46.050715,96.463359 57.2254642,100.623342 75.8594164,98.3872679 C86.452949,97.116044 97.1361163,90.9530721 106.633057,84.5527702 C138.381164,60.4607617 175.666782,43.2307692 203.688329,43.2307692 C256.099179,43.2307692 301.314334,78.1094367 311.426878,124.474801 L311.426878,124.474801 Z" id="Rectangle-1" stroke="none" fill="#A685B4" fill-rule="evenodd"></path>
                            <path d="M1.48304142,185.594164 L0.771988798,185.594164 L0.771988798,190.38782 C0.336075022,195.506289 0.771988775,200.750845 0.771988798,206.091512 L0.771988798,314.541114 L311.586312,314.541114 L311.586312,61.1193634 C311.586312,61.1193634 304.985243,115.080535 282.517347,140.127321 C266.859205,157.582722 255.684456,161.742706 237.050503,159.506631 C226.456971,158.235407 215.773804,152.072435 206.276863,145.672134 C174.528756,121.580125 137.243138,104.350133 109.221591,104.350133 C56.810741,104.350133 11.5955861,139.2288 1.48304142,185.594164 L1.48304142,185.594164 Z" id="Rectangle-1" stroke="none" fill="#CFDCFF" fill-rule="evenodd"></path>
                        </g>
                    </g>
                </g>
                <g id="panda" transform="translate(89.000000, 22.000000)">
                    <g id="legs" transform="translate(12.075949, 176.811256)">
                        <path d="M40.1359223,60.4140727 C61.7340094,60.4140727 79.2427184,54.9623635 79.2427184,48.2373394 C79.2427184,41.5123153 61.7340094,36.0606061 40.1359223,36.0606061 C18.5378352,36.0606061 1.02912621,41.5123153 1.02912621,48.2373394 C1.02912621,54.9623635 18.5378352,60.4140727 40.1359223,60.4140727 Z" id="Oval-71" fill="#546079" opacity="0.811275653"></path>
                        <path d="M41.1789876,0.118454653 C41.1789876,0.118454653 50.160457,35.0357346 59.1218205,41.6121495 C59.1218205,41.6121495 64.1941509,36.0490574 74.7270349,41.8804601 C74.7270349,41.8804601 79.6485703,30.2976461 78.616068,27.8613028 C77.5835656,25.4249595 79.9992427,19.9521899 79.9992427,19.9521899 C79.9992427,19.9521899 65.1930215,19.14392 59.1218205,16.0420703 C52.2529365,12.5326749 41.1789876,0.118454653 41.1789876,0.118454653 Z" id="Path-21" fill="#434343" transform="translate(60.589115, 20.999457) scale(-1, 1) translate(-60.589115, -20.999457) "></path>
                        <path d="M0.254936927,0.118454653 C0.254936927,0.118454653 9.23640638,35.0357346 18.1977698,41.6121495 C18.1977698,41.6121495 23.2701002,36.0490574 33.8029843,41.8804601 C33.8029843,41.8804601 38.7245197,30.2976461 37.6920174,27.8613028 C36.659515,25.4249595 39.075192,19.9521899 39.075192,19.9521899 C39.075192,19.9521899 24.2689709,19.14392 18.1977698,16.0420703 C11.3288859,12.5326749 0.254936927,0.118454653 0.254936927,0.118454653 Z" id="Path-21" fill="#787878"></path>
                        <path d="M16.210473,39.0984393 C16.210473,39.0984393 22.1421176,33.6999317 31.0687872,39.5800429 C36.3071899,43.0306456 34.3541056,45.2531322 31.3752146,46.1446608 C29.2778301,46.7723704 26.3846803,46.5230636 26.3846803,46.5230636 L15.8555668,46.5230636 C15.8555668,46.5230636 14.0886076,43.7529686 14.0886076,42.6317536 C14.0886076,41.4042281 16.210473,39.0984393 16.210473,39.0984393 Z" id="Path-22" fill="#525252"></path>
                        <path d="M47.7421186,39.0984393 C47.7421186,39.0984393 53.6737632,33.6999317 62.6004328,39.5800429 C67.8388355,43.0306456 65.8857512,45.2531322 62.9068602,46.1446608 C60.8094756,46.7723704 57.9163259,46.5230636 57.9163259,46.5230636 L47.376898,46.5230636 C47.376898,46.5230636 45.6202532,43.7529686 45.6202532,42.6317536 C45.6202532,41.4042281 47.7421186,39.0984393 47.7421186,39.0984393 Z" id="Path-22" fill="#525252" transform="translate(55.742793, 41.703800) scale(-1, 1) translate(-55.742793, -41.703800) "></path>
                    </g>
                    <g id="belly" transform="translate(0.000000, 59.606825)">
                        <path d="M52.4445561,140.198799 C81.3155862,140.198799 104.72018,109.461606 104.72018,71.5453572 C104.72018,33.6291082 79.9738141,0.212956934 51.1027839,0.212956934 C36.7261718,0.212956934 23.7050388,7.83467276 14.2543182,20.1692381 C4.72615583,32.6048763 0.168931701,52.5098756 0.168931701,71.5453572 C0.168931701,86.9094923 3.34101232,101.764587 9.83343557,113.203728 C19.3632833,129.994572 35.272426,140.198799 52.4445561,140.198799 Z" id="Oval-3" fill="#787878"></path>
                        <path d="M51.946693,140.198799 C83.8026015,140.198799 105.715907,110.457047 105.715907,73.7687377 C105.715907,37.8250081 91.6336868,5.04570779 60.8244915,3.87220301 C60.186274,3.84789367 52.5932008,7.3386765 51.946693,7.3386765" id="Oval-2" fill="#434343"></path>
                        <path d="M53.4402823,135.187599 C76.8120686,135.187599 95.7586449,113.424769 95.7586449,86.5789576 C95.7586449,59.7331463 76.8120686,37.9703163 53.4402823,37.9703163 C41.8020725,37.9703163 31.2611552,43.3667136 23.6105719,52.099946 C15.8972976,60.9047409 11.1219197,73.1012808 11.1219197,86.5789576 C11.1219197,113.424769 30.068496,135.187599 53.4402823,135.187599 Z" id="Oval-3" fill="#FDF5F5"></path>
                        <path d="M51.946693,135.187599 C77.9033592,135.187599 95.7586449,113.424769 95.7586449,86.5789576 C95.7586449,59.7331463 77.9033592,37.9703163 51.946693,37.9703163" id="Oval-2" fill="#DADADA" opacity="0.580573694"></path>
                    </g>
                    <g id="hands" transform="translate(7.379747, 83.047711)">
                        <path d="M16.0096797,3.55271368e-15 C16.0096797,3.55271368e-15 8.66121566,1.4173099 4.04593646,6.79833551 C0.477058576,10.9593456 -0.924510631,18.5306028 0.625457335,23.1228988 C4.17984661,33.6539603 21.6606787,54.9637049 21.6606787,54.9637049 C21.6606787,54.9637049 20.8004122,41.6776014 29.9855627,41.6776014 C29.9855627,41.6776014 22.4836414,29.8922722 20.2136459,23.1228988 C17.8250138,15.9997384 16.0096797,3.55271368e-15 16.0096797,3.55271368e-15 Z" id="Path-23" fill="#787878"></path>
                        <ellipse id="Oval-4" fill="#787878" transform="translate(30.167529, 50.824342) rotate(44.000000) translate(-30.167529, -50.824342) " cx="30.1675287" cy="50.8243417" rx="11.4902706" ry="9.30051484"></ellipse>
                        <g id="left-hand" transform="translate(67.424051, 32.817241) scale(-1, 1) translate(-67.424051, -32.817241) translate(44.949367, 0.000000)"></g>
                        <g id="right-hand" transform="translate(67.398734, 33.000000) scale(-1, 1) translate(-67.398734, -33.000000) translate(44.898734, 0.000000)" fill="#434343">
                            <path d="M16.0096797,3.55271368e-15 C16.0096797,3.55271368e-15 8.66121566,1.4173099 4.04593646,6.79833551 C0.477058576,10.9593456 -0.924510631,18.5306028 0.625457335,23.1228988 C4.17984661,33.6539603 21.6606787,54.9637049 21.6606787,54.9637049 C21.6606787,54.9637049 20.8004122,41.6776014 29.9855627,41.6776014 C29.9855627,41.6776014 22.4836414,29.8922722 20.2136459,23.1228988 C17.8250138,15.9997384 16.0096797,3.55271368e-15 16.0096797,3.55271368e-15 Z" id="Path-23"></path>
                            <ellipse id="Oval-4" transform="translate(30.167529, 50.824342) rotate(44.000000) translate(-30.167529, -50.824342) " cx="30.1675287" cy="50.8243417" rx="11.4902706" ry="9.30051484"></ellipse>
                        </g>
                    </g>
                    <g id="head" transform="translate(10.734177, 0.000000)">
                        <path d="M57.6207099,14.0289231 C58.1301048,8.68857404 62.8848719,4.57830229 68.2380046,4.84823424 L69.3803909,4.90583912 C74.7347659,5.17583371 79.5881096,9.71185773 80.2200843,15.0326765 L80.3315656,15.9712765 L80.3387442,16.246656 C80.4539387,20.665646 76.9581475,24.2479452 72.5373991,24.2479452 L65.747119,24.2479452 C61.3233605,24.2479452 57.6122837,20.6710581 57.4891337,16.2535246 C57.4891337,16.2535246 57.4513018,16.5132653 57.4888284,15.5871048 C57.5166171,14.9012766 57.6207099,14.0289231 57.6207099,14.0289231 Z" id="Rectangle-3" fill="#424242" transform="translate(68.906870, 14.541805) scale(-1, 1) rotate(-34.000000) translate(-68.906870, -14.541805) "></path>
                        <path d="M58.8062814,17.1278709 C59.1872163,13.134259 62.7335427,10.0600489 66.7460909,10.2623818 L67.6003885,10.3054598 C71.6044893,10.5073668 75.2325546,13.8880817 75.706512,17.8784963 L75.7898797,18.5803987 L75.7898797,18.5803987 C75.8789891,21.9987354 72.7026275,24.7698448 68.6924346,24.7698448 L66.1521836,24.7698448 C62.1432635,24.7698448 58.78127,21.5211792 58.707658,18.2931081 C58.707658,18.2931081 58.6795948,18.985708 58.707658,18.2931081 C58.7284389,17.780233 58.8062814,17.1278709 58.8062814,17.1278709 Z" id="Rectangle-3" fill="#787878" transform="translate(67.243448, 17.511393) scale(-1, 1) rotate(-34.000000) translate(-67.243448, -17.511393) "></path>
                        <path d="M3.88606886,14.0289231 C4.39546372,8.68857404 9.1502308,4.57830229 14.5033635,4.84823424 L15.6457498,4.90583912 C21.0001248,5.17583371 25.8534685,9.71185773 26.4854433,15.0326765 L26.5969245,15.9712765 L26.6041031,16.246656 C26.7192976,20.665646 23.2235064,24.2479452 18.802758,24.2479452 L12.0124779,24.2479452 C7.58871943,24.2479452 3.87764262,20.6710581 3.75449259,16.2535246 C3.75449259,16.2535246 3.71666071,16.5132653 3.75418733,15.5871048 C3.78197606,14.9012766 3.88606886,14.0289231 3.88606886,14.0289231 Z" id="Rectangle-3" fill="#434343" transform="translate(15.172229, 14.541805) rotate(-34.000000) translate(-15.172229, -14.541805) "></path>
                        <path d="M9.1401352,17.1278709 C9.52107011,13.134259 13.0673965,10.0600489 17.0799447,10.2623818 L17.9342423,10.3054598 C21.9383431,10.5073668 25.5664084,13.8880817 26.0403658,17.8784963 L26.1237335,18.5803987 L26.1237335,18.5803987 C26.2128429,21.9987354 23.0364813,24.7698448 19.0262884,24.7698448 L16.4860374,24.7698448 C12.4771173,24.7698448 9.11512377,21.5211792 9.04151176,18.2931081 C9.04151176,18.2931081 9.01344865,18.985708 9.04151176,18.2931081 C9.06229268,17.780233 9.1401352,17.1278709 9.1401352,17.1278709 Z" id="Rectangle-3" fill="#787878" transform="translate(17.577301, 17.511393) rotate(-34.000000) translate(-17.577301, -17.511393) "></path>
                        <g id="Group" transform="translate(8.050633, 9.376354)">
                            <path d="M34.2151899,65.6344812 C41.5796711,65.6344812 46.4281364,63.8234989 52.2576211,60.2765644 C56.1208366,57.9260011 61.6948399,54.7528483 64.104427,51.0561211 C67.3884546,46.0178496 68.4303797,39.1970575 68.4303797,32.8172406 C68.4303797,27.3344718 67.5292454,22.3323965 65.0506308,17.7894304 C59.3356562,7.31465351 47.3953936,0 34.2151899,0 C20.9112753,0 8.56260253,7.15363859 2.90281316,17.7894304 C0.523587739,22.2604354 0,27.4531281 0,32.8172406 C0,39.4430564 0.168512149,45.8977291 3.68938278,51.0561211 C6.42213298,55.0598459 11.1080979,57.6588253 15.7635746,60.126286 C21.5174004,63.1758853 27.5884692,65.6344812 34.2151899,65.6344812 Z" id="Oval-9" fill="#FDF5F5"></path>
                            <path d="M34.2151899,1.42108547e-14 C47.3953936,1.10037436e-13 59.3356562,7.31465351 65.0506308,17.7894304 C67.5292454,22.3323965 68.4303797,27.3344718 68.4303797,32.8172406 C68.4303797,39.1970575 67.3884546,46.0178496 64.104427,51.0561211 C61.6948399,54.7528483 56.1208366,57.9260011 52.2576211,60.2765644 C46.4281364,63.8234989 41.5796711,65.6344812 34.2151899,65.6344812 L34.2151899,-1.13020704e-13 Z" id="Combined-Shape" fill="#ECECEC"></path>
                        </g>
                        <path d="M42.2300967,71.8092983 C42.985213,71.8092983 52.3291139,72.0383642 52.3291139,68.1015425 C52.3291139,64.1647207 52.3291139,59.3829533 52.3291139,56.5896372 C52.3291139,48.0822369 45.7979424,40.1770197 41.6472902,40.1770197 C37.4966379,40.1770197 32.2025316,47.8012646 32.2025316,56.3086649 C32.2025316,59.4574678 32.2025316,65.776727 32.2025316,68.1015425 C32.2025316,70.4263579 39.6157053,71.8092983 42.2300967,71.8092983 Z" id="Oval-11" fill="#FFFFFF"></path>
                        <path d="M33.0100556,71.3049076 C33.0100556,71.3049076 39.6085927,73.4780977 42.7914551,69.2490898" id="Path-4" stroke="#979797" transform="translate(37.900755, 70.556135) scale(-1, 1) translate(-37.900755, -70.556135) "></path>
                        <path d="M42.4024607,71.3049076 C42.4024607,71.3049076 49.0009977,73.4780977 52.1838602,69.2490898" id="Path-4" stroke="#979797"></path>
                        <path d="M42.2658228,66.3042208 L42.2658228,70.9923981" id="Line" stroke="#979797" stroke-linecap="square"></path>
                        <path d="M35.7587813,64.1772951 C34.0310532,62.9525319 34.2341997,61.3231629 36.2005608,60.5689383 C36.2005608,60.5689383 36.6716085,60.3328922 37.3759872,60.1703851 C38.8436635,59.8317778 41.1432969,59.789354 42.2658228,59.789354 C43.3883487,59.789354 45.5017499,59.967443 46.6138125,60.1703851 C47.3794679,60.3101108 47.653292,60.5089069 47.653292,60.5089069 C49.6116493,61.3101385 49.8424221,62.9970534 48.1498318,64.2911919 L45.3152026,66.4585223 C43.6310766,67.746189 40.8647573,67.7968526 39.1374943,66.5724191 L35.7587813,64.1772951 Z" id="Triangle" fill="#525252"></path>
                        <g id="Group-2" transform="translate(16.101266, 31.477761)" fill="#787878">
                            <path d="M10.7081842,26.0470331 C15.154426,26.0470331 18.443367,21.1103988 18.443367,14.4524334 C18.443367,7.7944679 16.1017985,2.32950165 11.6555567,2.32950165 C7.20931491,2.32950165 5.03280765,6.02220438 5.03280765,12.6801698 C5.03280765,16.5815679 3.90874473,22.0677977 5.55880136,24.1593966 C6.72466353,25.6372344 8.86732675,26.0470331 10.7081842,26.0470331 Z" id="Oval-10" transform="translate(11.551158, 14.188267) scale(-1, 1) rotate(-25.000000) translate(-11.551158, -14.188267) "></path>
                            <path d="M39.5562855,26.0470331 C44.0025272,26.0470331 47.2914683,21.1103988 47.2914683,14.4524334 C47.2914683,7.7944679 44.9498997,2.32950165 40.503658,2.32950165 C36.0574162,2.32950165 33.8809089,6.02220438 33.8809089,12.6801698 C33.8809089,16.5815679 32.756846,22.0677977 34.4069026,24.1593966 C35.5727648,25.6372344 37.715428,26.0470331 39.5562855,26.0470331 Z" id="Oval-10" transform="translate(40.399259, 14.188267) rotate(-25.000000) translate(-40.399259, -14.188267) "></path>
                        </g>
                        <g id="Group-4" transform="translate(53.927721, 43.146589) scale(-1, 1) rotate(9.000000) translate(-53.927721, -43.146589) translate(49.427721, 38.146589)">
                            <path d="M-2.55795385e-13,9.3314102 C-2.55795385e-13,9.3314102 0.295993185,2.57887252 3.4879727,0.520496013 C6.67995222,-1.53788049 8.70325885,4.93912287 8.70325885,4.93912287 L-2.55795385e-13,9.3314102 Z" id="Path-3" fill="#D8D8D8"></path>
                            <path d="M6.77801325,5.90117789 L2.07257779,8.27785599 C2.07257779,8.27785599 2.43135168,3.95900696 4.17126611,2.78417469 C5.91118053,1.60934243 6.73807894,5.64947348 6.77801325,5.90117789 Z" id="Path-3" fill="#181818"></path>
                        </g>
                        <g id="Group-4" transform="translate(29.953186, 43.146589) rotate(9.000000) translate(-29.953186, -43.146589) translate(25.453186, 38.146589)">
                            <path d="M5.41788836e-13,9.3314102 C5.41788836e-13,9.3314102 0.295993185,2.57887252 3.4879727,0.520496013 C6.67995222,-1.53788049 8.70325885,4.93912287 8.70325885,4.93912287 L5.41788836e-13,9.3314102 Z" id="Path-3" fill="#D8D8D8"></path>
                            <path d="M6.77801325,5.90117789 L2.07257779,8.27785599 C2.07257779,8.27785599 2.43135168,3.95900696 4.17126611,2.78417469 C5.91118053,1.60934243 6.73807894,5.64947348 6.77801325,5.90117789 Z" id="Path-3" fill="#181818"></path>
                        </g>
                    </g>
                </g>
            </g>
        </g>
    </g>
</svg>
