<svg viewBox="0 0 320 782" xmlns="http://www.w3.org/2000/svg"><title>kitty-GIF</title><defs><filter x="-50%" y="-50%" width="200%" height="200%" filterUnits="objectBoundingBox" id="filter-1"><feOffset dy="1" in="SourceAlpha" result="shadowOffsetOuter1"/><feGaussianBlur stdDeviation="1.5" in="shadowOffsetOuter1" result="shadowBlurOuter1"/><feColorMatrix values="0 0 0 0 0   0 0 0 0 0   0 0 0 0 0  0 0 0 0.133 0" in="shadowBlurOuter1" result="shadowMatrixOuter1"/><feOffset dy="2" in="SourceAlpha" result="shadowOffsetOuter2"/><feGaussianBlur stdDeviation="1" in="shadowOffsetOuter2" result="shadowBlurOuter2"/><feColorMatrix values="0 0 0 0 0   0 0 0 0 0   0 0 0 0 0  0 0 0 0.14 0" in="shadowBlurOuter2" result="shadowMatrixOuter2"/><feMerge><feMergeNode in="shadowMatrixOuter1"/><feMergeNode in="shadowMatrixOuter2"/><feMergeNode in="SourceGraphic"/></feMerge></filter></defs><g id="kitty-gif" fill="none" fill-rule="evenodd"><g id="Mobile-Portrait"><path d="M-2.223 367.274164l333.32607 5.188026-11.99536 585.54701-7.385303 360.50941s13.601148-136.29507-55.02427-170.98633c-53.974857-27.28517-102.588186 102.2335-217.333442 17.20966-69.11672-51.21405-48.089592-138.48085-48.089592-138.48085L-2.223 367.274164z" id="Rectangle-2" fill="#FFFFFE" filter="url(#filter-1)" transform="rotate(1 -96426.674 0)"/><g id="KITTY-gif" transform="translate(-58 -62)"><path d="M.28203.040476L131.76937 90.94687 29.61636 157.47171.28203.040477zM420.266257 7.443192l-131.48734 90.906395 102.15301 66.52484 29.33433-157.431235z" id="Triangle-1" fill="#808FBE"/><ellipse id="Oval-14" fill="#287D98" cx="120.837728" cy="782.927586" rx="35.064644" ry="61.072414"/><ellipse id="Oval-14" fill="#1C6C86" cx="316.461529" cy="782.927586" rx="35.064644" ry="61.072414"/><path d="M213.113106 788.479624c107.020796 0 193.778294-113.51509 193.778294-253.543052 0-140.02796-86.757498-253.54305-193.778294-253.54305-53.292054 0-101.55954 28.14765-136.592014 73.700257-35.31954 45.925878-57.18628 109.543125-57.18628 179.842792 0 140.02796 86.757497 253.543052 193.778294 253.543052z" id="Oval-3" fill="#287D98"/><path d="M34.114876 51.672476l84.57473 53.59221L52.98318 144.48319 34.114876 51.672476zM393.457094 51.672476l-84.57473 53.59221 65.706426 39.218506 18.868304-92.810716z" id="Triangle-1" fill="#494A97"/><path d="M114.68103 378.39803c28.4277 11.341044 60.627847 17.7376 94.74106 17.7376 115.174763 0 208.542355-72.9148 208.542355-162.85977 0-89.944966-93.367592-162.85977-208.542354-162.85977C94.24733 70.41609.879737 143.330895.879737 233.27586c0 63.30448 46.249954 118.17301 113.801294 145.12217z" id="Oval-2" fill="#297C97"/><path d="M211.267598 396.13563c120.256 0 202.97869-72.9148 202.97869-162.85977 0-89.944966-82.72269-162.85977-202.97869-162.85977" id="Oval-2" fill="#1B6C86"/><path d="M211.267598 788.479624c118.085316 0 199.314817-109.83884 199.314817-245.331917 0-135.493076-81.2295-245.331916-199.314817-245.331916" id="Oval-2" fill="#1C6C86"/><path d="M211.267598 70.41609v198.022676" id="Path-2" stroke="#091A3E"/><g id="moustache" stroke="#808FBE" stroke-linecap="square"><path d="M246.332242 224.022465l114.42147-22.20815M246.332242 227.723823l127.340022-3.701358M246.332242 231.42518l119.957992 12.954756" id="Line"/><g id="Line-+-Line-+-Line"><path d="M176.202955 224.022465l-114.421468-22.20815M176.202955 227.723823l-127.34002-3.701358M176.202955 231.42518l-119.95799 12.954756" id="Line"/></g></g><g id="collar" transform="translate(74 351)"><path d="M2.545546 2h273.13512" id="Line" stroke="#FFF" stroke-width="4" stroke-linecap="square"/><ellipse id="Oval-12" fill="#E4CF83" cx="137.267598" cy="30.330198" rx="18.455076" ry="18.506792"/></g><path d="M211.267598 214.76907c-18.346422 0-33.219136 1.54047-33.219136 11.659278 0 10.11881 14.872714 21.652947 33.219136 21.652947 18.346423 0 33.219136-11.534138 33.219136-21.652947 0-10.11881-14.872713-11.65928-33.219136-11.65928z" id="Oval-4" stroke="#091A3E" fill="#081839"/><path d="M266.632826 266.588087c0 18.397834-12.393928 33.312226-27.682614 33.312226-15.288685 0-27.682613-14.914392-27.682613-33.312226" id="Oval-5" stroke="#091A3E"/><path d="M211.2676 266.588087c0 18.397834-12.39393 33.312226-27.682615 33.312226s-27.682613-14.914392-27.682613-33.312226" id="Oval-5" stroke="#091A3E"/><path d="M216.80412 769.972832c86.635884 0 156.868144-80.372 156.868144-179.515884s-70.23226-179.515883-156.868143-179.515883c-43.141185 0-82.214864 19.92936-110.574487 52.181935-28.59201 32.516863-46.293655 77.559732-46.293655 127.333948 0 99.143885 70.23226 179.515884 156.868143 179.515884z" id="Oval-3" fill="#FDF1DB"/><path d="M211.267598 769.972832c96.217665 0 162.404666-80.372 162.404666-179.515884s-66.187-179.515883-162.404666-179.515883" id="Oval-2" opacity=".580574" fill="#FDF1DB"/><path d="M315.88354 160.640483c0 10.996918-15.698976 19.91168-35.064644 19.91168s-35.064643-8.914762-35.064643-19.91168M177.936925 160.02156c0 10.996917-15.698976 19.91168-35.064644 19.91168-19.365667 0-35.064643-8.914763-35.064643-19.91168" id="Oval-5" stroke="#091A3E"/></g></g></g></svg>