<svg width="203px" height="43px" viewBox="0 0 203 43" version="1.1" xmlns="http://www.w3.org/2000/svg" xmlns:xlink="http://www.w3.org/1999/xlink" xmlns:sketch="http://www.bohemiancoding.com/sketch/ns">
    <title>banner welldone</title>
    <g id="app" stroke="none" stroke-width="1" fill="none" fill-rule="evenodd" sketch:type="MSPage">
        <g id="Rectangle-24-+-Path-272-+-Path-272" sketch:type="MSLayerGroup">
            <path d="M26.1935484,9.12121212 L1.30967742,1.3030303 L11.7870968,19.5454545 L0,33.8787879 L35.3612903,43 L20.9548387,29.969697" id="Path-272" fill="#A5E2DA" sketch:type="MSShapeGroup"></path>
            <path d="M20,29.8235294 L35.3,43 L37,29 L20,29.8235294 Z" id="Path-276" fill="#12214B" sketch:type="MSShapeGroup"></path>
            <path d="M193.832258,9.12121212 L168.948387,1.3030303 L179.425806,19.5454545 L167.63871,33.8787879 L203,43 L188.593548,29.969697" id="Path-272" fill="#A5E2DA" sketch:type="MSShapeGroup" transform="translate(185.319355, 22.151515) scale(-1, 1) translate(-185.319355, -22.151515) "></path>
            <path d="M166,29.8235294 L181.3,43 L183,29 L166,29.8235294 Z" id="Path-276" fill="#12214B" sketch:type="MSShapeGroup" transform="translate(174.500000, 36.000000) scale(-1, 1) translate(-174.500000, -36.000000) "></path>
            <path d="M27.5032258,0 C27.5032258,0 74.9149007,7.81818182 100.845161,7.81818182 C127.738557,7.81818182 175.496774,0 175.496774,0 L183.354839,29.969697 C183.354839,29.969697 170.401725,33.6017797 154.541935,36.4848485 C138.154443,39.4638458 118.627138,41.6969697 104.774194,41.6969697 C91.8167314,41.6969697 70.9560694,41.8656915 53.6967742,39.0909091 C34.579122,36.017358 19.6451613,29.969697 19.6451613,29.969697 L27.5032258,0 Z" id="Rectangle-24" fill="#808FBE" sketch:type="MSShapeGroup"></path>
            <path d="M46.1113131,22.1479137 C47.687306,16.4571042 48.605118,12.7276784 48.8647766,10.9595242 L48.9477818,10.3942974 C48.9789976,10.1817324 49.0888594,9.98812275 49.2773706,9.81346267 C49.4658817,9.63880259 49.6615859,9.56637208 49.8644888,9.59616897 C50.6664385,9.71393761 51.024841,10.062678 50.9397071,10.6424007 L50.8737286,11.0916836 C50.5913676,13.0144305 50.5754566,15.8448603 50.825995,19.583058 C50.9451155,21.2587808 51.0104519,22.5613805 51.022006,23.4908962 C51.2886242,22.414693 51.7138487,20.8633499 52.2976925,18.8368204 C53.5676084,14.4236982 54.3813354,10.9997708 54.738898,8.56493551 C54.8027485,8.1301435 54.921681,7.82435786 55.0956991,7.64756943 C55.2697172,7.470781 55.5209773,7.40650904 55.8494868,7.45475162 C56.1779963,7.50299419 56.4251011,7.61824438 56.5908086,7.80050563 C56.7565161,7.98276689 56.8216326,8.19466989 56.7861601,8.43622101 C56.7506877,8.67777214 56.6166035,8.88509761 56.3839037,9.05820367 C55.8460052,10.6374413 55.2272895,13.0190828 54.527738,16.2031996 C53.8281864,19.3873164 53.2781344,21.6038441 52.8775652,22.8528493 C52.4769961,24.1018544 52.2074259,24.9629291 52.0688466,25.436099 C51.5764206,27.0417552 51.2401125,28.458102 51.0599123,29.6851817 C51.0159264,29.984705 50.9048653,30.2200872 50.7267256,30.3913351 C50.5485859,30.5625831 50.3266663,30.6286962 50.0609601,30.5896765 C49.7952538,30.5506568 49.5988571,30.3589559 49.471764,30.0145683 C49.3446708,29.6701806 49.2714802,29.2276082 49.2521897,28.6868378 C49.2328993,28.1460673 49.2318012,27.6326522 49.2488955,27.1465771 C49.2659898,26.6605019 49.2955834,26.1565291 49.3376774,25.6346435 C49.3797713,25.112758 49.4060881,24.5638878 49.4166283,23.9880164 C49.4271686,23.412145 49.377896,22.1513854 49.268809,20.2056997 C49.159722,18.2600139 49.0988957,17.1283386 49.0863282,16.8106398 C47.5458078,22.2598981 46.5698218,26.3854619 46.158341,29.1874549 C46.1271252,29.4000199 46.0097298,29.5777178 45.8061512,29.7205539 C45.6025726,29.8633901 45.394504,29.9191994 45.181939,29.8879836 C44.4572856,29.7815662 44.2056369,28.9747301 44.4269852,27.4674511 C44.5631995,26.5398948 44.6526557,23.0910358 44.6953564,17.1207707 C44.7380572,11.1505055 44.6887334,7.8737365 44.5473836,7.29036526 C44.8681229,6.85381645 45.2458828,6.66747007 45.6806749,6.73132054 C46.2507355,6.8150356 46.5521126,7.61930421 46.5848153,9.14415049 C46.5985991,9.85684451 46.5433643,10.7370571 46.4191093,11.7848146 C46.2948543,12.8325722 46.2212585,13.5521641 46.1983197,13.943612 C46.1753809,14.33506 46.1523411,14.9288276 46.1291997,15.7249328 C46.1060583,16.521038 46.0968188,17.2056647 46.1014811,17.7788333 C46.1074273,19.0826012 46.1107046,20.5389468 46.1113131,22.1479137 L46.1113131,22.1479137 Z M64.625281,30.8605144 L65.8118007,30.933818 C66.5677355,31.0275399 66.9156586,31.3166834 66.8555804,31.801257 C66.818332,32.1016926 66.6604643,32.3035266 66.3819726,32.406765 C66.103481,32.5100034 65.7994847,32.5411955 65.4699747,32.5003424 L62.6643075,32.1524915 C62.4123293,32.1212508 62.2075112,32.0072945 62.0498471,31.8106191 C61.892183,31.6139437 61.8229053,31.3790277 61.8420118,31.1058641 C61.8611184,30.8327006 61.9225551,30.4959072 62.0263239,30.095474 C62.1300927,29.6950408 62.1969956,29.3736856 62.2270347,29.1313988 L62.5538754,25.3046459 L63.8351924,16.6366717 L63.9870881,14.1019216 C64.1613148,12.6966581 64.6651539,12.0457034 65.4986205,12.1490379 C65.7312159,12.1778754 65.9402591,12.2775951 66.1257566,12.4482 C66.2020868,12.467504 66.3865421,12.5075936 66.6791281,12.5684699 C66.9717141,12.6293463 67.2270521,12.6929845 67.4451497,12.7593863 C67.6632473,12.8257882 67.8989219,12.9091291 68.1521807,13.0094116 C68.6950611,13.2341659 68.9430671,13.5355222 68.8962061,13.9134896 C68.8457404,14.3205314 68.5165512,14.5946075 67.9086285,14.7357261 C67.0360801,14.312652 66.3084324,14.0305513 65.7256636,13.8894156 C65.7018692,14.3194451 65.6635382,14.7476658 65.6106694,15.1740906 L64.9499483,19.4317873 C64.9475452,19.4511703 64.9573944,19.6098362 64.9794964,19.9077897 C64.9794964,19.9077897 65.3350321,19.9371091 66.0461143,19.9957488 C67.00557,20.1147036 67.4516474,20.4455373 67.3843598,20.9882597 C67.3483129,21.2790039 67.2316729,21.5253105 67.0344361,21.727187 C66.8371994,21.9290635 66.5835213,22.0107755 66.2733942,21.9723255 C65.9632671,21.9338754 65.7027239,21.8130102 65.4917567,21.6097262 L64.7358256,21.5160047 C64.7002525,22.2791489 64.6404121,22.9999117 64.5563027,23.6783148 L63.7568017,29.055371 C63.6186219,30.1698903 63.9081121,30.7715987 64.625281,30.8605144 L64.625281,30.8605144 Z M78.5925127,16.5897055 L77.9396354,23.7676422 C77.7939765,24.0373112 77.6800206,24.5704124 77.5977643,25.3669618 L76.9906707,30.1050549 C76.84923,31.4747312 77.1136392,32.1941665 77.7839064,32.2633822 L79.0269514,32.3475672 C80.0954933,32.457911 80.5996629,32.8044982 80.5394753,33.3873392 C80.5174065,33.6010476 80.406818,33.7687962 80.2077064,33.8905901 C80.0085947,34.0123839 79.7909693,34.0758134 79.5548235,34.0808805 C78.8503472,33.7725096 77.9735653,33.5641585 76.9244515,33.455821 C76.5848296,33.6072841 76.2668846,33.6677172 75.9706071,33.6371218 C75.6743296,33.6065265 75.4541578,33.480707 75.3100852,33.2596595 C75.1660125,33.038612 75.1065162,32.8066665 75.1315943,32.5638161 L76.7997965,19.2614882 L76.8223667,19.0429239 C76.8282826,18.4152081 76.8954396,17.4796671 77.0238397,16.2362729 C77.2184461,14.3517536 77.6605903,13.4451186 78.3502855,13.5163405 C78.5542798,13.5374061 78.7240347,13.6285669 78.859555,13.7898256 C78.9950754,13.9510843 79.0523019,14.1337081 79.0312363,14.3377025 L78.5925127,16.5897055 Z M91.5932155,17.645014 L91.1644383,24.8398159 C91.0272576,25.1138949 90.9299773,25.6502897 90.8725946,26.4490164 L90.4135132,31.2037333 C90.3148429,32.5771535 90.6015531,33.2879956 91.2736523,33.3362811 L92.5187177,33.3816714 C93.5901802,33.4586482 94.1049101,33.7893487 94.0629228,34.3737829 C94.0475274,34.5880754 93.9422224,34.7591902 93.7470047,34.8871325 C93.5517869,35.0150747 93.3362448,35.0852582 93.1003718,35.0976849 C92.386624,34.8114271 91.5037727,34.6305123 90.4517913,34.554935 C90.1170565,34.7169128 89.8011502,34.7872288 89.5040629,34.7658853 C89.2069755,34.7445417 88.9829881,34.6256475 88.832094,34.4091991 C88.6812,34.1927508 88.6145013,33.9627729 88.631996,33.7192587 L89.8846675,20.3713885 L89.9004127,20.1522268 C89.8867558,19.5246316 89.9247132,18.5874517 90.0142863,17.3406589 C90.1500454,15.4509886 90.5637089,14.5310097 91.2552893,14.5806947 C91.4598412,14.5953903 91.6323556,14.6812145 91.7728376,14.8381697 C91.9133196,14.995125 91.9762118,15.1758759 91.9615163,15.3804278 L91.5932155,17.645014 Z M111.754373,20.1629695 L111.691106,16.8811524 C111.648394,15.9543971 111.573811,15.2906297 111.467355,14.8898304 C111.360899,14.489031 111.233394,14.1087596 111.084837,13.7490048 C110.93628,13.3892499 110.85762,13.1142622 110.848853,12.9240335 C110.840085,12.7338048 110.8718,12.5734849 110.943998,12.4430689 C111.016196,12.312653 111.128649,12.2072674 111.281363,12.1269089 C111.434076,12.0465504 111.582583,11.9810507 111.72689,11.9304078 C111.871196,11.8797649 112.055084,11.8395183 112.278557,11.8096669 C112.64836,11.7730715 112.916177,11.7509525 113.082018,11.7433093 L113.374676,11.7298214 C114.194123,11.6920551 115.087442,12.0907994 116.054661,12.9260662 C117.225529,13.937692 117.960095,15.0280654 118.258379,16.197219 C118.43663,16.8831027 118.5697,17.6492654 118.657592,18.4957301 C118.745483,19.3421949 118.805703,19.9064213 118.838252,20.1884263 C118.926457,20.8295798 119.02473,21.2649658 119.133074,21.4945975 L119.197141,22.8847235 C119.098375,23.0750201 119.058659,23.3799032 119.077992,23.7993819 C119.14768,25.3114564 118.877577,26.9809186 118.267676,28.8078188 C117.657774,30.634719 116.862262,32.0400073 115.881115,33.0237258 C115.152122,33.7514222 114.656419,34.1848554 114.393993,34.3240385 C114.131566,34.4632217 113.871099,34.5387693 113.612583,34.5506836 C113.354067,34.562598 113.069672,34.490166 112.759389,34.3333855 C112.449106,34.176605 112.286099,33.9275004 112.270363,33.5860643 C112.688221,33.1073323 112.853537,31.9217182 112.766315,30.0291863 C112.71506,28.91708 112.54618,27.2678494 112.259669,25.081445 C111.973159,22.8950406 111.804728,21.2555652 111.754373,20.1629695 L111.754373,20.1629695 Z M114.197642,29.904564 L114.329823,32.7726134 C115.830564,31.6085314 116.824525,29.5244484 117.311738,26.5203018 C117.553771,24.9840849 117.637245,23.4014311 117.562162,21.7722928 C117.303642,16.1629845 115.78915,13.4222145 113.018639,13.5499006 L113.019988,13.5791664 C113.105412,15.432677 113.300146,18.1731721 113.604196,21.800734 C113.908246,25.4282959 114.106059,28.1295456 114.197642,29.904564 L114.197642,29.904564 Z M128.287429,18.1331107 L128.492314,19.879495 L128.740898,22.7398446 C128.763276,22.9829586 128.794545,23.2693814 128.834704,23.5991213 C128.874864,23.9288613 128.927076,24.36291 128.991343,24.9012805 C129.055611,25.4396509 129.134016,25.9718084 129.226562,26.4977689 C129.319108,27.0237294 129.421631,27.5781839 129.534134,28.161149 C129.646638,28.7441142 129.77456,29.2815204 129.917906,29.7733839 C130.061251,30.2652475 130.210067,30.7100175 130.364358,31.1077074 C130.708379,31.9684737 131.094324,32.3791575 131.522205,32.3397712 C132.095954,32.2869578 132.483873,31.7069719 132.685974,30.5997961 C132.985605,28.9540668 133.027555,26.9594224 132.811826,24.6158029 L132.572275,21.5339664 C132.373553,19.3751136 132.144919,17.9300409 131.886364,17.1987049 C131.627809,16.4673689 131.398421,15.9196889 131.198192,15.5556484 C130.796841,14.8178429 130.260676,14.4798276 129.589681,14.5415925 C129.570232,14.5433828 129.550783,14.545173 129.531334,14.5469633 C128.490806,14.6427436 128.076175,15.8381141 128.287429,18.1331107 L128.287429,18.1331107 Z M134.477586,24.653705 C135.004825,30.381472 134.096649,33.3531756 131.753029,33.568905 C129.594177,33.7676267 128.133746,31.1659582 127.371693,25.7638215 C127.304801,25.25021 127.247635,24.7357111 127.200192,24.2203093 L127.017767,22.3983058 L126.964059,21.814835 C126.576462,17.6040996 126.954515,14.9459776 128.09823,13.8403892 C128.377313,13.5695257 128.700721,13.4073641 129.068464,13.3538996 C129.359428,13.4251861 129.712925,13.4833598 130.128965,13.5284226 C130.545005,13.5734854 130.854295,13.630825 131.056842,13.7004432 C131.431868,13.8326405 131.860454,14.2271407 132.342613,14.8839558 C132.824772,15.5407708 133.219007,16.4410322 133.52533,17.5847669 C133.831653,18.7285017 134.03852,19.8838254 134.145937,21.0507728 L134.477586,24.653705 Z M144.210525,19.6810851 L145.297595,27.370284 L145.697032,30.7451658 C145.728023,31.0070114 145.68625,31.2356719 145.571713,31.431154 C145.457176,31.6266361 145.278685,31.7387231 145.036235,31.7674184 C144.38647,31.8443219 143.989855,31.2766581 143.846379,30.06441 L142.545116,19.5684318 L142.061985,13.9908537 C141.903587,12.6525318 142.188058,11.9403385 142.915406,11.8542525 C143.351816,11.8026009 143.706595,12.099873 143.979753,12.7460777 C144.402808,13.994073 145.093372,15.7782829 146.051466,18.0987612 C147.00956,20.4192394 147.688704,22.1900504 148.08892,23.4112473 C148.345493,24.0004119 148.690123,24.8766144 149.122817,26.0398812 C149.555511,27.2031479 149.889869,28.0756493 150.125899,28.6574115 C149.693854,24.3423237 149.115131,19.120295 148.389713,12.9911685 L148.251378,12.1962539 C148.219239,11.9247104 148.244615,11.7029075 148.327504,11.5308387 C148.410394,11.3587699 148.573062,11.2583894 148.815511,11.229694 C149.057961,11.2009987 149.263653,11.2356559 149.432595,11.3336667 C149.770478,11.5296884 149.964669,11.8410502 150.015172,12.2677615 C150.337708,14.9928952 150.674479,18.5029976 151.025497,22.798174 C151.376515,27.0933503 151.459985,29.7926521 151.275909,30.8961605 C151.238265,30.9104497 151.158989,30.9468751 151.038081,31.0054376 C150.917172,31.0640001 150.828199,31.1015732 150.771159,31.118158 C150.233295,31.3096572 149.881304,31.3267333 149.715173,31.1693867 C149.549043,31.0120402 149.417244,30.7916309 149.319773,30.5081521 C149.222301,30.2246733 149.115995,29.94962 149.000849,29.6829838 C148.885703,29.4163477 148.42141,28.1314596 147.607954,25.828281 C145.442011,19.7418093 144.133933,16.2089951 143.683681,15.2297323 L144.210525,19.6810851 Z M163.626649,27.8956104 L164.791775,27.659636 C165.546237,27.5547172 165.95709,27.7440698 166.024346,28.2276995 C166.066044,28.5275499 165.965731,28.7633387 165.723402,28.935073 C165.481074,29.1068074 165.19548,29.2155398 164.866612,29.2612736 L162.06641,29.6506817 C161.814923,29.6856547 161.587605,29.6285309 161.38445,29.4793088 C161.181295,29.3300868 161.053633,29.1210714 161.001461,28.8522564 C160.949289,28.5834415 160.921556,28.2422156 160.91826,27.8285686 C160.914965,27.4149216 160.896504,27.0871956 160.862876,26.8453807 L160.189161,23.0642472 L159.185725,14.3597273 L158.677073,11.8718962 C158.482031,10.4693702 158.800427,9.71027877 159.63227,9.5945991 C159.864413,9.5623164 160.092131,9.60459518 160.315432,9.72143672 C160.394158,9.72034841 160.582707,9.71138217 160.881083,9.69453772 C161.17946,9.67769328 161.44257,9.67314751 161.67042,9.6809003 C161.89827,9.68865308 162.147479,9.70822424 162.418055,9.73961436 C163.000587,9.81635932 163.318078,10.043344 163.370538,10.4205751 C163.427032,10.826824 163.179902,11.1766951 162.629139,11.4701989 C161.676871,11.2871165 160.901027,11.2027484 160.301583,11.2170921 C160.389786,11.6386509 160.463479,12.062221 160.522664,12.4878151 L160.985276,16.7715662 C160.987966,16.7909114 161.038505,16.9416353 161.136894,17.2237424 C161.136894,17.2237424 161.487921,17.1601379 162.189985,17.0329269 C163.147571,16.8997608 163.66402,17.1040072 163.739347,17.6456725 C163.7797,17.9358502 163.730711,18.2039397 163.592378,18.4499488 C163.454045,18.6959579 163.230121,18.8404821 162.920598,18.8835257 C162.611075,18.9265693 162.32814,18.8771798 162.071786,18.7353559 L161.317328,18.8402741 C161.480282,19.5866657 161.608836,20.2983916 161.702994,20.9754731 L162.320966,26.3764032 C162.475654,27.4887514 162.910877,27.9951487 163.626649,27.8956104 L163.626649,27.8956104 Z" id="Well-Done" fill="#FFFFFF" sketch:type="MSShapeGroup"></path>
        </g>
    </g>
</svg>
