<svg viewBox="0 0 166 165" xmlns="http://www.w3.org/2000/svg"><title>head</title><g id="breathing-head" fill="none" fill-rule="evenodd"><g id="head"><path d="M.90848.015874l51.47148 35.651678L12.391572 61.75727.90848.015874zM165.313734 2.919072l-51.47148 35.651678 39.988386 26.08972L165.313734 2.91907z" id="Triangle-1" fill="#808FBE"/><path d="M14.152542 20.264917L47.25981 41.282714 21.53865 56.663432 14.15254 20.264917zM154.819132 20.264917l-33.107268 21.017797 25.72116 15.380718 7.386108-36.398515z" id="Triangle-1" fill="#494A97"/><path d="M45.69063 148.400176c11.128186 4.44773 23.73312 6.956334 37.086935 6.956334 45.085827 0 81.63511-28.595735 81.63511-63.87036 0-35.274627-36.549283-63.87036-81.63511-63.87036-45.085826 0-81.63511 28.595733-81.63511 63.87036 0 24.826756 18.104812 46.3451 44.548174 56.914026z" id="Oval-2" fill="#297C97"/><path d="M83.5 155.35651c47.074907 0 79.457182-28.595735 79.457182-63.87036 0-35.274627-32.382275-63.87036-79.457182-63.87036" id="Oval-2" fill="#1B6C86"/><path d="M83.5 27.61579v77.66055" id="Path-2" stroke="#091A3E"/><g id="Line-+-Line-+-Line" stroke="#808FBE" stroke-linecap="square"><path d="M97.226258 87.85715l44.790946-8.709593M97.226258 89.30875l49.847988-1.4516M97.226258 90.76035l46.95825 5.080596" id="Line"/><g id="Line"><path d="M69.773742 87.85715l-44.790945-8.709593M69.773742 89.30875l-49.847987-1.4516M69.773742 90.76035l-46.95825 5.080596"/></g></g><path d="M83.5 84.228154c-7.181813 0-13.003823.604142-13.003823 4.572537 0 3.968396 5.82201 8.491856 13.003823 8.491856 7.181813 0 13.003823-4.52346 13.003823-8.491855 0-3.968394-5.82201-4.572536-13.003823-4.572536z" id="Oval-4" stroke="#091A3E" fill="#081839"/><path d="M105.173038 104.55054c0 7.215266-4.851675 13.064393-10.83652 13.064393-5.984843 0-10.836518-5.849127-10.836518-13.064392M83.5 104.55054c0 7.215266-4.851675 13.064393-10.83652 13.064393-5.984843 0-10.836518-5.849127-10.836518-13.064392" id="Oval-5" stroke="#091A3E"/><path d="M51.577138 150h63.340912c3.663062-1.146003 7.195987-2.484845 10.57714-4H41c1.395175.625202 2.816192 1.220385 4.26153 1.784386 2.057384.802835 4.16405 1.54249 6.315612 2.215614z" id="Line" stroke="#FFF" stroke-linecap="square" fill="#FFF"/><ellipse id="Oval-12" fill="#E4CF83" cx="83.5" cy="157.550113" rx="7.224346" ry="7.257995"/><path d="M124.452516 64c0 4.312772-6.145455 7.808965-13.726258 7.808965C103.145456 71.808965 97 68.312772 97 64M70.452516 63c0 4.312772-6.145455 7.808965-13.726258 7.808965C49.145457 70.808965 43 67.312772 43 63" id="Oval-5" stroke="#091A3E"/></g></g></svg>