<svg viewBox="0 0 178 231" xmlns="http://www.w3.org/2000/svg"><title>belly</title><g id="belly" fill="none" fill-rule="evenodd"><g id="belly"><path d="M88.067273 230.497294c48.481542 0 87.783596-51.518674 87.783596-115.070178 0-63.551505-39.302055-115.070178-87.783597-115.070178-24.141858 0-46.007534 12.774774-61.877612 33.448764C10.18954 54.649102.28368 83.521705.28368 115.427116c0 63.551504 39.302054 115.070178 87.783595 115.070178z" id="Oval-3" fill="#287D98"/><path d="M87.23124 230.497294c53.493883 0 90.291698-49.850213 90.291698-111.343566C177.522938 58.908368 143.736196 3.966914 92 2c-1.071724-.040745-3.683116 5.810163-4.76876 5.810163" id="Oval-2" fill="#1B6C86"/><path d="M89.739342 222.09801c39.246962 0 71.06291-36.476725 71.06291-81.473045S128.986305 59.15192 89.739343 59.15192c-19.54341 0-37.244194 9.044912-50.0914 23.6827-12.95248 14.757736-20.97151 35.200382-20.97151 57.790345 0 44.99632 31.815948 81.473045 71.06291 81.473045z" id="Oval-3" fill="#FDF1DB"/><path d="M87.23124 222.09801c43.587608 0 73.571013-36.476725 73.571013-81.473045S130.818848 59.15192 87.23124 59.15192" id="Oval-2" opacity=".580574" fill="#E4CF83"/></g></g></svg>