<svg viewBox="0 0 49 68" xmlns="http://www.w3.org/2000/svg"><title>leftHand</title><g id="left-hand" fill="none" fill-rule="evenodd"><g id="leftHand"><path d="M-1.392023-5.58171L38.06851 56.59616S-2.425593 2.354328-3.511535.69902" id="Line" stroke="#287D98" stroke-width="5" stroke-linecap="square"/><path d="M35.773683 62.278006c1.994948-3.471445 2.211615-7.097987.48394-8.100107-1.727676-1.00212-4.74546.999663-6.740407 4.471108-1.994948 3.471446-2.211615 7.097988-.48394 8.100108 1.727676 1.00212 4.74546-.999664 6.740407-4.47111z" id="Oval-16" fill="#287D98"/><path d="M43.524958 56.063528c3.67272-1.566238 6.018146-4.331522 5.238658-6.176435-.77949-1.844912-4.388716-2.070823-8.061434-.504585-3.67272 1.566238-6.018146 4.331522-5.238658 6.176435.77949 1.844913 4.388716 2.070823 8.061434.504585z" id="Oval-16" fill="#287D98"/><path d="M44.629867 66.898013c1.673104-1.091588 1.267815-4.701767-.905238-8.06356-2.173054-3.361796-5.29098-5.202162-6.964085-4.110575-1.673104 1.091588-1.267816 4.701767.905237 8.06356 2.173054 3.361796 5.29098 5.202162 6.964085 4.110575z" id="Oval-16" fill="#287D98"/></g></g></svg>