<?xml version="1.0" encoding="UTF-8" standalone="no"?>
<svg width="138px" height="58px" viewBox="0 0 138 58" version="1.1" xmlns="http://www.w3.org/2000/svg" xmlns:xlink="http://www.w3.org/1999/xlink" xmlns:sketch="http://www.bohemiancoding.com/sketch/ns">
    <!-- Generator: Sketch 3.4.4 (17248) - http://www.bohemiancoding.com/sketch -->
    <title>feet</title>
    <desc>Created with Sketch.</desc>
    <defs></defs>
    <g id="app" stroke="none" stroke-width="1" fill="none" fill-rule="evenodd" sketch:type="MSPage">
        <g id="feet" sketch:type="MSLayerGroup" transform="translate(0.000000, -1.000000)">
            <path d="M69,59 C107.107648,59 138,49.3741221 138,37.5 C138,25.6258779 107.107648,16 69,16 C30.8923523,16 0,25.6258779 0,37.5 C0,49.3741221 30.8923523,59 69,59 Z" id="Oval-71" opacity="0.811275653" fill-opacity="0.853543931" fill="#091A3E" sketch:type="MSShapeGroup"></path>
            <g id="legs2" transform="translate(19.000000, 0.000000)" sketch:type="MSShapeGroup">
                <g id="Rectangle-160-+-Path-867-+-Path-868" transform="translate(81.178614, 27.868817) rotate(-11.000000) translate(-81.178614, -27.868817) translate(64.678614, 4.368817)">
                    <path d="M5.40928424,18.3860642 C5.40928424,13.1258967 3.24303684,2.15248187 3.24303684,2.15248187 C3.03947207,1.07416606 3.77608227,0.200018385 4.86470239,0.200018385 L27.0774802,0.200018385 C28.1766661,0.200018385 28.9568541,1.07911465 28.8220082,2.17574192 C28.8220082,2.17574192 27.377845,13.30272 27.377845,18.3860642 C27.377845,22.9310105 31.7732755,32.5263273 31.7732755,32.5263273 C34.4788964,39.1707734 30.8542405,44.843304 23.6875615,45.1957781 L19.9705441,45.3785898 C19.9705441,45.3785898 13.9817711,45.8570903 11.3238961,45.3785898 C9.97909374,45.1364834 8.82190629,44.857683 8.82190629,44.857683 C1.80401672,43.330722 -1.43095732,36.8195143 1.46088779,30.241643 C1.46088779,30.241643 5.40928424,22.7541872 5.40928424,18.3860642 Z" id="Rectangle-160" fill="#1C6C86"></path>
                    <path d="M27.6584492,44.1785714 C27.6584492,44.1785714 27.6553367,41.2523047 27.371091,40.0087985 C27.0920403,38.788019 25.96856,36.7857143 25.96856,36.7857143" id="Path-867" stroke="#0F163A"></path>
                    <path d="M15.4476066,46.1418258 C15.4476066,46.1418258 16.8474587,42.9050439 17.1374958,41.2132542 C17.4107551,39.6193297 17.1374959,36.2846829 17.1374959,36.2846829" id="Path-868" stroke="#0F163A"></path>
                </g>
                <g id="Rectangle-160-+-Path-867-+-Path-868" transform="translate(20.921404, 25.927938) scale(-1, 1) rotate(-12.000000) translate(-20.921404, -25.927938) translate(4.421404, 2.927938)">
                    <g transform="translate(0.000000, -0.000000)">
                        <path d="M5.58245352,18.1860458 C5.58245352,12.9258783 3.46733962,1.95246349 3.46733962,1.95246349 C3.26857992,0.874147678 4.00268516,0 5.11428063,0 L26.6756251,0 C27.7839653,0 28.5741914,0.879096268 28.4425285,1.97572354 C28.4425285,1.97572354 27.0324542,13.1027016 27.0324542,18.1860458 C27.0324542,22.7309922 31.3042202,32.273482 31.3042202,32.273482 C33.956973,38.9471036 30.2891535,44.6502185 23.1197126,45.011353 L19.8,45.1785714 C19.8,45.1785714 13.9525899,45.6570719 11.3574531,45.1785714 C10.0443943,44.936465 9.19869798,44.7198354 9.19869798,44.7198354 C2.18951704,43.1585384 -1.08443894,36.5927067 1.74699007,29.9937465 C1.74699007,29.9937465 5.58245352,22.5541689 5.58245352,18.1860458 Z" id="Rectangle-160" fill="#287D98"></path>
                        <path d="M26.2434279,45.1837465 C26.2434279,45.1837465 26.2403154,42.2574798 25.9560697,41.0139736 C25.677019,39.7931941 24.5535386,37.7908894 24.5535386,37.7908894" id="Path-867" stroke="#0F163A"></path>
                        <path d="M14.8222334,45.577208 C14.8222334,45.577208 16.2220855,42.3404262 16.5121226,40.6486364 C16.7853819,39.0547119 16.5121226,35.7200652 16.5121226,35.7200652" id="Path-868" stroke="#0F163A" transform="translate(15.727902, 40.648637) rotate(-9.000000) translate(-15.727902, -40.648637) "></path>
                    </g>
                </g>
            </g>
        </g>
    </g>
</svg>