<svg viewBox="0 0 50 67" xmlns="http://www.w3.org/2000/svg"><title>rightHand</title><g id="right-hand" fill="none" fill-rule="evenodd"><g id="rightHand"><path d="M50.392023-6.58171L10.931488 55.59616S51.425593 1.354328 52.511535-.30098" id="Line" stroke="#1C6C86" stroke-width="5" stroke-linecap="square"/><path d="M12.742377 53.1779c1.727676-1.00212 4.74546.999663 6.740407 4.471108 1.994948 3.471446 2.211615 7.097988.48394 8.100108-1.727676 1.00212-4.74546-.999664-6.740407-4.47111-1.994948-3.471445-2.211615-7.097987-.48394-8.100107z" id="Oval-16" fill="#1C6C86"/><path d="M5.475042 55.063528C1.802322 53.49729-.543104 50.732006.236384 48.887093c.77949-1.844912 4.388716-2.070823 8.061434-.504585 3.67272 1.566238 6.018146 4.331522 5.238658 6.176435-.77949 1.844913-4.388716 2.070823-8.061434.504585z" id="Oval-16" fill="#1C6C86"/><path d="M4.370133 65.898013c-1.673104-1.091588-1.267815-4.701767.905238-8.06356 2.173054-3.361796 5.29098-5.202162 6.964085-4.110575 1.673104 1.091588 1.267816 4.701767-.905238 8.06356-2.173053 3.361796-5.29098 5.202162-6.964084 4.110575z" id="Oval-16" fill="#1C6C86"/></g></g></svg>